<svg width="154" height="58" viewBox="0 0 154 58" fill="none" xmlns="http://www.w3.org/2000/svg">
<mask id="mask0_1_109" style="mask-type:luminance" maskUnits="userSpaceOnUse" x="2" y="2" width="36" height="36">
<path d="M2.33063 2.55548H37.6318V37.8566H2.33063V2.55548Z" fill="white"/>
</mask>
<g mask="url(#mask0_1_109)">
<path d="M37.6318 20.2061C37.6318 20.4949 37.6247 20.7837 37.6107 21.0726C37.5966 21.3608 37.5754 21.6491 37.5473 21.9361C37.5185 22.2238 37.4833 22.5103 37.441 22.7962C37.3987 23.0821 37.3494 23.3662 37.2931 23.6498C37.2367 23.9327 37.1733 24.2145 37.1028 24.4951C37.033 24.7752 36.9561 25.0534 36.8721 25.3299C36.7882 25.6064 36.6978 25.8806 36.6003 26.1524C36.5029 26.4248 36.399 26.6937 36.2886 26.9608C36.1776 27.2279 36.0608 27.4915 35.9375 27.7527C35.8137 28.014 35.6839 28.2717 35.5477 28.5265C35.4115 28.7813 35.2695 29.0325 35.1209 29.2803C34.9724 29.528 34.818 29.7722 34.6572 30.0123C34.4969 30.2524 34.3307 30.4884 34.1587 30.7209C33.9861 30.9528 33.8088 31.1806 33.6257 31.4037C33.4425 31.6267 33.2535 31.8457 33.0598 32.0594C32.8654 32.2737 32.6664 32.4827 32.4621 32.687C32.2578 32.8913 32.0488 33.0903 31.8346 33.2846C31.6209 33.4783 31.4019 33.6668 31.1788 33.8505C30.9557 34.0337 30.728 34.211 30.4961 34.3836C30.2636 34.5556 30.0276 34.7217 29.7875 34.882C29.5474 35.0429 29.3032 35.1973 29.0554 35.3458C28.8077 35.4943 28.5564 35.6364 28.3016 35.7726C28.0468 35.9088 27.7891 36.0385 27.5279 36.1624C27.2666 36.2857 27.003 36.4025 26.7359 36.5134C26.4688 36.6238 26.1999 36.7277 25.9276 36.8252C25.6557 36.9226 25.3816 37.013 25.1051 37.097C24.8286 37.1809 24.5503 37.2578 24.2703 37.3277C23.9897 37.3981 23.7085 37.4616 23.4249 37.5179C23.1414 37.5743 22.8572 37.6236 22.5713 37.6658C22.2854 37.7081 21.9989 37.7433 21.7113 37.7721C21.4242 37.8003 21.136 37.8214 20.8477 37.8355C20.5589 37.8496 20.27 37.8566 19.9812 37.8566C19.6924 37.8566 19.4035 37.8496 19.1153 37.8355C18.827 37.8214 18.5388 37.8003 18.2511 37.7721C17.9641 37.7433 17.677 37.7081 17.3917 37.6658C17.1058 37.6236 16.8211 37.5743 16.5381 37.5179C16.2545 37.4616 15.9728 37.3981 15.6927 37.3277C15.4127 37.2578 15.1338 37.1809 14.8579 37.097C14.5814 37.013 14.3073 36.9226 14.0349 36.8252C13.7631 36.7277 13.4936 36.6238 13.2271 36.5134C12.96 36.4025 12.6958 36.2857 12.4345 36.1624C12.1739 36.0385 11.9156 35.9088 11.6608 35.7726C11.406 35.6364 11.1547 35.4943 10.907 35.3458C10.6593 35.1973 10.4156 35.0429 10.1749 34.882C9.93483 34.7217 9.69883 34.5556 9.46694 34.3836C9.23505 34.211 9.00727 34.0337 8.78419 33.8505C8.56052 33.6668 8.34213 33.4783 8.12786 33.2846C7.91417 33.0903 7.70459 32.8913 7.50029 32.687C7.29599 32.4827 7.09698 32.2737 6.90325 32.0594C6.70893 31.8457 6.52048 31.6267 6.33732 31.4037C6.15416 31.1806 5.97628 30.9528 5.80427 30.7209C5.63226 30.4884 5.46612 30.2524 5.30527 30.0123C5.145 29.7722 4.9906 29.528 4.84208 29.2803C4.69355 29.0325 4.55089 28.7813 4.41469 28.5265C4.2785 28.2717 4.14876 28.014 4.02547 27.7527C3.90219 27.4915 3.78478 27.2279 3.67441 26.9608C3.56404 26.6937 3.46013 26.4242 3.36268 26.1524C3.26523 25.8806 3.17482 25.6064 3.09087 25.3299C3.00692 25.0534 2.93002 24.7752 2.85957 24.4951C2.78971 24.2145 2.72631 23.9327 2.66995 23.6498C2.61359 23.3662 2.56428 23.0821 2.52201 22.7962C2.47915 22.5103 2.44393 22.2238 2.41575 21.9361C2.38757 21.6491 2.36644 21.3608 2.35176 21.0726C2.33767 20.7837 2.33063 20.4949 2.33063 20.2061C2.33063 19.9172 2.33767 19.6284 2.35176 19.3401C2.36644 19.0519 2.38757 18.7637 2.41575 18.476C2.44393 18.1889 2.47915 17.9018 2.52201 17.6165C2.56428 17.3306 2.61359 17.0459 2.66995 16.7629C2.72631 16.4794 2.78971 16.1976 2.85957 15.9176C2.93002 15.637 3.00692 15.3587 3.09087 15.0828C3.17482 14.8063 3.26523 14.5321 3.36268 14.2597C3.46013 13.9879 3.56404 13.7184 3.67441 13.4513C3.78478 13.1848 3.90219 12.9206 4.02547 12.6594C4.14876 12.3987 4.2785 12.1404 4.41469 11.8856C4.55089 11.6309 4.69355 11.3796 4.84208 11.1319C4.9906 10.8841 5.145 10.6405 5.30527 10.3998C5.46612 10.1597 5.63226 9.92369 5.80427 9.6918C5.97628 9.45991 6.15416 9.23213 6.33732 9.00904C6.52048 8.78537 6.70893 8.56699 6.90325 8.35271C7.09698 8.13902 7.29599 7.92944 7.50029 7.72514C7.70459 7.52084 7.91417 7.32183 8.12786 7.1281C8.34213 6.93378 8.56052 6.74534 8.78419 6.56217C9.00727 6.37901 9.23505 6.20113 9.46694 6.02912C9.69883 5.85711 9.93483 5.69097 10.1749 5.53012C10.4156 5.36985 10.6593 5.21546 10.907 5.06693C11.1547 4.9184 11.406 4.77575 11.6608 4.63955C11.9156 4.50335 12.1739 4.37361 12.4345 4.25033C12.6958 4.12646 12.96 4.00963 13.2271 3.89926C13.4936 3.7889 13.7631 3.6844 14.0349 3.58753C14.3073 3.49008 14.5814 3.39967 14.8579 3.31573C15.1338 3.23178 15.4127 3.15487 15.6927 3.08442C15.9728 3.01456 16.2545 2.95116 16.5381 2.8948C16.8211 2.83844 17.1058 2.78913 17.3917 2.74686C17.677 2.70401 17.9641 2.66878 18.2511 2.6406C18.5388 2.61243 18.827 2.59129 19.1153 2.57662C19.4035 2.56253 19.6924 2.55548 19.9812 2.55548C20.27 2.55548 20.5589 2.56253 20.8477 2.57662C21.136 2.59129 21.4242 2.61243 21.7113 2.6406C21.9989 2.66878 22.2854 2.70401 22.5713 2.74686C22.8572 2.78913 23.1414 2.83844 23.4249 2.8948C23.7085 2.95116 23.9897 3.01456 24.2703 3.08442C24.5503 3.15487 24.8286 3.23178 25.1051 3.31573C25.3816 3.39967 25.6557 3.49008 25.9276 3.58753C26.1999 3.6844 26.4688 3.7889 26.7359 3.89926C27.003 4.00963 27.2666 4.12646 27.5279 4.25033C27.7891 4.37361 28.0468 4.50335 28.3016 4.63955C28.5564 4.77575 28.8077 4.9184 29.0554 5.06693C29.3032 5.21546 29.5474 5.36985 29.7875 5.53012C30.0276 5.69097 30.2636 5.85711 30.4961 6.02912C30.728 6.20113 30.9557 6.37901 31.1788 6.56217C31.4019 6.74534 31.6209 6.93378 31.8346 7.1281C32.0488 7.32183 32.2578 7.52084 32.4621 7.72514C32.6664 7.92944 32.8654 8.13902 33.0598 8.35271C33.2535 8.56699 33.4425 8.78537 33.6257 9.00904C33.8088 9.23213 33.9861 9.45991 34.1587 9.6918C34.3307 9.92369 34.4969 10.1597 34.6572 10.3998C34.818 10.6405 34.9724 10.8841 35.1209 11.1319C35.2695 11.3796 35.4115 11.6309 35.5477 11.8856C35.6839 12.1404 35.8137 12.3987 35.9375 12.6594C36.0608 12.9206 36.1776 13.1848 36.2886 13.4513C36.399 13.7184 36.5029 13.9879 36.6003 14.2597C36.6978 14.5321 36.7882 14.8063 36.8721 15.0828C36.9561 15.3587 37.033 15.637 37.1028 15.9176C37.1733 16.1976 37.2367 16.4794 37.2931 16.7629C37.3494 17.0459 37.3987 17.3306 37.441 17.6165C37.4833 17.9018 37.5185 18.1889 37.5473 18.476C37.5754 18.7637 37.5966 19.0519 37.6107 19.3401C37.6247 19.6284 37.6318 19.9172 37.6318 20.2061Z" fill="white"/>
</g>
<path fill-rule="evenodd" clip-rule="evenodd" d="M7.5126 24.2491H15.6604V32.9153H24.3378V24.7781L23.773 24.2133C18.83 19.2767 20.0687 20.5143 15.6604 16.1119L12.6517 19.1165V17.8461H9.99176V21.7729L7.51378 24.2486L7.5126 24.2491ZM21.389 27.2191H18.3662V30.2378H21.389V27.2191Z" fill="#A4DCF2"/>
<path fill-rule="evenodd" clip-rule="evenodd" d="M15.118 15.583H6.98309V23.7079L9.10532 21.5886V16.8903H13.1654V17.5332L15.1186 15.5824L15.118 15.583ZM24.3378 6.91676H15.6604V15.0417C19.7499 19.1259 20.455 19.8298 24.8802 24.2492H33.0151V15.583H24.3378V6.91676Z" fill="#FFB82F"/>
<mask id="mask1_1_109" style="mask-type:luminance" maskUnits="userSpaceOnUse" x="0" y="0" width="40" height="49">
<path d="M0 0H40V48.2535H0V0Z" fill="white"/>
</mask>
<g mask="url(#mask1_1_109)">
<path fill-rule="evenodd" clip-rule="evenodd" d="M19.9999 48.2536L34.158 34.1136C41.946 26.3356 41.946 13.6105 34.1586 5.83311C26.3706 -1.94486 13.6291 -1.94486 5.84111 5.83311C-1.94626 13.6105 -1.94626 26.3356 5.84229 34.1136L19.9999 48.2536ZM19.9999 3.45493C10.8658 3.45493 3.46117 10.8501 3.46117 19.9731C3.46117 29.0954 10.8658 36.49 19.9999 36.49C29.1339 36.49 36.5385 29.0954 36.5385 19.9731C36.5385 10.8501 29.1339 3.45493 19.9999 3.45493Z" fill="#A4DCF2"/>
</g>
<mask id="mask2_1_109" style="mask-type:luminance" maskUnits="userSpaceOnUse" x="5" y="5" width="30" height="30">
<path d="M5.47729 5.13326H34.4294V34.0854H5.47729V5.13326Z" fill="white"/>
</mask>
<g mask="url(#mask2_1_109)">
<path d="M34.4294 19.609C34.4294 19.8462 34.4235 20.0828 34.4124 20.3194C34.4006 20.5559 34.383 20.7925 34.3601 21.0279C34.3366 21.2639 34.3079 21.4988 34.2726 21.733C34.238 21.9678 34.1975 22.2009 34.1517 22.4334C34.1053 22.6658 34.0531 22.8966 33.9956 23.1267C33.938 23.3562 33.8752 23.5846 33.8065 23.8112C33.7372 24.0378 33.6633 24.2626 33.5834 24.4857C33.5036 24.7088 33.4185 24.9301 33.3275 25.1491C33.2371 25.3675 33.1408 25.5841 33.0398 25.7984C32.9383 26.0127 32.832 26.224 32.7205 26.433C32.6083 26.642 32.4921 26.8481 32.37 27.0512C32.2485 27.2543 32.1217 27.4545 31.9902 27.6517C31.8581 27.8484 31.7219 28.0421 31.581 28.2324C31.4395 28.4226 31.2939 28.6092 31.1436 28.7924C30.9933 28.9756 30.8389 29.1552 30.6798 29.3307C30.5207 29.5063 30.3569 29.6777 30.1896 29.845C30.0223 30.0129 29.8509 30.1761 29.6754 30.3352C29.4993 30.4943 29.3202 30.6487 29.137 30.799C28.9539 30.9493 28.7672 31.0954 28.577 31.2363C28.3868 31.3772 28.193 31.514 27.9958 31.6455C27.7991 31.777 27.5989 31.9038 27.3958 32.0254C27.1927 32.1475 26.9866 32.2643 26.7776 32.3758C26.5686 32.4874 26.3573 32.5942 26.143 32.6952C25.9287 32.7968 25.7121 32.8924 25.4931 32.9834C25.2742 33.0738 25.0534 33.159 24.8304 33.2388C24.6073 33.3186 24.3824 33.3932 24.1558 33.4619C23.9292 33.5306 23.7008 33.594 23.4707 33.6515C23.2412 33.709 23.0099 33.7607 22.7774 33.8071C22.5455 33.8535 22.3119 33.894 22.0776 33.9286C21.8434 33.9632 21.608 33.992 21.3726 34.0155C21.1366 34.0384 20.9006 34.056 20.664 34.0677C20.4274 34.0795 20.1902 34.0854 19.9536 34.0854C19.7165 34.0854 19.4799 34.0795 19.2433 34.0677C19.0067 34.056 18.7707 34.0384 18.5347 34.0155C18.2987 33.992 18.0639 33.9632 17.8296 33.9286C17.5954 33.894 17.3618 33.8535 17.1293 33.8071C16.8968 33.7607 16.6661 33.709 16.436 33.6515C16.2064 33.594 15.9781 33.5306 15.7515 33.4619C15.5248 33.3932 15.3 33.3186 15.0769 33.2388C14.8538 33.159 14.6325 33.0738 14.4135 32.9834C14.1952 32.8924 13.9785 32.7968 13.7643 32.6952C13.55 32.5942 13.3386 32.4874 13.1296 32.3758C12.9206 32.2643 12.7146 32.1475 12.5115 32.0254C12.3083 31.9038 12.1082 31.777 11.9109 31.6455C11.7142 31.514 11.5205 31.3772 11.3303 31.2363C11.1401 31.0954 10.9534 30.9493 10.7702 30.799C10.5871 30.6487 10.4074 30.4943 10.2319 30.3352C10.0564 30.1761 9.88495 30.0129 9.71764 29.845C9.54974 29.6777 9.38654 29.5063 9.22744 29.3307C9.06835 29.1552 8.91395 28.9756 8.76366 28.7924C8.61338 28.6092 8.4672 28.4226 8.3263 28.2324C8.18541 28.0421 8.04862 27.8484 7.91712 27.6517C7.78562 27.4545 7.65881 27.2543 7.53729 27.0512C7.41518 26.8481 7.29836 26.642 7.18682 26.433C7.07528 26.224 6.96843 26.0127 6.86746 25.7984C6.76589 25.5841 6.6702 25.3675 6.57921 25.1491C6.4888 24.9301 6.40368 24.7088 6.32384 24.4857C6.244 24.2626 6.16944 24.0378 6.10075 23.8112C6.03207 23.5846 5.96867 23.3562 5.91113 23.1267C5.8536 22.8966 5.80194 22.6658 5.75556 22.4334C5.70918 22.2009 5.66868 21.9678 5.63404 21.733C5.5994 21.4988 5.57064 21.2639 5.54716 21.0279C5.52426 20.7925 5.50665 20.5559 5.49491 20.3194C5.48317 20.0828 5.47729 19.8462 5.47729 19.609C5.47729 19.3724 5.48317 19.1353 5.49491 18.8987C5.50665 18.6621 5.52426 18.4261 5.54716 18.1901C5.57064 17.9547 5.5994 17.7193 5.63404 17.485C5.66868 17.2508 5.70918 17.0171 5.75556 16.7852C5.80194 16.5528 5.8536 16.3215 5.91113 16.0919C5.96867 15.8618 6.03207 15.6334 6.10075 15.4068C6.16944 15.1802 6.244 14.9554 6.32384 14.7323C6.40368 14.5092 6.4888 14.2885 6.57921 14.0695C6.6702 13.8505 6.76589 13.6339 6.86746 13.4196C6.96843 13.2053 7.07528 12.994 7.18682 12.785C7.29836 12.576 7.41518 12.37 7.53729 12.1668C7.65881 11.9637 7.78562 11.7635 7.91712 11.5669C8.04862 11.3696 8.18541 11.1759 8.3263 10.9857C8.4672 10.7955 8.61338 10.6088 8.76366 10.4256C8.91395 10.2424 9.06835 10.0634 9.22744 9.88786C9.38654 9.71233 9.54974 9.54032 9.71764 9.37301C9.88495 9.2057 10.0564 9.04191 10.2319 8.88281C10.4074 8.72372 10.5871 8.56932 10.7702 8.41904C10.9534 8.26875 11.1401 8.12316 11.3303 7.98168C11.5205 7.84078 11.7142 7.70458 11.9109 7.57249C12.1082 7.44099 12.3083 7.31419 12.5115 7.19267C12.7146 7.07056 12.9206 6.95432 13.1296 6.84219C13.3386 6.73065 13.55 6.62439 13.7643 6.52283C13.9785 6.42185 14.1952 6.32558 14.4135 6.23517C14.6325 6.14417 14.8538 6.05905 15.0769 5.97921C15.3 5.89937 15.5248 5.8254 15.7515 5.75613C15.9781 5.68744 16.2064 5.62463 16.436 5.56709C16.6661 5.50956 16.8968 5.45731 17.1293 5.41093C17.3618 5.36514 17.5954 5.32464 17.8296 5.29C18.0639 5.25478 18.2987 5.22601 18.5347 5.20253C18.7707 5.17963 19.0067 5.16202 19.2433 5.15028C19.4799 5.13913 19.7165 5.13326 19.9536 5.13326C20.1902 5.13326 20.4274 5.13913 20.664 5.15028C20.9006 5.16202 21.1366 5.17963 21.3726 5.20253C21.608 5.22601 21.8434 5.25478 22.0776 5.29C22.3119 5.32464 22.5455 5.36514 22.7774 5.41093C23.0099 5.45731 23.2412 5.50956 23.4707 5.56709C23.7008 5.62463 23.9292 5.68744 24.1558 5.75613C24.3824 5.8254 24.6073 5.89937 24.8304 5.97921C25.0534 6.05905 25.2742 6.14417 25.4931 6.23517C25.7121 6.32558 25.9287 6.42185 26.143 6.52283C26.3573 6.62439 26.5686 6.73065 26.7776 6.84219C26.9866 6.95432 27.1927 7.07056 27.3958 7.19267C27.5989 7.31419 27.7991 7.44099 27.9958 7.57249C28.193 7.70458 28.3868 7.84078 28.577 7.98168C28.7672 8.12316 28.9539 8.26875 29.137 8.41904C29.3202 8.56932 29.4993 8.72372 29.6754 8.88281C29.8509 9.04191 30.0223 9.2057 30.1896 9.37301C30.3569 9.54032 30.5207 9.71233 30.6798 9.88786C30.8389 10.0634 30.9933 10.2424 31.1436 10.4256C31.2939 10.6088 31.4395 10.7955 31.581 10.9857C31.7219 11.1759 31.8581 11.3696 31.9902 11.5669C32.1217 11.7635 32.2485 11.9637 32.37 12.1668C32.4921 12.37 32.6083 12.576 32.7205 12.785C32.832 12.994 32.9383 13.2053 33.0398 13.4196C33.1408 13.6339 33.2371 13.8505 33.3275 14.0695C33.4185 14.2885 33.5036 14.5092 33.5834 14.7323C33.6633 14.9554 33.7372 15.1802 33.8065 15.4068C33.8752 15.6334 33.938 15.8618 33.9956 16.0919C34.0531 16.3215 34.1053 16.5528 34.1517 16.7852C34.1975 17.0171 34.238 17.2508 34.2726 17.485C34.3079 17.7193 34.3366 17.9547 34.3601 18.1901C34.383 18.4261 34.4006 18.6621 34.4124 18.8987C34.4235 19.1353 34.4294 19.3724 34.4294 19.609Z" fill="white"/>
</g>
<mask id="mask3_1_109" style="mask-type:luminance" maskUnits="userSpaceOnUse" x="5" y="9" width="30" height="19">
<path d="M5.47729 9.02431H34.1758V27.9635H5.47729V9.02431Z" fill="white"/>
</mask>
<g mask="url(#mask3_1_109)">
<path d="M30.0957 24.9689L23.8822 24.9607C23.5171 23.6416 22.5255 23.0833 21.2921 22.7486C20.9704 21.2681 19.7804 20.2137 18.2441 20.1908C18.2159 20.1902 18.1872 20.1908 18.159 20.1932C17.9148 20.2155 18.058 20.1996 17.7298 20.246C16.9467 19.1793 15.8254 18.3668 14.5415 18.0363C11.8117 17.3336 8.89574 18.9139 8.13079 21.6549C7.59246 21.8534 7.12457 22.1616 6.7148 22.5672C6.60444 22.6764 6.53399 22.8197 6.44358 22.9459C5.78255 22.117 5.53892 21.1131 5.48608 20.0746C5.54303 17.8884 6.82928 16.1272 8.89926 15.4256C9.07479 15.3658 9.26911 15.3417 9.44405 15.3141C9.61899 15.2865 10.6311 15.0112 13.0527 15.7256C11.5446 14.7851 9.62252 14.6836 9.64013 14.6184C10.7033 10.6129 14.7487 8.40731 18.8059 9.26325C21.1295 9.75345 22.8649 11.3908 23.8558 12.8062C23.8805 12.842 22.5396 13.7149 22.0171 14.7669C22.8461 13.8687 23.8218 13.4637 24.1746 13.3234C24.5274 13.1831 25.1315 13.0633 25.6235 13.0322C27.8255 13.0322 29.6102 14.821 29.6102 17.0271C29.6102 17.0271 29.599 17.2596 29.5926 17.3776C29.5867 17.4944 29.4869 18.1167 29.2081 19.1464C29.9436 18.1977 29.9865 17.3723 30.0205 17.3682C31.1031 17.2373 33.0962 18.1179 33.7877 19.5415C33.9797 19.9366 34.0566 20.3382 34.1458 20.765V20.7714L34.167 20.7738C34.1535 20.9006 34.1593 21.028 34.167 21.1548C34.167 23.2611 32.3441 24.9689 30.0957 24.9689ZM13.2852 27.9623C13.1913 27.9606 13.0973 27.9617 13.0034 27.9523L9.29318 27.9471C7.72514 27.9471 6.45415 26.6731 6.45415 25.1022C6.48702 23.8241 7.23905 22.7944 8.44898 22.3841C8.55172 22.3494 8.66502 22.3353 8.76717 22.3195C8.86932 22.3031 9.46108 22.1422 10.8765 22.5602C9.99471 22.0101 8.87167 21.9508 8.88165 21.9127C9.50334 19.5715 11.868 18.2823 14.2392 18.783C15.5976 19.0695 16.6115 20.0264 17.1909 20.8536C17.2056 20.8747 16.4219 21.3849 16.116 21.9995C16.6003 21.4747 17.1709 21.2381 17.3776 21.1559C17.5837 21.0737 17.9365 21.0039 18.2241 20.9857C19.511 20.9857 20.5548 22.0312 20.5548 23.321C20.5548 23.321 20.5477 23.4566 20.5442 23.5253C20.5407 23.594 20.4826 23.9574 20.3194 24.5591C20.7491 24.0049 20.7743 23.5224 20.7943 23.52C21.4271 23.4431 22.5919 23.958 22.9964 24.7904C23.1085 25.0211 23.1531 25.256 23.2054 25.5055L23.2177 25.5108C23.21 25.5847 23.2136 25.6593 23.2177 25.7333C23.2177 26.9643 22.1528 27.9623 20.8383 27.9623L13.5617 27.9529L13.5241 27.957L13.2852 27.9623Z" fill="#A4DCF2"/>
</g>
<mask id="mask4_1_109" style="mask-type:luminance" maskUnits="userSpaceOnUse" x="27" y="25" width="9" height="3">
<path d="M27.866 25.1051H35.0798V27.5238H27.866V25.1051Z" fill="white"/>
</mask>
<g mask="url(#mask4_1_109)">
<path d="M35.0552 26.3227C35.0552 26.362 35.0493 26.4007 35.0382 26.4401C35.0264 26.4794 35.0094 26.5181 34.9859 26.5569C34.963 26.5956 34.9348 26.6332 34.9008 26.6714C34.8661 26.7089 34.8268 26.7459 34.7816 26.7823C34.737 26.8187 34.6865 26.8539 34.6313 26.8886C34.5755 26.9232 34.5151 26.9573 34.4499 26.9896C34.3848 27.0224 34.3143 27.0541 34.2397 27.0847C34.1652 27.1152 34.0865 27.144 34.0032 27.1721C33.9198 27.1997 33.8329 27.2261 33.7419 27.2508C33.6509 27.276 33.5564 27.2995 33.459 27.3212C33.3609 27.343 33.2605 27.3635 33.1566 27.3817C33.0527 27.4005 32.9465 27.4175 32.8378 27.4322C32.7292 27.4475 32.6183 27.4604 32.5062 27.4721C32.3934 27.4833 32.2795 27.4933 32.1639 27.5009C32.0488 27.5085 31.9326 27.5144 31.8152 27.5179C31.6984 27.522 31.5809 27.5238 31.4635 27.5238C31.3455 27.5238 31.2281 27.522 31.1113 27.5179C30.9939 27.5144 30.8782 27.5085 30.7626 27.5009C30.6469 27.4933 30.533 27.4833 30.4209 27.4721C30.3082 27.4604 30.1972 27.4475 30.0886 27.4322C29.98 27.4175 29.8738 27.4005 29.7699 27.3817C29.6665 27.3635 29.5656 27.343 29.4675 27.3212C29.3701 27.2995 29.2756 27.276 29.1846 27.2508C29.0936 27.2261 29.0067 27.1997 28.9233 27.1721C28.8405 27.144 28.7613 27.1152 28.6867 27.0847C28.6122 27.0541 28.5423 27.0224 28.4766 26.9896C28.4114 26.9573 28.3509 26.9232 28.2958 26.8886C28.24 26.8539 28.1901 26.8187 28.1449 26.7823C28.0997 26.7459 28.0603 26.7089 28.0263 26.6714C27.9917 26.6332 27.9635 26.5956 27.9406 26.5569C27.9177 26.5181 27.9001 26.4794 27.8889 26.4401C27.8772 26.4007 27.8713 26.362 27.8713 26.3227C27.8713 26.2833 27.8772 26.244 27.8889 26.2047C27.9001 26.1653 27.9177 26.1266 27.9406 26.0878C27.9635 26.0497 27.9917 26.0115 28.0263 25.9739C28.0603 25.9358 28.0997 25.8988 28.1449 25.863C28.1901 25.8266 28.24 25.7908 28.2958 25.7561C28.3509 25.7215 28.4114 25.6875 28.4766 25.6552C28.5423 25.6223 28.6122 25.5906 28.6867 25.5601C28.7613 25.5301 28.8405 25.5008 28.9233 25.4732C29.0067 25.445 29.0936 25.4186 29.1846 25.3939C29.2756 25.3687 29.3701 25.3452 29.4675 25.3235C29.5656 25.3018 29.6665 25.2818 29.7699 25.263C29.8738 25.2442 29.98 25.2278 30.0886 25.2125C30.1972 25.1973 30.3082 25.1843 30.4209 25.1726C30.533 25.1614 30.6469 25.1521 30.7626 25.1444C30.8782 25.1368 30.9939 25.1309 31.1113 25.1268C31.2281 25.1233 31.3455 25.1209 31.4635 25.1209C31.5809 25.1209 31.6984 25.1233 31.8152 25.1268C31.9326 25.1309 32.0488 25.1368 32.1639 25.1444C32.2795 25.1521 32.3934 25.1614 32.5062 25.1726C32.6183 25.1843 32.7292 25.1973 32.8378 25.2125C32.9465 25.2278 33.0527 25.2442 33.1566 25.263C33.2605 25.2818 33.3609 25.3018 33.459 25.3235C33.5564 25.3452 33.6509 25.3687 33.7419 25.3939C33.8329 25.4186 33.9198 25.445 34.0032 25.4732C34.0865 25.5008 34.1652 25.5301 34.2397 25.5601C34.3143 25.5906 34.3848 25.6223 34.4499 25.6552C34.5151 25.6875 34.5755 25.7215 34.6313 25.7561C34.6865 25.7908 34.737 25.8266 34.7816 25.863C34.8268 25.8988 34.8661 25.9358 34.9008 25.9739C34.9348 26.0115 34.963 26.0497 34.9859 26.0878C35.0094 26.1266 35.0264 26.1653 35.0382 26.2047C35.0493 26.244 35.0552 26.2833 35.0552 26.3227Z" fill="white"/>
</g>
<path fill-rule="evenodd" clip-rule="evenodd" d="M33.7965 18.0222C32.5079 16.7301 30.4186 16.7301 29.1305 18.0222C28.0181 19.1376 27.8461 20.8853 28.7184 22.1974L31.4635 26.325L34.208 22.1974C35.081 20.8853 34.9084 19.1376 33.7965 18.0222ZM31.4635 22.0195C32.4052 22.0195 33.1684 21.254 33.1684 20.3094C33.1684 19.3648 32.4052 18.5993 31.4635 18.5993C30.5219 18.5993 29.7581 19.3648 29.7581 20.3094C29.7581 21.254 30.5219 22.0195 31.4635 22.0195Z" fill="white"/>
<mask id="mask5_1_109" style="mask-type:luminance" maskUnits="userSpaceOnUse" x="29" y="18" width="5" height="5">
<path d="M29.5468 18.2752H33.3562V22.0847H29.5468V18.2752Z" fill="white"/>
</mask>
<g mask="url(#mask5_1_109)">
<path d="M33.3562 20.1796C33.3562 20.3047 33.3439 20.4286 33.3192 20.5513C33.2952 20.674 33.2588 20.7931 33.2112 20.9088C33.1631 21.0244 33.1044 21.1342 33.0351 21.2381C32.9658 21.342 32.8866 21.4383 32.7979 21.527C32.7099 21.615 32.6136 21.6943 32.5097 21.7635C32.4058 21.8328 32.296 21.8915 32.1803 21.9397C32.0647 21.9872 31.9455 22.0236 31.8228 22.0483C31.7001 22.0723 31.5763 22.0847 31.4512 22.0847C31.3262 22.0847 31.2023 22.0723 31.0796 22.0483C30.9569 22.0236 30.8377 21.9872 30.7227 21.9397C30.607 21.8915 30.4972 21.8328 30.3933 21.7635C30.2888 21.6943 30.1931 21.615 30.1045 21.527C30.0158 21.4383 29.9372 21.342 29.8673 21.2381C29.798 21.1342 29.7393 21.0244 29.6918 20.9088C29.6436 20.7931 29.6078 20.674 29.5832 20.5513C29.5585 20.4286 29.5468 20.3047 29.5468 20.1796C29.5468 20.0546 29.5585 19.9307 29.5832 19.808C29.6078 19.6853 29.6436 19.5668 29.6918 19.4511C29.7393 19.3355 29.798 19.2257 29.8673 19.1218C29.9372 19.0179 30.0158 18.9216 30.1045 18.8329C30.1931 18.7443 30.2888 18.6656 30.3933 18.5963C30.4972 18.5265 30.607 18.4678 30.7227 18.4202C30.8377 18.3721 30.9569 18.3363 31.0796 18.3116C31.2023 18.2876 31.3262 18.2752 31.4512 18.2752C31.5763 18.2752 31.7001 18.2876 31.8228 18.3116C31.9455 18.3363 32.0647 18.3721 32.1803 18.4202C32.296 18.4678 32.4058 18.5265 32.5097 18.5963C32.6136 18.6656 32.7099 18.7443 32.7979 18.8329C32.8866 18.9216 32.9658 19.0179 33.0351 19.1218C33.1044 19.2257 33.1631 19.3355 33.2112 19.4511C33.2588 19.5668 33.2952 19.6853 33.3192 19.808C33.3439 19.9307 33.3562 20.0546 33.3562 20.1796Z" fill="#FFCA70"/>
</g>
<mask id="mask6_1_109" style="mask-type:luminance" maskUnits="userSpaceOnUse" x="108" y="3" width="44" height="43">
<path d="M108.797 3.06657H151.158V45.428H108.797V3.06657Z" fill="white"/>
</mask>
<g mask="url(#mask6_1_109)">
<path d="M151.158 24.2473C151.158 24.5939 151.15 24.9405 151.133 25.2871C151.116 25.633 151.09 25.9789 151.057 26.3234C151.022 26.6685 150.98 27.0123 150.929 27.3554C150.878 27.6985 150.819 28.0395 150.752 28.3797C150.684 28.7193 150.608 29.0574 150.523 29.3942C150.44 29.7302 150.347 30.0641 150.247 30.3959C150.146 30.7277 150.037 31.0567 149.92 31.3829C149.803 31.7098 149.679 32.0324 149.546 32.3529C149.413 32.6735 149.273 32.9898 149.125 33.3033C148.976 33.6168 148.821 33.926 148.657 34.2318C148.494 34.5375 148.323 34.839 148.145 35.1363C147.967 35.4336 147.782 35.7267 147.589 36.0148C147.396 36.3029 147.197 36.5861 146.99 36.8651C146.783 37.1434 146.571 37.4167 146.351 37.6844C146.131 37.9521 145.904 38.2149 145.672 38.4713C145.439 38.7284 145.2 38.9792 144.955 39.2244C144.709 39.4695 144.459 39.7084 144.201 39.9415C143.945 40.174 143.682 40.4001 143.415 40.6206C143.147 40.8404 142.874 41.0532 142.595 41.2603C142.316 41.4667 142.033 41.6661 141.745 41.8584C141.457 42.0514 141.164 42.2367 140.866 42.4149C140.569 42.5932 140.268 42.7637 139.962 42.9271C139.656 43.0905 139.347 43.2462 139.033 43.3949C138.72 43.5428 138.404 43.683 138.083 43.8161C137.763 43.9486 137.44 44.0733 137.113 44.1902C136.787 44.3072 136.458 44.4156 136.126 44.5164C135.794 44.6171 135.46 44.7094 135.124 44.7932C134.788 44.8778 134.45 44.9539 134.11 45.0215C133.77 45.0891 133.429 45.1483 133.086 45.199C132.742 45.2497 132.399 45.292 132.054 45.3265C131.709 45.3603 131.363 45.3857 131.017 45.4026C130.671 45.4195 130.324 45.428 129.977 45.428C129.631 45.428 129.284 45.4195 128.938 45.4026C128.592 45.3857 128.247 45.3603 127.901 45.3265C127.557 45.292 127.212 45.2497 126.87 45.199C126.527 45.1483 126.185 45.0891 125.846 45.0215C125.505 44.9539 125.167 44.8778 124.831 44.7932C124.495 44.7094 124.161 44.6171 123.829 44.5164C123.498 44.4156 123.169 44.3072 122.842 44.1902C122.516 44.0733 122.192 43.9486 121.872 43.8161C121.552 43.683 121.235 43.5428 120.921 43.3949C120.609 43.2462 120.299 43.0905 119.993 42.9271C119.687 42.7637 119.386 42.5932 119.088 42.4149C118.791 42.2367 118.499 42.0514 118.21 41.8584C117.922 41.6661 117.639 41.4667 117.36 41.2603C117.082 41.0532 116.809 40.8404 116.541 40.6206C116.273 40.4001 116.011 40.174 115.753 39.9415C115.497 39.7084 115.245 39.4695 115 39.2244C114.755 38.9792 114.516 38.7284 114.284 38.4713C114.051 38.2149 113.825 37.9521 113.605 37.6844C113.385 37.4167 113.172 37.1434 112.965 36.8651C112.759 36.5861 112.559 36.3029 112.366 36.0148C112.174 35.7267 111.989 35.4336 111.81 35.1363C111.632 34.839 111.461 34.5375 111.298 34.2318C111.134 33.926 110.978 33.6168 110.831 33.3033C110.683 32.9898 110.542 32.6735 110.409 32.3529C110.277 32.0324 110.152 31.7091 110.035 31.3829C109.918 31.0567 109.81 30.7277 109.709 30.3959C109.608 30.0641 109.516 29.7302 109.431 29.3942C109.348 29.0574 109.272 28.7193 109.204 28.3797C109.136 28.0395 109.077 27.6985 109.026 27.3554C108.975 27.0123 108.933 26.6685 108.899 26.3234C108.865 25.9789 108.84 25.633 108.822 25.2871C108.805 24.9405 108.797 24.5939 108.797 24.2473C108.797 23.9007 108.805 23.5541 108.822 23.2082C108.84 22.8623 108.865 22.5164 108.899 22.1712C108.933 21.8267 108.975 21.4822 109.026 21.1398C109.077 20.7968 109.136 20.4551 109.204 20.1155C109.272 19.7753 109.348 19.4371 109.431 19.1011C109.516 18.7644 109.608 18.4304 109.709 18.0993C109.81 17.7675 109.918 17.4385 110.035 17.1117C110.152 16.7855 110.277 16.4621 110.409 16.1416C110.542 15.8218 110.683 15.5048 110.831 15.1913C110.978 14.8785 111.134 14.5685 111.298 14.2628C111.461 13.957 111.632 13.6555 111.81 13.3582C111.989 13.0609 112.174 12.7686 112.366 12.4797C112.559 12.1916 112.759 11.9084 112.965 11.6302C113.172 11.3519 113.385 11.0786 113.605 10.8109C113.825 10.5424 114.051 10.2804 114.284 10.0232C114.516 9.76682 114.755 9.51532 115 9.27017C115.245 9.02501 115.497 8.78619 115.753 8.55372C116.011 8.32054 116.273 8.0944 116.541 7.87461C116.809 7.65481 117.082 7.44135 117.36 7.23494C117.639 7.02853 117.922 6.82917 118.21 6.63614C118.499 6.44382 118.791 6.25854 119.088 6.08031C119.386 5.90208 119.687 5.73089 119.993 5.56745C120.299 5.40402 120.609 5.24833 120.921 5.10039C121.235 4.95175 121.552 4.81155 121.872 4.67911C122.192 4.54667 122.516 4.42128 122.842 4.30504C123.169 4.1881 123.498 4.07961 123.829 3.97887C124.161 3.87813 124.495 3.78584 124.831 3.7013C125.167 3.61747 125.505 3.54139 125.846 3.47376C126.185 3.40613 126.527 3.34695 126.87 3.29623C127.212 3.24481 127.557 3.20254 127.901 3.16872C128.247 3.13491 128.592 3.10955 128.938 3.09194C129.284 3.07503 129.631 3.06657 129.977 3.06657C130.324 3.06657 130.671 3.07503 131.017 3.09194C131.363 3.10955 131.709 3.13491 132.054 3.16872C132.399 3.20254 132.742 3.24481 133.086 3.29623C133.429 3.34695 133.77 3.40613 134.11 3.47376C134.45 3.54139 134.788 3.61747 135.124 3.7013C135.46 3.78584 135.794 3.87813 136.126 3.97887C136.458 4.07961 136.787 4.1881 137.113 4.30504C137.44 4.42128 137.763 4.54667 138.083 4.67911C138.404 4.81155 138.72 4.95175 139.033 5.10039C139.347 5.24833 139.656 5.40402 139.962 5.56745C140.268 5.73089 140.569 5.90208 140.866 6.08031C141.164 6.25854 141.457 6.44382 141.745 6.63614C142.033 6.82917 142.316 7.02853 142.595 7.23494C142.874 7.44135 143.147 7.65481 143.415 7.87461C143.682 8.0944 143.945 8.32054 144.201 8.55372C144.459 8.78619 144.709 9.02501 144.955 9.27017C145.2 9.51532 145.439 9.76682 145.672 10.0232C145.904 10.2804 146.131 10.5424 146.351 10.8109C146.571 11.0786 146.783 11.3519 146.99 11.6302C147.197 11.9084 147.396 12.1916 147.589 12.4797C147.782 12.7686 147.967 13.0609 148.145 13.3582C148.323 13.6555 148.494 13.957 148.657 14.2628C148.821 14.5685 148.976 14.8785 149.125 15.1913C149.273 15.5048 149.413 15.8218 149.546 16.1416C149.679 16.4621 149.803 16.7855 149.92 17.1117C150.037 17.4385 150.146 17.7675 150.247 18.0993C150.347 18.4304 150.44 18.7644 150.523 19.1011C150.608 19.4371 150.684 19.7753 150.752 20.1155C150.819 20.4551 150.878 20.7968 150.929 21.1398C150.98 21.4822 151.022 21.8267 151.057 22.1712C151.09 22.5164 151.116 22.8623 151.133 23.2082C151.15 23.5541 151.158 23.9007 151.158 24.2473Z" fill="white"/>
</g>
<path fill-rule="evenodd" clip-rule="evenodd" d="M115.015 29.099H124.793V39.4984H135.205V29.7337L134.528 29.056C128.596 23.1321 130.082 24.6171 124.793 19.3343L121.182 22.9398V21.4153H117.99V26.1275L115.017 29.0983L115.015 29.099ZM131.667 32.6629H128.039V36.2853H131.667V32.6629Z" fill="#A4DCF2"/>
<path fill-rule="evenodd" clip-rule="evenodd" d="M124.142 18.6995H114.38V28.4495L116.926 25.9063V20.2684H121.799V21.0398L124.142 18.6988L124.142 18.6995ZM135.205 8.30011H124.793V18.05C129.7 22.951 130.546 23.7957 135.856 29.099H145.618V18.6995H135.205V8.30011Z" fill="#FFB82F"/>
<mask id="mask7_1_109" style="mask-type:luminance" maskUnits="userSpaceOnUse" x="106" y="0" width="48" height="58">
<path d="M106 0H154V57.9042H106V0Z" fill="white"/>
</mask>
<g mask="url(#mask7_1_109)">
<path fill-rule="evenodd" clip-rule="evenodd" d="M130 57.9044L146.989 40.9364C156.335 31.6028 156.335 16.3327 146.99 6.99981C137.645 -2.33376 122.355 -2.33376 113.009 6.99981C103.664 16.3327 103.664 31.6028 113.011 40.9364L130 57.9044ZM130 4.14599C119.039 4.14599 110.153 13.0202 110.153 23.9678C110.153 34.9146 119.039 43.7881 130 43.7881C140.961 43.7881 149.846 34.9146 149.846 23.9678C149.846 13.0202 140.961 4.14599 130 4.14599Z" fill="#A4DCF2"/>
</g>
<mask id="mask8_1_109" style="mask-type:luminance" maskUnits="userSpaceOnUse" x="112" y="6" width="36" height="35">
<path d="M112.573 6.15991H147.315V40.9024H112.573V6.15991Z" fill="white"/>
</mask>
<g mask="url(#mask8_1_109)">
<path d="M147.315 23.5308C147.315 23.8154 147.308 24.0993 147.295 24.3832C147.281 24.6671 147.26 24.951 147.232 25.2335C147.204 25.5167 147.169 25.7985 147.127 26.0796C147.086 26.3614 147.037 26.6411 146.982 26.92C146.926 27.199 146.864 27.4759 146.795 27.752C146.726 28.0275 146.65 28.3015 146.568 28.5734C146.485 28.8454 146.396 29.1152 146.3 29.3829C146.204 29.6506 146.102 29.9162 145.993 30.1789C145.884 30.441 145.769 30.7009 145.648 30.9581C145.526 31.2152 145.398 31.4688 145.265 31.7196C145.13 31.9704 144.991 32.2177 144.844 32.4614C144.698 32.7052 144.546 32.9454 144.388 33.1821C144.23 33.4181 144.066 33.6506 143.897 33.8788C143.727 34.1071 143.553 34.3311 143.372 34.5509C143.192 34.7707 143.007 34.9863 142.816 35.1969C142.625 35.4075 142.428 35.6132 142.228 35.814C142.027 36.0155 141.821 36.2113 141.61 36.4023C141.399 36.5932 141.184 36.7784 140.964 36.9588C140.745 37.1391 140.521 37.3145 140.292 37.4836C140.064 37.6527 139.832 37.8168 139.595 37.9746C139.359 38.1324 139.119 38.2846 138.875 38.4304C138.631 38.577 138.384 38.7172 138.133 38.851C137.882 38.9849 137.629 39.1131 137.372 39.2342C137.114 39.3561 136.855 39.4709 136.592 39.5801C136.329 39.6886 136.064 39.7908 135.796 39.8866C135.529 39.9824 135.259 40.0719 134.987 40.1543C134.715 40.2367 134.441 40.3128 134.165 40.3818C133.889 40.4509 133.612 40.5129 133.333 40.5685C133.055 40.6242 132.774 40.6728 132.493 40.7143C132.212 40.7559 131.93 40.7904 131.647 40.8186C131.364 40.8461 131.081 40.8672 130.797 40.8813C130.513 40.8954 130.228 40.9024 129.944 40.9024C129.66 40.9024 129.376 40.8954 129.092 40.8813C128.808 40.8672 128.525 40.8461 128.242 40.8186C127.958 40.7904 127.677 40.7559 127.396 40.7143C127.114 40.6728 126.834 40.6242 126.555 40.5685C126.276 40.5129 125.999 40.4509 125.723 40.3818C125.448 40.3128 125.174 40.2367 124.902 40.1543C124.63 40.0719 124.36 39.9824 124.092 39.8866C123.825 39.7908 123.559 39.6886 123.296 39.5801C123.034 39.4709 122.774 39.3561 122.517 39.2342C122.26 39.1131 122.006 38.9849 121.756 38.851C121.505 38.7172 121.258 38.577 121.014 38.4304C120.77 38.2846 120.53 38.1324 120.293 37.9746C120.057 37.8168 119.825 37.6527 119.596 37.4836C119.368 37.3145 119.144 37.1391 118.924 36.9588C118.704 36.7784 118.489 36.5932 118.278 36.4023C118.068 36.2113 117.862 36.0155 117.661 35.814C117.46 35.6132 117.264 35.4075 117.073 35.1969C116.882 34.9863 116.697 34.7707 116.516 34.5509C116.336 34.3311 116.161 34.1071 115.992 33.8788C115.822 33.6506 115.658 33.4181 115.501 33.1821C115.343 32.9454 115.191 32.7052 115.045 32.4614C114.898 32.2177 114.758 31.9704 114.624 31.7196C114.49 31.4688 114.362 31.2152 114.241 30.9581C114.119 30.7009 114.004 30.441 113.895 30.1789C113.787 29.9162 113.684 29.6506 113.589 29.3829C113.493 29.1152 113.403 28.8454 113.321 28.5734C113.238 28.3015 113.162 28.0275 113.093 27.752C113.024 27.4759 112.962 27.199 112.907 26.92C112.851 26.6411 112.802 26.3614 112.761 26.0796C112.719 25.7985 112.685 25.5167 112.657 25.2335C112.629 24.951 112.608 24.6671 112.594 24.3832C112.58 24.0993 112.573 23.8154 112.573 23.5308C112.573 23.2469 112.58 22.9623 112.594 22.6784C112.608 22.3945 112.629 22.1113 112.657 21.8281C112.685 21.5456 112.719 21.2631 112.761 20.982C112.802 20.7009 112.851 20.4206 112.907 20.1423C112.962 19.8633 113.024 19.5858 113.093 19.3103C113.162 19.0342 113.238 18.7601 113.321 18.4882C113.403 18.2163 113.493 17.9465 113.589 17.6788C113.684 17.4111 113.787 17.1462 113.895 16.8834C114.004 16.6206 114.119 16.3607 114.241 16.1036C114.362 15.8464 114.49 15.5928 114.624 15.342C114.758 15.0912 114.898 14.844 115.045 14.6002C115.191 14.3565 115.343 14.1162 115.501 13.8802C115.658 13.6435 115.822 13.4111 115.992 13.1828C116.161 12.9546 116.336 12.7305 116.516 12.5107C116.697 12.2909 116.882 12.0761 117.073 11.8654C117.264 11.6548 117.46 11.4484 117.661 11.2476C117.862 11.0468 118.068 10.8503 118.278 10.6594C118.489 10.4685 118.704 10.2832 118.924 10.1028C119.144 9.9225 119.368 9.7478 119.596 9.57802C119.825 9.40894 120.057 9.24551 120.293 9.087C120.53 8.9292 120.77 8.77703 121.014 8.6312C121.258 8.48467 121.505 8.34519 121.756 8.21063C122.006 8.07678 122.26 7.94927 122.517 7.8274C122.774 7.70623 123.034 7.5907 123.296 7.48221C123.559 7.37302 123.825 7.27087 124.092 7.17506C124.36 7.07925 124.63 6.99049 124.902 6.90736C125.174 6.82494 125.448 6.74956 125.723 6.68052C125.999 6.61148 126.276 6.54878 126.555 6.49313C126.834 6.43818 127.114 6.38957 127.396 6.34801C127.677 6.30574 127.958 6.27122 128.242 6.24304C128.525 6.21557 128.808 6.19443 129.092 6.18034C129.376 6.16696 129.66 6.15991 129.944 6.15991C130.228 6.15991 130.513 6.16696 130.797 6.18034C131.081 6.19443 131.364 6.21557 131.647 6.24304C131.93 6.27122 132.212 6.30574 132.493 6.34801C132.774 6.38957 133.055 6.43818 133.333 6.49313C133.612 6.54878 133.889 6.61148 134.165 6.68052C134.441 6.74956 134.715 6.82494 134.987 6.90736C135.259 6.99049 135.529 7.07925 135.796 7.17506C136.064 7.27087 136.329 7.37302 136.592 7.48221C136.855 7.5907 137.114 7.70623 137.372 7.8274C137.629 7.94927 137.882 8.07678 138.133 8.21063C138.384 8.34519 138.631 8.48467 138.875 8.6312C139.119 8.77703 139.359 8.9292 139.595 9.087C139.832 9.24551 140.064 9.40894 140.292 9.57802C140.521 9.7478 140.745 9.9225 140.964 10.1028C141.184 10.2832 141.399 10.4685 141.61 10.6594C141.821 10.8503 142.027 11.0468 142.228 11.2476C142.428 11.4484 142.625 11.6548 142.816 11.8654C143.007 12.0761 143.192 12.2909 143.372 12.5107C143.553 12.7305 143.727 12.9546 143.897 13.1828C144.066 13.4111 144.23 13.6435 144.388 13.8802C144.546 14.1162 144.698 14.3565 144.844 14.6002C144.991 14.844 145.13 15.0912 145.265 15.342C145.398 15.5928 145.526 15.8464 145.648 16.1036C145.769 16.3607 145.884 16.6206 145.993 16.8834C146.102 17.1462 146.204 17.4111 146.3 17.6788C146.396 17.9465 146.485 18.2163 146.568 18.4882C146.65 18.7601 146.726 19.0342 146.795 19.3103C146.864 19.5858 146.926 19.8633 146.982 20.1423C147.037 20.4206 147.086 20.7009 147.127 20.982C147.169 21.2631 147.204 21.5456 147.232 21.8281C147.26 22.1113 147.281 22.3945 147.295 22.6784C147.308 22.9623 147.315 23.2469 147.315 23.5308Z" fill="white"/>
</g>
<mask id="mask9_1_109" style="mask-type:luminance" maskUnits="userSpaceOnUse" x="112" y="10" width="36" height="24">
<path d="M112.573 10.8292H147.011V33.5562H112.573V10.8292Z" fill="white"/>
</mask>
<g mask="url(#mask9_1_109)">
<path d="M142.115 29.9627L134.659 29.9528C134.221 28.3699 133.031 27.6999 131.551 27.2984C131.165 25.5217 129.737 24.2564 127.893 24.229C127.859 24.2283 127.825 24.229 127.791 24.2318C127.498 24.2586 127.67 24.2395 127.276 24.2952C126.336 23.0152 124.99 22.0402 123.45 21.6436C120.174 20.8003 116.675 22.6967 115.757 25.9859C115.111 26.224 114.549 26.5939 114.058 27.0807C113.925 27.2117 113.841 27.3836 113.732 27.5351C112.939 26.5404 112.647 25.3357 112.583 24.0895C112.652 21.466 114.195 19.3526 116.679 18.5108C116.89 18.4389 117.123 18.41 117.333 18.3769C117.543 18.3438 118.757 18.0134 121.663 18.8707C119.853 17.7422 117.547 17.6203 117.568 17.5421C118.844 12.7355 123.698 10.0888 128.567 11.1159C131.355 11.7041 133.438 13.6689 134.627 15.3674C134.657 15.4104 133.048 16.4579 132.421 17.7203C133.415 16.6425 134.586 16.1564 135.01 15.988C135.433 15.8197 136.158 15.676 136.748 15.6386C139.391 15.6386 141.532 17.7852 141.532 20.4326C141.532 20.4326 141.519 20.7115 141.511 20.8531C141.504 20.9933 141.384 21.7401 141.05 22.9757C141.932 21.8373 141.984 20.8468 142.025 20.8419C143.324 20.6848 145.715 21.7415 146.545 23.4498C146.776 23.9239 146.868 24.4058 146.975 24.9179V24.9257L147 24.9285C146.984 25.0807 146.991 25.2336 147 25.3857C147 27.9134 144.813 29.9627 142.115 29.9627ZM121.942 33.5548C121.83 33.5527 121.717 33.5541 121.604 33.5428L117.152 33.5365C115.27 33.5365 113.745 32.0078 113.745 30.1226C113.784 28.589 114.687 27.3533 116.139 26.8609C116.262 26.8193 116.398 26.8024 116.521 26.7834C116.643 26.7637 117.353 26.5706 119.052 27.0722C117.994 26.4121 116.646 26.341 116.658 26.2952C117.404 23.4858 120.242 21.9387 123.087 22.5396C124.717 22.8834 125.934 24.0317 126.629 25.0243C126.647 25.0497 125.706 25.6619 125.339 26.3995C125.92 25.7697 126.605 25.4858 126.853 25.3871C127.1 25.2885 127.524 25.2047 127.869 25.1828C129.413 25.1828 130.666 26.4375 130.666 27.9852C130.666 27.9852 130.657 28.148 130.653 28.2304C130.649 28.3128 130.579 28.7489 130.383 29.471C130.899 28.8059 130.929 28.2269 130.953 28.224C131.713 28.1318 133.11 28.7496 133.596 29.7485C133.73 30.0254 133.784 30.3072 133.846 30.6066L133.861 30.6129C133.852 30.7017 133.856 30.7911 133.861 30.8799C133.861 32.3572 132.583 33.5548 131.006 33.5548L122.274 33.5435L122.229 33.5485L121.942 33.5548Z" fill="#A4DCF2"/>
</g>
<mask id="mask10_1_109" style="mask-type:luminance" maskUnits="userSpaceOnUse" x="139" y="30" width="10" height="4">
<path d="M139.439 30.1261H148.096V33.0285H139.439V30.1261Z" fill="white"/>
</mask>
<g mask="url(#mask10_1_109)">
<path d="M148.066 31.5872C148.066 31.6344 148.059 31.6809 148.046 31.7281C148.032 31.7753 148.011 31.8218 147.983 31.8683C147.956 31.9148 147.922 31.9599 147.881 32.0056C147.839 32.0507 147.792 32.0951 147.738 32.1388C147.684 32.1825 147.624 32.2247 147.558 32.2663C147.491 32.3079 147.418 32.3487 147.34 32.3875C147.262 32.4269 147.177 32.465 147.088 32.5016C146.998 32.5382 146.904 32.5727 146.804 32.6066C146.704 32.6397 146.6 32.6714 146.49 32.701C146.381 32.7312 146.268 32.7594 146.151 32.7855C146.033 32.8116 145.913 32.8362 145.788 32.8581C145.663 32.8806 145.536 32.901 145.405 32.9186C145.275 32.937 145.142 32.9525 145.007 32.9665C144.872 32.9799 144.735 32.9919 144.597 33.0011C144.459 33.0102 144.319 33.0173 144.178 33.0215C144.038 33.0264 143.897 33.0285 143.756 33.0285C143.615 33.0285 143.474 33.0264 143.334 33.0215C143.193 33.0173 143.054 33.0102 142.915 33.0011C142.776 32.9919 142.64 32.9799 142.505 32.9665C142.37 32.9525 142.237 32.937 142.106 32.9186C141.976 32.901 141.849 32.8806 141.724 32.8581C141.6 32.8362 141.479 32.8116 141.361 32.7855C141.244 32.7594 141.131 32.7312 141.021 32.701C140.912 32.6714 140.808 32.6397 140.708 32.6066C140.609 32.5727 140.514 32.5382 140.424 32.5016C140.335 32.465 140.251 32.4269 140.172 32.3875C140.094 32.3487 140.021 32.3079 139.955 32.2663C139.888 32.2247 139.828 32.1825 139.774 32.1388C139.72 32.0951 139.672 32.0507 139.632 32.0056C139.59 31.9599 139.556 31.9148 139.529 31.8683C139.501 31.8218 139.48 31.7753 139.467 31.7281C139.453 31.6809 139.446 31.6344 139.446 31.5872C139.446 31.54 139.453 31.4928 139.467 31.4456C139.48 31.3984 139.501 31.3519 139.529 31.3054C139.556 31.2596 139.59 31.2138 139.632 31.1687C139.672 31.1229 139.72 31.0786 139.774 31.0356C139.828 30.9919 139.888 30.9489 139.955 30.9074C140.021 30.8658 140.094 30.8249 140.172 30.7862C140.251 30.7467 140.335 30.7087 140.424 30.6721C140.514 30.6361 140.609 30.6009 140.708 30.5678C140.808 30.534 140.912 30.5023 141.021 30.4727C141.131 30.4424 141.244 30.4142 141.361 30.3882C141.479 30.3621 141.6 30.3382 141.724 30.3156C141.849 30.2931 141.976 30.2733 142.106 30.255C142.237 30.2367 142.37 30.2212 142.505 30.2071C142.64 30.1937 142.776 30.1825 142.915 30.1733C143.054 30.1641 143.193 30.1571 143.334 30.1522C143.474 30.1479 143.615 30.1451 143.756 30.1451C143.897 30.1451 144.038 30.1479 144.178 30.1522C144.319 30.1571 144.459 30.1641 144.597 30.1733C144.735 30.1825 144.872 30.1937 145.007 30.2071C145.142 30.2212 145.275 30.2367 145.405 30.255C145.536 30.2733 145.663 30.2931 145.788 30.3156C145.913 30.3382 146.033 30.3621 146.151 30.3882C146.268 30.4142 146.381 30.4424 146.49 30.4727C146.6 30.5023 146.704 30.534 146.804 30.5678C146.904 30.6009 146.998 30.6361 147.088 30.6721C147.177 30.7087 147.262 30.7467 147.34 30.7862C147.418 30.8249 147.491 30.8658 147.558 30.9074C147.624 30.9489 147.684 30.9919 147.738 31.0356C147.792 31.0786 147.839 31.1229 147.881 31.1687C147.922 31.2138 147.956 31.2596 147.983 31.3054C148.011 31.3519 148.032 31.3984 148.046 31.4456C148.059 31.4928 148.066 31.54 148.066 31.5872Z" fill="white"/>
</g>
<path fill-rule="evenodd" clip-rule="evenodd" d="M146.556 21.6266C145.01 20.0761 142.502 20.0761 140.957 21.6266C139.622 22.9651 139.415 25.0623 140.462 26.6368L143.756 31.59L147.05 26.6368C148.097 25.0623 147.89 22.9651 146.556 21.6266ZM143.756 26.4234C144.886 26.4234 145.802 25.5048 145.802 24.3713C145.802 23.2378 144.886 22.3191 143.756 22.3191C142.626 22.3191 141.71 23.2378 141.71 24.3713C141.71 25.5048 142.626 26.4234 143.756 26.4234Z" fill="white"/>
<mask id="mask11_1_109" style="mask-type:luminance" maskUnits="userSpaceOnUse" x="141" y="21" width="6" height="6">
<path d="M141.456 21.9303H146.027V26.5016H141.456V21.9303Z" fill="white"/>
</mask>
<g mask="url(#mask11_1_109)">
<path d="M146.027 24.2156C146.027 24.3656 146.013 24.5143 145.983 24.6615C145.954 24.8087 145.911 24.9518 145.853 25.0905C145.796 25.2293 145.725 25.3611 145.642 25.4857C145.559 25.6104 145.464 25.726 145.358 25.8323C145.252 25.938 145.136 26.0331 145.012 26.1162C144.887 26.1994 144.755 26.2698 144.616 26.3276C144.478 26.3847 144.335 26.4283 144.187 26.4579C144.04 26.4868 143.892 26.5016 143.741 26.5016C143.591 26.5016 143.443 26.4868 143.296 26.4579C143.148 26.4283 143.005 26.3847 142.867 26.3276C142.728 26.2698 142.597 26.1994 142.472 26.1162C142.347 26.0331 142.232 25.938 142.125 25.8323C142.019 25.726 141.925 25.6104 141.841 25.4857C141.758 25.3611 141.687 25.2293 141.63 25.0905C141.572 24.9518 141.529 24.8087 141.5 24.6615C141.47 24.5143 141.456 24.3656 141.456 24.2156C141.456 24.0655 141.47 23.9169 141.5 23.7696C141.529 23.6224 141.572 23.4801 141.63 23.3413C141.687 23.2025 141.758 23.0708 141.841 22.9461C141.925 22.8214 142.019 22.7059 142.125 22.5995C142.232 22.4931 142.347 22.3987 142.472 22.3156C142.597 22.2318 142.728 22.1613 142.867 22.1043C143.005 22.0465 143.148 22.0035 143.296 21.9739C143.443 21.9451 143.591 21.9303 143.741 21.9303C143.892 21.9303 144.04 21.9451 144.187 21.9739C144.335 22.0035 144.478 22.0465 144.616 22.1043C144.755 22.1613 144.887 22.2318 145.012 22.3156C145.136 22.3987 145.252 22.4931 145.358 22.5995C145.464 22.7059 145.559 22.8214 145.642 22.9461C145.725 23.0708 145.796 23.2025 145.853 23.3413C145.911 23.4801 145.954 23.6224 145.983 23.7696C146.013 23.9169 146.027 24.0655 146.027 24.2156Z" fill="#FFCA70"/>
</g>
<mask id="mask12_1_109" style="mask-type:luminance" maskUnits="userSpaceOnUse" x="51" y="3" width="44" height="43">
<path d="M51.7968 3.06657H94.1582V45.428H51.7968V3.06657Z" fill="white"/>
</mask>
<g mask="url(#mask12_1_109)">
<path d="M94.1582 24.2473C94.1582 24.5939 94.1497 24.9405 94.1328 25.2871C94.1159 25.633 94.0905 25.9789 94.0567 26.3234C94.0222 26.6685 93.9799 27.0123 93.9292 27.3554C93.8785 27.6985 93.8193 28.0395 93.7517 28.3797C93.684 28.7193 93.608 29.0574 93.5234 29.3942C93.4396 29.7302 93.3473 30.0641 93.2466 30.3959C93.1458 30.7277 93.0373 31.0567 92.9204 31.3829C92.8034 31.7098 92.6788 32.0324 92.5463 32.3529C92.4132 32.6735 92.273 32.9898 92.125 33.3033C91.9764 33.6168 91.8207 33.926 91.6573 34.2318C91.4938 34.5375 91.3234 34.839 91.1451 35.1363C90.9669 35.4336 90.7816 35.7267 90.5886 36.0148C90.3963 36.3029 90.1969 36.5861 89.9905 36.8651C89.7834 37.1434 89.5706 37.4167 89.3508 37.6844C89.131 37.9521 88.9042 38.2149 88.6717 38.4713C88.4385 38.7284 88.1997 38.9792 87.9546 39.2244C87.7094 39.4695 87.4586 39.7084 87.2015 39.9415C86.945 40.174 86.6823 40.4001 86.4146 40.6206C86.1469 40.8404 85.8735 41.0532 85.5953 41.2603C85.3163 41.4667 85.0331 41.6661 84.745 41.8584C84.4568 42.0514 84.1638 42.2367 83.8665 42.4149C83.5692 42.5932 83.2677 42.7637 82.962 42.9271C82.6562 43.0905 82.3469 43.2462 82.0335 43.3949C81.72 43.5428 81.4037 43.683 81.0831 43.8161C80.7626 43.9486 80.4399 44.0733 80.1131 44.1902C79.7869 44.3072 79.4579 44.4156 79.1261 44.5164C78.7943 44.6171 78.4604 44.7094 78.1243 44.7932C77.7876 44.8778 77.4502 44.9539 77.1099 45.0215C76.7696 45.0891 76.4287 45.1483 76.0856 45.199C75.7425 45.2497 75.3987 45.292 75.0535 45.3265C74.709 45.3603 74.3632 45.3857 74.0173 45.4026C73.6707 45.4195 73.3241 45.428 72.9775 45.428C72.6309 45.428 72.2843 45.4195 71.9384 45.4026C71.5925 45.3857 71.2466 45.3603 70.9014 45.3265C70.5569 45.292 70.2124 45.2497 69.87 45.199C69.5269 45.1483 69.1853 45.0891 68.8457 45.0215C68.5055 44.9539 68.1673 44.8778 67.8313 44.7932C67.4952 44.7094 67.1606 44.6171 66.8295 44.5164C66.4977 44.4156 66.1687 44.3072 65.8418 44.1902C65.5157 44.0733 65.1923 43.9486 64.8725 43.8161C64.5519 43.683 64.2349 43.5428 63.9214 43.3949C63.6087 43.2462 63.2987 43.0905 62.9929 42.9271C62.6872 42.7637 62.3857 42.5932 62.0884 42.4149C61.7911 42.2367 61.4988 42.0514 61.2099 41.8584C60.9218 41.6661 60.6386 41.4667 60.3603 41.2603C60.0821 41.0532 59.8087 40.8404 59.541 40.6206C59.2726 40.4001 59.0106 40.174 58.7534 39.9415C58.497 39.7084 58.2455 39.4695 58.0003 39.2244C57.7552 38.9792 57.5164 38.7284 57.2839 38.4713C57.0507 38.2149 56.8246 37.9521 56.6048 37.6844C56.385 37.4167 56.1715 37.1434 55.9651 36.8651C55.7587 36.5861 55.5593 36.3029 55.3663 36.0148C55.174 35.7267 54.9887 35.4336 54.8105 35.1363C54.6323 34.839 54.4611 34.5375 54.2976 34.2318C54.1342 33.926 53.9785 33.6168 53.8306 33.3033C53.6826 32.9898 53.5417 32.6735 53.4093 32.3529C53.2769 32.0324 53.1522 31.7091 53.0352 31.3829C52.9183 31.0567 52.8098 30.7277 52.709 30.3959C52.6083 30.0641 52.516 29.7302 52.4315 29.3942C52.3477 29.0574 52.2716 28.7193 52.2039 28.3797C52.1363 28.0395 52.0771 27.6985 52.0264 27.3554C51.975 27.0123 51.9327 26.6685 51.8989 26.3234C51.8651 25.9789 51.8397 25.633 51.8221 25.2871C51.8052 24.9405 51.7968 24.5939 51.7968 24.2473C51.7968 23.9007 51.8052 23.5541 51.8221 23.2082C51.8397 22.8623 51.8651 22.5164 51.8989 22.1712C51.9327 21.8267 51.975 21.4822 52.0264 21.1398C52.0771 20.7968 52.1363 20.4551 52.2039 20.1155C52.2716 19.7753 52.3477 19.4371 52.4315 19.1011C52.516 18.7644 52.6083 18.4304 52.709 18.0993C52.8098 17.7675 52.9183 17.4385 53.0352 17.1117C53.1522 16.7855 53.2769 16.4621 53.4093 16.1416C53.5417 15.8218 53.6826 15.5048 53.8306 15.1913C53.9785 14.8785 54.1342 14.5685 54.2976 14.2628C54.4611 13.957 54.6323 13.6555 54.8105 13.3582C54.9887 13.0609 55.174 12.7686 55.3663 12.4797C55.5593 12.1916 55.7587 11.9084 55.9651 11.6302C56.1715 11.3519 56.385 11.0786 56.6048 10.8109C56.8246 10.5424 57.0507 10.2804 57.2839 10.0232C57.5164 9.76682 57.7552 9.51532 58.0003 9.27017C58.2455 9.02501 58.497 8.78619 58.7534 8.55372C59.0106 8.32054 59.2726 8.0944 59.541 7.87461C59.8087 7.65481 60.0821 7.44135 60.3603 7.23494C60.6386 7.02853 60.9218 6.82917 61.2099 6.63614C61.4988 6.44382 61.7911 6.25854 62.0884 6.08031C62.3857 5.90208 62.6872 5.73089 62.9929 5.56745C63.2987 5.40402 63.6087 5.24833 63.9214 5.10039C64.2349 4.95175 64.5519 4.81155 64.8725 4.67911C65.1923 4.54667 65.5157 4.42128 65.8418 4.30504C66.1687 4.1881 66.4977 4.07961 66.8295 3.97887C67.1606 3.87813 67.4952 3.78584 67.8313 3.7013C68.1673 3.61747 68.5055 3.54139 68.8457 3.47376C69.1853 3.40613 69.5269 3.34695 69.87 3.29623C70.2124 3.24481 70.5569 3.20254 70.9014 3.16872C71.2466 3.13491 71.5925 3.10955 71.9384 3.09194C72.2843 3.07503 72.6309 3.06657 72.9775 3.06657C73.3241 3.06657 73.6707 3.07503 74.0173 3.09194C74.3632 3.10955 74.709 3.13491 75.0535 3.16872C75.3987 3.20254 75.7425 3.24481 76.0856 3.29623C76.4287 3.34695 76.7696 3.40613 77.1099 3.47376C77.4502 3.54139 77.7876 3.61747 78.1243 3.7013C78.4604 3.78584 78.7943 3.87813 79.1261 3.97887C79.4579 4.07961 79.7869 4.1881 80.1131 4.30504C80.4399 4.42128 80.7626 4.54667 81.0831 4.67911C81.4037 4.81155 81.72 4.95175 82.0335 5.10039C82.3469 5.24833 82.6562 5.40402 82.962 5.56745C83.2677 5.73089 83.5692 5.90208 83.8665 6.08031C84.1638 6.25854 84.4568 6.44382 84.745 6.63614C85.0331 6.82917 85.3163 7.02853 85.5953 7.23494C85.8735 7.44135 86.1469 7.65481 86.4146 7.87461C86.6823 8.0944 86.945 8.32054 87.2015 8.55372C87.4586 8.78619 87.7094 9.02501 87.9546 9.27017C88.1997 9.51532 88.4385 9.76682 88.6717 10.0232C88.9042 10.2804 89.131 10.5424 89.3508 10.8109C89.5706 11.0786 89.7834 11.3519 89.9905 11.6302C90.1969 11.9084 90.3963 12.1916 90.5886 12.4797C90.7816 12.7686 90.9669 13.0609 91.1451 13.3582C91.3234 13.6555 91.4938 13.957 91.6573 14.2628C91.8207 14.5685 91.9764 14.8785 92.125 15.1913C92.273 15.5048 92.4132 15.8218 92.5463 16.1416C92.6788 16.4621 92.8034 16.7855 92.9204 17.1117C93.0373 17.4385 93.1458 17.7675 93.2466 18.0993C93.3473 18.4304 93.4396 18.7644 93.5234 19.1011C93.608 19.4371 93.684 19.7753 93.7517 20.1155C93.8193 20.4551 93.8785 20.7968 93.9292 21.1398C93.9799 21.4822 94.0222 21.8267 94.0567 22.1712C94.0905 22.5164 94.1159 22.8623 94.1328 23.2082C94.1497 23.5541 94.1582 23.9007 94.1582 24.2473Z" fill="white"/>
</g>
<path fill-rule="evenodd" clip-rule="evenodd" d="M58.0151 29.099H67.7925V39.4984H78.2053V29.7337L77.5276 29.056C71.596 23.1321 73.0824 24.6171 67.7925 19.3343L64.1821 22.9398V21.4153H60.9901V26.1275L58.0165 29.0983L58.0151 29.099ZM74.6668 32.6629H71.0394V36.2853H74.6668V32.6629Z" fill="#A8DE7D"/>
<path fill-rule="evenodd" clip-rule="evenodd" d="M67.1416 18.6995H57.3797V28.4495L59.9264 25.9063V20.2684H64.7985V21.0398L67.1423 18.6988L67.1416 18.6995ZM78.2053 8.30011H67.7925V18.05C72.6999 22.951 73.546 23.7957 78.8563 29.099H88.6182V18.6995H78.2053V8.30011Z" fill="#FFB82F"/>
<mask id="mask13_1_109" style="mask-type:luminance" maskUnits="userSpaceOnUse" x="49" y="0" width="48" height="58">
<path d="M49 0H97V57.9042H49V0Z" fill="white"/>
</mask>
<g mask="url(#mask13_1_109)">
<path fill-rule="evenodd" clip-rule="evenodd" d="M72.9999 57.9042L89.9897 40.9363C99.3353 31.6027 99.3353 16.3326 89.9904 6.99969C80.6449 -2.33388 65.355 -2.33388 56.0094 6.99969C46.6646 16.3326 46.6646 31.6027 56.0108 40.9363L72.9999 57.9042ZM72.9999 4.14587C62.039 4.14587 53.1535 13.0201 53.1535 23.9676C53.1535 34.9144 62.039 43.788 72.9999 43.788C83.9608 43.788 92.8464 34.9144 92.8464 23.9676C92.8464 13.0201 83.9608 4.14587 72.9999 4.14587Z" fill="#A8DE7D"/>
</g>
<mask id="mask14_1_109" style="mask-type:luminance" maskUnits="userSpaceOnUse" x="55" y="6" width="36" height="35">
<path d="M55.5728 6.15991H90.3153V40.9024H55.5728V6.15991Z" fill="white"/>
</mask>
<g mask="url(#mask14_1_109)">
<path d="M90.3153 23.5308C90.3153 23.8154 90.3082 24.0993 90.2948 24.3832C90.2807 24.6671 90.2596 24.951 90.2321 25.2335C90.204 25.5167 90.1694 25.7985 90.1272 26.0796C90.0856 26.3614 90.037 26.6411 89.9821 26.92C89.9264 27.199 89.8637 27.4759 89.7947 27.752C89.7256 28.0275 89.6502 28.3015 89.5678 28.5734C89.4847 28.8454 89.3959 29.1152 89.3001 29.3829C89.2043 29.6506 89.1022 29.9162 88.993 30.1789C88.8845 30.441 88.7689 30.7009 88.6478 30.9581C88.5259 31.2152 88.3984 31.4688 88.2645 31.7196C88.13 31.9704 87.9905 32.2177 87.844 32.4614C87.6982 32.7052 87.546 32.9454 87.3882 33.1821C87.2297 33.4181 87.0662 33.6506 86.8972 33.8788C86.7274 34.1071 86.5527 34.3311 86.3723 34.5509C86.192 34.7707 86.0067 34.9863 85.8158 35.1969C85.6249 35.4075 85.4283 35.6132 85.2276 35.814C85.0268 36.0155 84.8211 36.2113 84.6104 36.4023C84.3991 36.5932 84.1842 36.7784 83.9644 36.9588C83.7446 37.1391 83.5206 37.3145 83.2924 37.4836C83.0641 37.6527 82.8316 37.8168 82.5949 37.9746C82.3589 38.1324 82.1187 38.2846 81.875 38.4304C81.6312 38.577 81.384 38.7172 81.1332 38.851C80.8824 38.9849 80.6288 39.1131 80.3716 39.2342C80.1145 39.3561 79.8545 39.4709 79.5918 39.5801C79.329 39.6886 79.0641 39.7908 78.7964 39.8866C78.5287 39.9824 78.2589 40.0719 77.987 40.1543C77.7151 40.2367 77.441 40.3128 77.1649 40.3818C76.8894 40.4509 76.6119 40.5129 76.3329 40.5685C76.0546 40.6242 75.7742 40.6728 75.4931 40.7143C75.2121 40.7559 74.9296 40.7904 74.6471 40.8186C74.3639 40.8461 74.0807 40.8672 73.7968 40.8813C73.5129 40.8954 73.2283 40.9024 72.9444 40.9024C72.6598 40.9024 72.3759 40.8954 72.092 40.8813C71.808 40.8672 71.5248 40.8461 71.2417 40.8186C70.9585 40.7904 70.6767 40.7559 70.3956 40.7143C70.1145 40.6728 69.8341 40.6242 69.5551 40.5685C69.2762 40.5129 68.9993 40.4509 68.7232 40.3818C68.4477 40.3128 68.1737 40.2367 67.9017 40.1543C67.6298 40.0719 67.36 39.9824 67.0923 39.8866C66.8246 39.7908 66.559 39.6886 66.2962 39.5801C66.0342 39.4709 65.7742 39.3561 65.5171 39.2342C65.26 39.1131 65.0064 38.9849 64.7556 38.851C64.5048 38.7172 64.2575 38.577 64.0138 38.4304C63.77 38.2846 63.5298 38.1324 63.2931 37.9746C63.0571 37.8168 62.8246 37.6527 62.5964 37.4836C62.3681 37.3145 62.1441 37.1391 61.9243 36.9588C61.7045 36.7784 61.4889 36.5932 61.2783 36.4023C61.0676 36.2113 60.8619 36.0155 60.6612 35.814C60.4597 35.6132 60.2638 35.4075 60.0729 35.1969C59.882 34.9863 59.6967 34.7707 59.5164 34.5509C59.3361 34.3311 59.1606 34.1071 58.9916 33.8788C58.8225 33.6506 58.6583 33.4181 58.5005 33.1821C58.3427 32.9454 58.1906 32.7052 58.0448 32.4614C57.8982 32.2177 57.758 31.9704 57.6242 31.7196C57.4903 31.4688 57.3621 31.2152 57.2409 30.9581C57.1191 30.7009 57.0042 30.441 56.8951 30.1789C56.7866 29.9162 56.6844 29.6506 56.5886 29.3829C56.4928 29.1152 56.4033 28.8454 56.3209 28.5734C56.2385 28.3015 56.1624 28.0275 56.0934 27.752C56.0243 27.4759 55.9623 27.199 55.9067 26.92C55.851 26.6411 55.8024 26.3614 55.7608 26.0796C55.7193 25.7985 55.6848 25.5167 55.6566 25.2335C55.6291 24.951 55.608 24.6671 55.5939 24.3832C55.5798 24.0993 55.5728 23.8154 55.5728 23.5308C55.5728 23.2469 55.5798 22.9623 55.5939 22.6784C55.608 22.3945 55.6291 22.1113 55.6566 21.8281C55.6848 21.5456 55.7193 21.2631 55.7608 20.982C55.8024 20.7009 55.851 20.4206 55.9067 20.1423C55.9623 19.8633 56.0243 19.5858 56.0934 19.3103C56.1624 19.0342 56.2385 18.7601 56.3209 18.4882C56.4033 18.2163 56.4928 17.9465 56.5886 17.6788C56.6844 17.4111 56.7866 17.1462 56.8951 16.8834C57.0042 16.6206 57.1191 16.3607 57.2409 16.1036C57.3621 15.8464 57.4903 15.5928 57.6242 15.342C57.758 15.0912 57.8982 14.844 58.0448 14.6002C58.1906 14.3565 58.3427 14.1162 58.5005 13.8802C58.6583 13.6435 58.8225 13.4111 58.9916 13.1828C59.1606 12.9546 59.3361 12.7305 59.5164 12.5107C59.6967 12.2909 59.882 12.0761 60.0729 11.8654C60.2638 11.6548 60.4597 11.4484 60.6612 11.2476C60.8619 11.0468 61.0676 10.8503 61.2783 10.6594C61.4889 10.4685 61.7045 10.2832 61.9243 10.1028C62.1441 9.9225 62.3681 9.7478 62.5964 9.57802C62.8246 9.40894 63.0571 9.24551 63.2931 9.087C63.5298 8.9292 63.77 8.77703 64.0138 8.6312C64.2575 8.48467 64.5048 8.34519 64.7556 8.21063C65.0064 8.07678 65.26 7.94927 65.5171 7.8274C65.7742 7.70623 66.0342 7.5907 66.2962 7.48221C66.559 7.37302 66.8246 7.27087 67.0923 7.17506C67.36 7.07925 67.6298 6.99049 67.9017 6.90736C68.1737 6.82494 68.4477 6.74956 68.7232 6.68052C68.9993 6.61148 69.2762 6.54878 69.5551 6.49313C69.8341 6.43818 70.1145 6.38957 70.3956 6.34801C70.6767 6.30574 70.9585 6.27122 71.2417 6.24304C71.5248 6.21557 71.808 6.19443 72.092 6.18034C72.3759 6.16696 72.6598 6.15991 72.9444 6.15991C73.2283 6.15991 73.5129 6.16696 73.7968 6.18034C74.0807 6.19443 74.3639 6.21557 74.6471 6.24304C74.9296 6.27122 75.2121 6.30574 75.4931 6.34801C75.7742 6.38957 76.0546 6.43818 76.3329 6.49313C76.6119 6.54878 76.8894 6.61148 77.1649 6.68052C77.441 6.74956 77.7151 6.82494 77.987 6.90736C78.2589 6.99049 78.5287 7.07925 78.7964 7.17506C79.0641 7.27087 79.329 7.37302 79.5918 7.48221C79.8545 7.5907 80.1145 7.70623 80.3716 7.8274C80.6288 7.94927 80.8824 8.07678 81.1332 8.21063C81.384 8.34519 81.6312 8.48467 81.875 8.6312C82.1187 8.77703 82.3589 8.9292 82.5949 9.087C82.8316 9.24551 83.0641 9.40894 83.2924 9.57802C83.5206 9.7478 83.7446 9.9225 83.9644 10.1028C84.1842 10.2832 84.3991 10.4685 84.6104 10.6594C84.8211 10.8503 85.0268 11.0468 85.2276 11.2476C85.4283 11.4484 85.6249 11.6548 85.8158 11.8654C86.0067 12.0761 86.192 12.2909 86.3723 12.5107C86.5527 12.7305 86.7274 12.9546 86.8972 13.1828C87.0662 13.4111 87.2297 13.6435 87.3882 13.8802C87.546 14.1162 87.6982 14.3565 87.844 14.6002C87.9905 14.844 88.13 15.0912 88.2645 15.342C88.3984 15.5928 88.5259 15.8464 88.6478 16.1036C88.7689 16.3607 88.8845 16.6206 88.993 16.8834C89.1022 17.1462 89.2043 17.4111 89.3001 17.6788C89.3959 17.9465 89.4847 18.2163 89.5678 18.4882C89.6502 18.7601 89.7256 19.0342 89.7947 19.3103C89.8637 19.5858 89.9264 19.8633 89.9821 20.1423C90.037 20.4206 90.0856 20.7009 90.1272 20.982C90.1694 21.2631 90.204 21.5456 90.2321 21.8281C90.2596 22.1113 90.2807 22.3945 90.2948 22.6784C90.3082 22.9623 90.3153 23.2469 90.3153 23.5308Z" fill="white"/>
</g>
<mask id="mask15_1_109" style="mask-type:luminance" maskUnits="userSpaceOnUse" x="55" y="10" width="36" height="24">
<path d="M55.5728 10.8292H90.0109V33.5562H55.5728V10.8292Z" fill="white"/>
</mask>
<g mask="url(#mask15_1_109)">
<path d="M85.1148 29.9627L77.6587 29.9528C77.2205 28.3699 76.0307 27.6999 74.5506 27.2984C74.1645 25.5217 72.7365 24.2564 70.8929 24.229C70.8591 24.2283 70.8246 24.229 70.7908 24.2318C70.4977 24.2586 70.6696 24.2395 70.2758 24.2952C69.336 23.0152 67.9905 22.0402 66.4498 21.6436C63.174 20.8003 59.6749 22.6967 58.757 25.9859C58.111 26.224 57.5495 26.5939 57.0578 27.0807C56.9253 27.2117 56.8408 27.3836 56.7323 27.5351C55.9391 26.5404 55.6467 25.3357 55.5833 24.0895C55.6516 21.466 57.1951 19.3526 59.6791 18.5108C59.8898 18.4389 60.1229 18.41 60.3329 18.3769C60.5428 18.3438 61.7573 18.0134 64.6633 18.8707C62.8535 17.7422 60.547 17.6203 60.5682 17.5421C61.844 12.7355 66.6985 10.0888 71.5671 11.1159C74.3554 11.7041 76.4378 13.6689 77.627 15.3674C77.6566 15.4104 76.0476 16.4579 75.4206 17.7203C76.4153 16.6425 77.5861 16.1564 78.0095 15.988C78.4329 15.8197 79.1578 15.676 79.7482 15.6386C82.3906 15.6386 84.5322 17.7852 84.5322 20.4326C84.5322 20.4326 84.5189 20.7115 84.5111 20.8531C84.5041 20.9933 84.3843 21.7401 84.0497 22.9757C84.9324 21.8373 84.9838 20.8468 85.0247 20.8419C86.3237 20.6848 88.7154 21.7415 89.5453 23.4498C89.7756 23.9239 89.8679 24.4058 89.975 24.9179V24.9257L90.0004 24.9285C89.9842 25.0807 89.9912 25.2336 90.0004 25.3857C90.0004 27.9134 87.813 29.9627 85.1148 29.9627ZM64.9422 33.5548C64.8295 33.5527 64.7168 33.5541 64.6041 33.5428L60.1518 33.5365C58.2702 33.5365 56.745 32.0078 56.745 30.1226C56.7844 28.589 57.6869 27.3533 59.1388 26.8609C59.2621 26.8193 59.398 26.8024 59.5206 26.7834C59.6432 26.7637 60.3533 26.5706 62.0518 27.0722C60.9937 26.4121 59.646 26.341 59.658 26.2952C60.404 23.4858 63.2416 21.9387 66.087 22.5396C67.7172 22.8834 68.9338 24.0317 69.6291 25.0243C69.6467 25.0497 68.7062 25.6619 68.3392 26.3995C68.9204 25.7697 69.6052 25.4858 69.8531 25.3871C70.1004 25.2885 70.5238 25.2047 70.869 25.1828C72.4132 25.1828 73.6657 26.4375 73.6657 27.9852C73.6657 27.9852 73.6573 28.148 73.6531 28.2304C73.6488 28.3128 73.5791 28.7489 73.3832 29.471C73.8989 28.8059 73.9292 28.2269 73.9532 28.224C74.7126 28.1318 76.1103 28.7496 76.5956 29.7485C76.7302 30.0254 76.7837 30.3072 76.8464 30.6066L76.8612 30.6129C76.8521 30.7017 76.8563 30.7911 76.8612 30.8799C76.8612 32.3572 75.5833 33.5548 74.006 33.5548L65.274 33.5435L65.229 33.5485L64.9422 33.5548Z" fill="#A8DE7D"/>
</g>
<mask id="mask16_1_109" style="mask-type:luminance" maskUnits="userSpaceOnUse" x="82" y="30" width="10" height="4">
<path d="M82.4392 30.1261H91.0958V33.0285H82.4392V30.1261Z" fill="white"/>
</mask>
<g mask="url(#mask16_1_109)">
<path d="M91.0662 31.5872C91.0662 31.6344 91.0592 31.6809 91.0458 31.7281C91.0317 31.7753 91.0112 31.8218 90.9831 31.8683C90.9556 31.9148 90.9218 31.9599 90.8809 32.0056C90.8394 32.0507 90.7922 32.0951 90.7379 32.1388C90.6844 32.1825 90.6238 32.2247 90.5576 32.2663C90.4906 32.3079 90.4181 32.3487 90.3399 32.3875C90.2617 32.4269 90.1772 32.465 90.0877 32.5016C89.9982 32.5382 89.9038 32.5727 89.8038 32.6066C89.7037 32.6397 89.5995 32.6714 89.4903 32.701C89.3811 32.7312 89.2677 32.7594 89.1507 32.7855C89.0331 32.8116 88.9126 32.8362 88.7879 32.8581C88.6632 32.8806 88.5357 32.901 88.4054 32.9186C88.2751 32.937 88.1419 32.9525 88.0074 32.9665C87.8721 32.9799 87.7354 32.9919 87.5967 33.0011C87.4586 33.0102 87.3191 33.0173 87.1782 33.0215C87.038 33.0264 86.8971 33.0285 86.7562 33.0285C86.6146 33.0285 86.4737 33.0264 86.3335 33.0215C86.1927 33.0173 86.0539 33.0102 85.9151 33.0011C85.7763 32.9919 85.6396 32.9799 85.5051 32.9665C85.3698 32.9525 85.2367 32.937 85.1064 32.9186C84.976 32.901 84.8485 32.8806 84.7238 32.8581C84.5998 32.8362 84.4787 32.8116 84.361 32.7855C84.2441 32.7594 84.1307 32.7312 84.0215 32.701C83.9123 32.6714 83.808 32.6397 83.708 32.6066C83.6086 32.5727 83.5135 32.5382 83.4241 32.5016C83.3346 32.465 83.2508 32.4269 83.1719 32.3875C83.0937 32.3487 83.0211 32.3079 82.9549 32.2663C82.888 32.2247 82.8281 32.1825 82.7738 32.1388C82.7196 32.0951 82.6724 32.0507 82.6315 32.0056C82.59 31.9599 82.5562 31.9148 82.5287 31.8683C82.5012 31.8218 82.4801 31.7753 82.4667 31.7281C82.4526 31.6809 82.4456 31.6344 82.4456 31.5872C82.4456 31.54 82.4526 31.4928 82.4667 31.4456C82.4801 31.3984 82.5012 31.3519 82.5287 31.3054C82.5562 31.2596 82.59 31.2138 82.6315 31.1687C82.6724 31.1229 82.7196 31.0786 82.7738 31.0356C82.8281 30.9919 82.888 30.9489 82.9549 30.9074C83.0211 30.8658 83.0937 30.8249 83.1719 30.7862C83.2508 30.7467 83.3346 30.7087 83.4241 30.6721C83.5135 30.6361 83.6086 30.6009 83.708 30.5678C83.808 30.534 83.9123 30.5023 84.0215 30.4727C84.1307 30.4424 84.2441 30.4142 84.361 30.3882C84.4787 30.3621 84.5998 30.3382 84.7238 30.3156C84.8485 30.2931 84.976 30.2733 85.1064 30.255C85.2367 30.2367 85.3698 30.2212 85.5051 30.2071C85.6396 30.1937 85.7763 30.1825 85.9151 30.1733C86.0539 30.1641 86.1927 30.1571 86.3335 30.1522C86.4737 30.1479 86.6146 30.1451 86.7562 30.1451C86.8971 30.1451 87.038 30.1479 87.1782 30.1522C87.3191 30.1571 87.4586 30.1641 87.5967 30.1733C87.7354 30.1825 87.8721 30.1937 88.0074 30.2071C88.1419 30.2212 88.2751 30.2367 88.4054 30.255C88.5357 30.2733 88.6632 30.2931 88.7879 30.3156C88.9126 30.3382 89.0331 30.3621 89.1507 30.3882C89.2677 30.4142 89.3811 30.4424 89.4903 30.4727C89.5995 30.5023 89.7037 30.534 89.8038 30.5678C89.9038 30.6009 89.9982 30.6361 90.0877 30.6721C90.1772 30.7087 90.2617 30.7467 90.3399 30.7862C90.4181 30.8249 90.4906 30.8658 90.5576 30.9074C90.6238 30.9489 90.6844 30.9919 90.7379 31.0356C90.7922 31.0786 90.8394 31.1229 90.8809 31.1687C90.9218 31.2138 90.9556 31.2596 90.9831 31.3054C91.0112 31.3519 91.0317 31.3984 91.0458 31.4456C91.0592 31.4928 91.0662 31.54 91.0662 31.5872Z" fill="white"/>
</g>
<path fill-rule="evenodd" clip-rule="evenodd" d="M89.5558 21.6266C88.0095 20.0761 85.5023 20.0761 83.9566 21.6266C82.6217 22.9651 82.4153 25.0623 83.4621 26.6368L86.7562 31.59L90.0496 26.6368C91.0972 25.0623 90.8901 22.9651 89.5558 21.6266ZM86.7562 26.4234C87.8862 26.4234 88.802 25.5048 88.802 24.3713C88.802 23.2378 87.8862 22.3191 86.7562 22.3191C85.6263 22.3191 84.7097 23.2378 84.7097 24.3713C84.7097 25.5048 85.6263 26.4234 86.7562 26.4234Z" fill="white"/>
<mask id="mask17_1_109" style="mask-type:luminance" maskUnits="userSpaceOnUse" x="84" y="21" width="6" height="6">
<path d="M84.4561 21.9303H89.0275V26.5016H84.4561V21.9303Z" fill="white"/>
</mask>
<g mask="url(#mask17_1_109)">
<path d="M89.0275 24.2156C89.0275 24.3656 89.0127 24.5143 88.9831 24.6615C88.9542 24.8087 88.9105 24.9518 88.8535 25.0905C88.7957 25.2293 88.7253 25.3611 88.6421 25.4857C88.559 25.6104 88.4639 25.726 88.3575 25.8323C88.2518 25.938 88.1363 26.0331 88.0116 26.1162C87.8869 26.1994 87.7552 26.2698 87.6164 26.3276C87.4776 26.3847 87.3346 26.4283 87.1874 26.4579C87.0402 26.4868 86.8915 26.5016 86.7415 26.5016C86.5914 26.5016 86.4428 26.4868 86.2955 26.4579C86.1483 26.4283 86.0053 26.3847 85.8672 26.3276C85.7284 26.2698 85.5967 26.1994 85.472 26.1162C85.3466 26.0331 85.2318 25.938 85.1254 25.8323C85.019 25.726 84.9246 25.6104 84.8408 25.4857C84.7577 25.3611 84.6872 25.2293 84.6302 25.0905C84.5724 24.9518 84.5294 24.8087 84.4998 24.6615C84.4702 24.5143 84.4561 24.3656 84.4561 24.2156C84.4561 24.0655 84.4702 23.9169 84.4998 23.7696C84.5294 23.6224 84.5724 23.4801 84.6302 23.3413C84.6872 23.2025 84.7577 23.0708 84.8408 22.9461C84.9246 22.8214 85.019 22.7059 85.1254 22.5995C85.2318 22.4931 85.3466 22.3987 85.472 22.3156C85.5967 22.2318 85.7284 22.1613 85.8672 22.1043C86.0053 22.0465 86.1483 22.0035 86.2955 21.9739C86.4428 21.9451 86.5914 21.9303 86.7415 21.9303C86.8915 21.9303 87.0402 21.9451 87.1874 21.9739C87.3346 22.0035 87.4776 22.0465 87.6164 22.1043C87.7552 22.1613 87.8869 22.2318 88.0116 22.3156C88.1363 22.3987 88.2518 22.4931 88.3575 22.5995C88.4639 22.7059 88.559 22.8214 88.6421 22.9461C88.7253 23.0708 88.7957 23.2025 88.8535 23.3413C88.9105 23.4801 88.9542 23.6224 88.9831 23.7696C89.0127 23.9169 89.0275 24.0655 89.0275 24.2156Z" fill="#FFCA70"/>
</g>
</svg>
