<svg xmlns="http://www.w3.org/2000/svg" xmlns:xlink="http://www.w3.org/1999/xlink" width="500" zoomAndPan="magnify" viewBox="0 0 375 74.999997" height="100" preserveAspectRatio="xMidYMid meet" version="1.0"><defs><g/><clipPath id="012ed5e74b"><path d="M 12.140625 11.183594 L 52.640625 11.183594 L 52.640625 51.683594 L 12.140625 51.683594 Z M 12.140625 11.183594 " clip-rule="nonzero"/></clipPath><clipPath id="d14ad590dc"><path d="M 9.464844 8.25 L 55.214844 8.25 L 55.214844 63.75 L 9.464844 63.75 Z M 9.464844 8.25 " clip-rule="nonzero"/></clipPath><clipPath id="0ae3309007"><path d="M 15.753906 14.144531 L 48.753906 14.144531 L 48.753906 47.144531 L 15.753906 47.144531 Z M 15.753906 14.144531 " clip-rule="nonzero"/></clipPath><clipPath id="b34bb6d6be"><path d="M 15.753906 18 L 48.753906 18 L 48.753906 40.40625 L 15.753906 40.40625 Z M 15.753906 18 " clip-rule="nonzero"/></clipPath><clipPath id="b2dd1d783f"><path d="M 41.445312 37 L 49.695312 37 L 49.695312 40.214844 L 41.445312 40.214844 Z M 41.445312 37 " clip-rule="nonzero"/></clipPath><clipPath id="597fb32cb9"><path d="M 41.445312 27.464844 L 49.695312 27.464844 L 49.695312 39 L 41.445312 39 Z M 41.445312 27.464844 " clip-rule="nonzero"/></clipPath><clipPath id="748d381a25"><path d="M 43.398438 29.238281 L 47.898438 29.238281 L 47.898438 33.738281 L 43.398438 33.738281 Z M 43.398438 29.238281 " clip-rule="nonzero"/></clipPath></defs><g clip-path="url(#012ed5e74b)"><path fill="#ffffff" d="M 52.640625 31.433594 C 52.640625 32.097656 52.609375 32.761719 52.542969 33.421875 C 52.480469 34.082031 52.382812 34.734375 52.253906 35.386719 C 52.125 36.035156 51.960938 36.679688 51.769531 37.3125 C 51.578125 37.949219 51.355469 38.570312 51.101562 39.183594 C 50.847656 39.796875 50.5625 40.394531 50.25 40.980469 C 49.9375 41.566406 49.597656 42.132812 49.230469 42.683594 C 48.859375 43.238281 48.464844 43.769531 48.046875 44.28125 C 47.625 44.792969 47.179688 45.285156 46.710938 45.753906 C 46.242188 46.222656 45.75 46.667969 45.238281 47.089844 C 44.726562 47.507812 44.195312 47.902344 43.640625 48.273438 C 43.089844 48.640625 42.523438 48.980469 41.9375 49.292969 C 41.351562 49.605469 40.753906 49.890625 40.140625 50.144531 C 39.527344 50.398438 38.90625 50.621094 38.269531 50.8125 C 37.636719 51.003906 36.992188 51.167969 36.34375 51.296875 C 35.691406 51.425781 35.035156 51.523438 34.375 51.585938 C 33.714844 51.652344 33.054688 51.683594 32.390625 51.683594 C 31.726562 51.683594 31.066406 51.652344 30.40625 51.585938 C 29.746094 51.523438 29.089844 51.425781 28.441406 51.296875 C 27.789062 51.167969 27.148438 51.003906 26.511719 50.8125 C 25.878906 50.621094 25.253906 50.398438 24.640625 50.144531 C 24.03125 49.890625 23.429688 49.605469 22.847656 49.292969 C 22.261719 48.980469 21.691406 48.640625 21.140625 48.273438 C 20.589844 47.902344 20.058594 47.507812 19.546875 47.089844 C 19.03125 46.667969 18.542969 46.222656 18.074219 45.753906 C 17.605469 45.285156 17.160156 44.792969 16.738281 44.28125 C 16.316406 43.769531 15.921875 43.238281 15.554688 42.683594 C 15.1875 42.132812 14.84375 41.566406 14.53125 40.980469 C 14.21875 40.394531 13.9375 39.796875 13.683594 39.183594 C 13.429688 38.570312 13.207031 37.949219 13.011719 37.3125 C 12.820312 36.679688 12.660156 36.035156 12.53125 35.386719 C 12.402344 34.734375 12.304688 34.082031 12.238281 33.421875 C 12.175781 32.761719 12.140625 32.097656 12.140625 31.433594 C 12.140625 30.773438 12.175781 30.109375 12.238281 29.449219 C 12.304688 28.789062 12.402344 28.136719 12.53125 27.484375 C 12.660156 26.835938 12.820312 26.191406 13.011719 25.558594 C 13.207031 24.921875 13.429688 24.296875 13.683594 23.6875 C 13.9375 23.074219 14.21875 22.472656 14.53125 21.890625 C 14.84375 21.304688 15.1875 20.738281 15.554688 20.183594 C 15.921875 19.632812 16.316406 19.101562 16.738281 18.589844 C 17.160156 18.074219 17.605469 17.585938 18.074219 17.117188 C 18.542969 16.648438 19.03125 16.203125 19.546875 15.78125 C 20.058594 15.359375 20.589844 14.964844 21.140625 14.597656 C 21.691406 14.230469 22.261719 13.890625 22.847656 13.578125 C 23.429688 13.265625 24.03125 12.980469 24.640625 12.726562 C 25.253906 12.472656 25.878906 12.25 26.511719 12.058594 C 27.148438 11.863281 27.789062 11.703125 28.441406 11.574219 C 29.089844 11.445312 29.746094 11.347656 30.40625 11.28125 C 31.066406 11.21875 31.726562 11.183594 32.390625 11.183594 C 33.054688 11.183594 33.714844 11.21875 34.375 11.28125 C 35.035156 11.347656 35.691406 11.445312 36.34375 11.574219 C 36.992188 11.703125 37.636719 11.863281 38.269531 12.058594 C 38.90625 12.25 39.527344 12.472656 40.140625 12.726562 C 40.753906 12.980469 41.351562 13.265625 41.9375 13.578125 C 42.523438 13.890625 43.089844 14.230469 43.640625 14.597656 C 44.195312 14.964844 44.726562 15.359375 45.238281 15.78125 C 45.75 16.203125 46.242188 16.648438 46.710938 17.117188 C 47.179688 17.585938 47.625 18.074219 48.046875 18.589844 C 48.464844 19.101562 48.859375 19.632812 49.230469 20.183594 C 49.597656 20.738281 49.9375 21.304688 50.25 21.890625 C 50.5625 22.472656 50.847656 23.074219 51.101562 23.6875 C 51.355469 24.296875 51.578125 24.921875 51.769531 25.558594 C 51.960938 26.191406 52.125 26.835938 52.253906 27.484375 C 52.382812 28.136719 52.480469 28.789062 52.542969 29.449219 C 52.609375 30.109375 52.640625 30.773438 52.640625 31.433594 Z M 52.640625 31.433594 " fill-opacity="1" fill-rule="nonzero"/></g><path fill="#a4dcf2" d="M 18.058594 36.140625 L 27.375 36.140625 L 27.375 46.109375 L 37.300781 46.109375 L 37.300781 36.75 L 36.65625 36.101562 C 31.003906 30.421875 32.417969 31.84375 27.375 26.78125 L 23.933594 30.238281 L 23.933594 28.777344 L 20.894531 28.777344 L 20.894531 33.292969 Z M 33.929688 39.558594 L 30.472656 39.558594 L 30.472656 43.027344 L 33.929688 43.027344 Z M 33.929688 39.558594 " fill-opacity="1" fill-rule="evenodd"/><path fill="#ffb82f" d="M 26.757812 26.171875 L 17.453125 26.171875 L 17.453125 35.519531 L 19.878906 33.082031 L 19.878906 27.675781 L 24.523438 27.675781 L 24.523438 28.417969 Z M 37.300781 16.207031 L 27.375 16.207031 L 27.375 25.550781 C 32.054688 30.246094 32.859375 31.058594 37.921875 36.140625 L 47.226562 36.140625 L 47.226562 26.171875 L 37.300781 26.171875 Z M 37.300781 16.207031 " fill-opacity="1" fill-rule="evenodd"/><g clip-path="url(#d14ad590dc)"><path fill="#a4dcf2" d="M 32.339844 63.75 L 48.535156 47.488281 C 57.441406 38.539062 57.441406 23.902344 48.535156 14.960938 C 39.628906 6.011719 25.054688 6.011719 16.144531 14.960938 C 7.238281 23.902344 7.238281 38.539062 16.148438 47.488281 Z M 32.339844 12.222656 C 21.890625 12.222656 13.421875 20.730469 13.421875 31.222656 C 13.421875 41.714844 21.890625 50.21875 32.339844 50.21875 C 42.789062 50.21875 51.257812 41.714844 51.257812 31.222656 C 51.257812 20.730469 42.789062 12.222656 32.339844 12.222656 Z M 32.339844 12.222656 " fill-opacity="1" fill-rule="evenodd"/></g><g clip-path="url(#0ae3309007)"><path fill="#ffffff" d="M 48.753906 30.644531 C 48.753906 31.1875 48.730469 31.726562 48.675781 32.261719 C 48.625 32.800781 48.542969 33.335938 48.4375 33.863281 C 48.332031 34.394531 48.203125 34.917969 48.046875 35.433594 C 47.886719 35.953125 47.707031 36.460938 47.5 36.960938 C 47.292969 37.460938 47.0625 37.945312 46.808594 38.421875 C 46.550781 38.898438 46.273438 39.363281 45.976562 39.8125 C 45.675781 40.261719 45.351562 40.695312 45.011719 41.113281 C 44.667969 41.53125 44.304688 41.929688 43.921875 42.3125 C 43.539062 42.695312 43.140625 43.058594 42.722656 43.398438 C 42.304688 43.742188 41.871094 44.066406 41.421875 44.363281 C 40.972656 44.664062 40.511719 44.941406 40.035156 45.195312 C 39.558594 45.453125 39.070312 45.683594 38.570312 45.890625 C 38.070312 46.097656 37.5625 46.277344 37.046875 46.433594 C 36.527344 46.59375 36.003906 46.722656 35.472656 46.828125 C 34.945312 46.933594 34.410156 47.011719 33.871094 47.066406 C 33.335938 47.117188 32.796875 47.144531 32.253906 47.144531 C 31.714844 47.144531 31.175781 47.117188 30.636719 47.066406 C 30.101562 47.011719 29.566406 46.933594 29.035156 46.828125 C 28.507812 46.722656 27.984375 46.59375 27.464844 46.433594 C 26.949219 46.277344 26.441406 46.097656 25.941406 45.890625 C 25.441406 45.683594 24.953125 45.453125 24.476562 45.195312 C 24 44.941406 23.539062 44.664062 23.089844 44.363281 C 22.640625 44.066406 22.207031 43.742188 21.789062 43.398438 C 21.371094 43.058594 20.96875 42.695312 20.589844 42.3125 C 20.207031 41.929688 19.84375 41.53125 19.5 41.113281 C 19.15625 40.695312 18.835938 40.261719 18.535156 39.8125 C 18.234375 39.363281 17.957031 38.898438 17.703125 38.421875 C 17.449219 37.945312 17.21875 37.460938 17.011719 36.960938 C 16.804688 36.460938 16.621094 35.953125 16.464844 35.433594 C 16.308594 34.917969 16.179688 34.394531 16.074219 33.863281 C 15.96875 33.335938 15.886719 32.800781 15.835938 32.261719 C 15.78125 31.726562 15.753906 31.1875 15.753906 30.644531 C 15.753906 30.105469 15.78125 29.566406 15.835938 29.027344 C 15.886719 28.492188 15.96875 27.957031 16.074219 27.425781 C 16.179688 26.894531 16.308594 26.371094 16.464844 25.855469 C 16.621094 25.339844 16.804688 24.832031 17.011719 24.332031 C 17.21875 23.832031 17.449219 23.34375 17.703125 22.867188 C 17.957031 22.390625 18.234375 21.929688 18.535156 21.480469 C 18.835938 21.027344 19.15625 20.59375 19.5 20.179688 C 19.84375 19.761719 20.207031 19.359375 20.589844 18.976562 C 20.96875 18.597656 21.371094 18.234375 21.789062 17.890625 C 22.207031 17.546875 22.640625 17.226562 23.089844 16.925781 C 23.539062 16.625 24 16.347656 24.476562 16.09375 C 24.953125 15.839844 25.441406 15.609375 25.941406 15.402344 C 26.441406 15.195312 26.949219 15.011719 27.464844 14.855469 C 27.984375 14.699219 28.507812 14.566406 29.035156 14.460938 C 29.566406 14.355469 30.101562 14.277344 30.636719 14.226562 C 31.175781 14.171875 31.714844 14.144531 32.253906 14.144531 C 32.796875 14.144531 33.335938 14.171875 33.871094 14.226562 C 34.410156 14.277344 34.945312 14.355469 35.472656 14.460938 C 36.003906 14.566406 36.527344 14.699219 37.046875 14.855469 C 37.5625 15.011719 38.070312 15.195312 38.570312 15.402344 C 39.070312 15.609375 39.558594 15.839844 40.035156 16.09375 C 40.511719 16.347656 40.972656 16.625 41.421875 16.925781 C 41.871094 17.226562 42.304688 17.546875 42.722656 17.890625 C 43.140625 18.234375 43.539062 18.597656 43.921875 18.976562 C 44.304688 19.359375 44.667969 19.761719 45.011719 20.179688 C 45.351562 20.59375 45.675781 21.027344 45.976562 21.480469 C 46.273438 21.929688 46.550781 22.390625 46.808594 22.867188 C 47.0625 23.34375 47.292969 23.832031 47.5 24.332031 C 47.707031 24.832031 47.886719 25.339844 48.046875 25.855469 C 48.203125 26.371094 48.332031 26.894531 48.4375 27.425781 C 48.542969 27.957031 48.625 28.492188 48.675781 29.027344 C 48.730469 29.566406 48.753906 30.105469 48.753906 30.644531 Z M 48.753906 30.644531 " fill-opacity="1" fill-rule="nonzero"/></g><g clip-path="url(#b34bb6d6be)"><path fill="#a4dcf2" d="M 44.058594 36.960938 L 36.917969 36.953125 C 36.496094 35.433594 35.359375 34.792969 33.941406 34.40625 C 33.570312 32.703125 32.203125 31.488281 30.4375 31.464844 C 30.402344 31.464844 30.371094 31.464844 30.339844 31.464844 C 30.058594 31.492188 30.222656 31.472656 29.84375 31.527344 C 28.945312 30.300781 27.65625 29.367188 26.179688 28.984375 C 23.042969 28.175781 19.691406 29.996094 18.8125 33.148438 C 18.191406 33.375 17.652344 33.730469 17.183594 34.199219 C 17.054688 34.324219 16.976562 34.488281 16.871094 34.632812 C 16.109375 33.679688 15.832031 32.523438 15.769531 31.328125 C 15.835938 28.816406 17.316406 26.789062 19.695312 25.980469 C 19.894531 25.914062 20.121094 25.882812 20.320312 25.851562 C 20.523438 25.820312 21.683594 25.503906 24.46875 26.328125 C 22.734375 25.242188 20.527344 25.125 20.546875 25.050781 C 21.769531 20.445312 26.417969 17.90625 31.082031 18.890625 C 33.753906 19.453125 35.746094 21.339844 36.886719 22.96875 C 36.917969 23.007812 35.375 24.011719 34.773438 25.222656 C 35.726562 24.191406 36.847656 23.722656 37.253906 23.5625 C 37.660156 23.402344 38.355469 23.261719 38.917969 23.226562 C 41.449219 23.226562 43.503906 25.285156 43.503906 27.824219 C 43.503906 27.824219 43.488281 28.089844 43.480469 28.226562 C 43.476562 28.363281 43.359375 29.078125 43.039062 30.261719 C 43.886719 29.171875 43.933594 28.222656 43.972656 28.214844 C 45.21875 28.066406 47.507812 29.078125 48.304688 30.714844 C 48.527344 31.171875 48.613281 31.632812 48.714844 32.125 L 48.714844 32.132812 L 48.738281 32.132812 C 48.726562 32.28125 48.730469 32.425781 48.738281 32.574219 C 48.738281 34.996094 46.644531 36.960938 44.058594 36.960938 Z M 24.734375 40.40625 C 24.628906 40.402344 24.519531 40.40625 24.410156 40.394531 L 20.148438 40.386719 C 18.34375 40.386719 16.882812 38.921875 16.882812 37.113281 C 16.921875 35.644531 17.785156 34.460938 19.175781 33.988281 C 19.292969 33.949219 19.425781 33.929688 19.542969 33.914062 C 19.660156 33.894531 20.339844 33.710938 21.96875 34.191406 C 20.953125 33.558594 19.664062 33.488281 19.675781 33.445312 C 20.390625 30.75 23.105469 29.269531 25.832031 29.84375 C 27.394531 30.171875 28.558594 31.273438 29.226562 32.226562 C 29.242188 32.25 28.339844 32.835938 27.992188 33.546875 C 28.546875 32.941406 29.203125 32.667969 29.441406 32.574219 C 29.675781 32.480469 30.082031 32.398438 30.414062 32.378906 C 31.894531 32.378906 33.09375 33.582031 33.09375 35.066406 C 33.09375 35.066406 33.085938 35.222656 33.082031 35.300781 C 33.078125 35.378906 33.011719 35.796875 32.820312 36.488281 C 33.316406 35.851562 33.34375 35.296875 33.367188 35.292969 C 34.09375 35.207031 35.433594 35.796875 35.898438 36.753906 C 36.027344 37.023438 36.078125 37.292969 36.140625 37.578125 L 36.152344 37.585938 C 36.144531 37.671875 36.148438 37.753906 36.152344 37.839844 C 36.152344 39.257812 34.929688 40.40625 33.417969 40.40625 L 25.054688 40.394531 L 25.011719 40.398438 L 24.734375 40.40625 " fill-opacity="1" fill-rule="nonzero"/></g><g clip-path="url(#b2dd1d783f)"><path fill="#ffffff" d="M 49.660156 38.796875 C 49.660156 38.984375 49.558594 39.164062 49.347656 39.339844 C 49.140625 39.511719 48.847656 39.664062 48.460938 39.800781 C 48.078125 39.933594 47.636719 40.035156 47.132812 40.105469 C 46.632812 40.179688 46.109375 40.214844 45.570312 40.214844 C 45.027344 40.214844 44.503906 40.179688 44.003906 40.105469 C 43.5 40.035156 43.058594 39.933594 42.675781 39.800781 C 42.292969 39.664062 41.996094 39.511719 41.789062 39.339844 C 41.582031 39.164062 41.476562 38.984375 41.476562 38.796875 C 41.476562 38.605469 41.582031 38.425781 41.789062 38.253906 C 41.996094 38.078125 42.292969 37.925781 42.675781 37.792969 C 43.058594 37.660156 43.5 37.554688 44.003906 37.484375 C 44.503906 37.414062 45.027344 37.375 45.570312 37.375 C 46.109375 37.375 46.632812 37.414062 47.132812 37.484375 C 47.636719 37.554688 48.078125 37.660156 48.460938 37.792969 C 48.847656 37.925781 49.140625 38.078125 49.347656 38.253906 C 49.558594 38.425781 49.660156 38.605469 49.660156 38.796875 Z M 49.660156 38.796875 " fill-opacity="1" fill-rule="nonzero"/></g><g clip-path="url(#597fb32cb9)"><path fill="#ffffff" d="M 48.226562 28.992188 C 46.757812 27.464844 44.378906 27.464844 42.910156 28.992188 C 41.644531 30.308594 41.445312 32.371094 42.441406 33.921875 L 45.570312 38.796875 L 48.695312 33.921875 C 49.691406 32.371094 49.492188 30.308594 48.226562 28.992188 Z M 45.570312 33.710938 C 46.640625 33.710938 47.511719 32.808594 47.511719 31.691406 C 47.511719 30.578125 46.640625 29.671875 45.570312 29.671875 C 44.496094 29.671875 43.625 30.578125 43.625 31.691406 C 43.625 32.808594 44.496094 33.710938 45.570312 33.710938 Z M 45.570312 33.710938 " fill-opacity="1" fill-rule="evenodd"/></g><g clip-path="url(#748d381a25)"><path fill="#ffca70" d="M 47.898438 31.488281 C 47.898438 31.789062 47.839844 32.074219 47.726562 32.351562 C 47.613281 32.625 47.449219 32.867188 47.238281 33.078125 C 47.027344 33.289062 46.785156 33.453125 46.507812 33.566406 C 46.234375 33.683594 45.945312 33.738281 45.648438 33.738281 C 45.351562 33.738281 45.0625 33.683594 44.789062 33.566406 C 44.511719 33.453125 44.269531 33.289062 44.058594 33.078125 C 43.847656 32.867188 43.683594 32.625 43.570312 32.351562 C 43.457031 32.074219 43.398438 31.789062 43.398438 31.488281 C 43.398438 31.191406 43.457031 30.902344 43.570312 30.628906 C 43.683594 30.351562 43.847656 30.109375 44.058594 29.898438 C 44.269531 29.6875 44.511719 29.523438 44.789062 29.410156 C 45.0625 29.296875 45.351562 29.238281 45.648438 29.238281 C 45.945312 29.238281 46.234375 29.296875 46.507812 29.410156 C 46.785156 29.523438 47.027344 29.6875 47.238281 29.898438 C 47.449219 30.109375 47.613281 30.351562 47.726562 30.628906 C 47.839844 30.902344 47.898438 31.191406 47.898438 31.488281 Z M 47.898438 31.488281 " fill-opacity="1" fill-rule="nonzero"/></g><g fill="#a4dcf2" fill-opacity="1"><g transform="translate(62.167454, 45.873829)"><g><path d="M 5.324219 0 L 7.207031 0 L 12.054688 -19.769531 L 12.082031 -19.769531 L 16.957031 0 L 18.84375 0 L 23.839844 -20.96875 L 22.582031 -20.96875 L 17.917969 -1.257812 L 17.886719 -1.257812 L 13.011719 -20.96875 L 11.125 -20.96875 L 6.3125 -1.257812 L 6.25 -1.257812 L 1.554688 -20.96875 L 0.300781 -20.96875 Z M 5.324219 0 "/></g></g></g><g fill="#a4dcf2" fill-opacity="1"><g transform="translate(95.274951, 45.873829)"><g><path d="M 1.792969 0 L 13.488281 0 L 13.488281 -1.167969 L 3.019531 -1.167969 L 3.019531 -10.347656 L 11.992188 -10.347656 L 11.992188 -11.484375 L 3.019531 -11.484375 L 3.019531 -19.800781 L 13.191406 -19.800781 L 13.191406 -20.96875 L 1.792969 -20.96875 Z M 1.792969 0 "/></g></g></g><g fill="#a4dcf2" fill-opacity="1"><g transform="translate(118.48347, 45.873829)"><g><path d="M 0.300781 0 L 1.585938 0 L 3.351562 -5.445312 L 12.652344 -5.445312 L 14.417969 0 L 15.703125 0 L 8.824219 -20.96875 L 7.179688 -20.96875 Z M 3.707031 -6.609375 L 7.984375 -19.769531 L 8.046875 -19.769531 L 12.292969 -6.609375 Z M 3.707031 -6.609375 "/></g></g></g><g fill="#a4dcf2" fill-opacity="1"><g transform="translate(143.456462, 45.873829)"><g><path d="M 6.3125 0 L 7.566406 0 L 7.566406 -19.800781 L 13.578125 -19.800781 L 13.578125 -20.96875 L 0.300781 -20.96875 L 0.300781 -19.800781 L 6.3125 -19.800781 Z M 6.3125 0 "/></g></g></g><g fill="#a4dcf2" fill-opacity="1"><g transform="translate(166.306105, 45.873829)"><g><path d="M 1.792969 0 L 3.019531 0 L 3.019531 -10.347656 L 13.371094 -10.347656 L 13.371094 0 L 14.597656 0 L 14.597656 -20.96875 L 13.371094 -20.96875 L 13.371094 -11.515625 L 3.019531 -11.515625 L 3.019531 -20.96875 L 1.792969 -20.96875 Z M 1.792969 0 "/></g></g></g><g fill="#a4dcf2" fill-opacity="1"><g transform="translate(191.66787, 45.873829)"><g><path d="M 1.792969 0 L 13.488281 0 L 13.488281 -1.167969 L 3.019531 -1.167969 L 3.019531 -10.347656 L 11.992188 -10.347656 L 11.992188 -11.484375 L 3.019531 -11.484375 L 3.019531 -19.800781 L 13.191406 -19.800781 L 13.191406 -20.96875 L 1.792969 -20.96875 Z M 1.792969 0 "/></g></g></g><g fill="#a4dcf2" fill-opacity="1"><g transform="translate(214.876395, 45.873829)"><g><path d="M 14.355469 0.480469 C 15.164062 0.480469 16.0625 0.0898438 16.71875 -0.988281 L 15.914062 -1.792969 C 15.492188 -1.015625 14.953125 -0.6875 14.445312 -0.6875 C 13.820312 -0.6875 13.550781 -1.195312 13.371094 -2.125 L 12.441406 -6.132812 C 12.113281 -7.6875 11.425781 -8.941406 10.230469 -9.570312 L 10.230469 -9.601562 C 13.308594 -10.050781 15.132812 -12.292969 15.132812 -15.195312 C 15.132812 -18.753906 12.683594 -20.96875 8.734375 -20.96875 L 1.792969 -20.96875 L 1.792969 0 L 3.019531 0 L 3.019531 -9.332031 L 7.746094 -9.332031 C 9.75 -9.332031 10.796875 -7.957031 11.1875 -6.070312 L 12.171875 -1.855469 C 12.472656 -0.480469 13.039062 0.480469 14.355469 0.480469 Z M 3.019531 -10.5 L 3.019531 -19.800781 L 8.675781 -19.800781 C 11.902344 -19.800781 13.90625 -18.035156 13.90625 -15.132812 C 13.90625 -12.261719 11.902344 -10.5 8.675781 -10.5 Z M 3.019531 -10.5 "/></g></g></g><g fill="#a4dcf2" fill-opacity="1"><g transform="translate(240.567142, 45.873829)"><g><path d="M 5.324219 0 L 7.207031 0 L 12.054688 -19.769531 L 12.082031 -19.769531 L 16.957031 0 L 18.84375 0 L 23.839844 -20.96875 L 22.582031 -20.96875 L 17.917969 -1.257812 L 17.886719 -1.257812 L 13.011719 -20.96875 L 11.125 -20.96875 L 6.3125 -1.257812 L 6.25 -1.257812 L 1.554688 -20.96875 L 0.300781 -20.96875 Z M 5.324219 0 "/></g></g></g><g fill="#a4dcf2" fill-opacity="1"><g transform="translate(273.674645, 45.873829)"><g><path d="M 1.792969 0 L 3.019531 0 L 3.019531 -10.347656 L 13.371094 -10.347656 L 13.371094 0 L 14.597656 0 L 14.597656 -20.96875 L 13.371094 -20.96875 L 13.371094 -11.515625 L 3.019531 -11.515625 L 3.019531 -20.96875 L 1.792969 -20.96875 Z M 1.792969 0 "/></g></g></g><g fill="#a4dcf2" fill-opacity="1"><g transform="translate(299.036421, 45.873829)"><g><path d="M 1.792969 0 L 13.488281 0 L 13.488281 -1.167969 L 3.019531 -1.167969 L 3.019531 -10.347656 L 11.992188 -10.347656 L 11.992188 -11.484375 L 3.019531 -11.484375 L 3.019531 -19.800781 L 13.191406 -19.800781 L 13.191406 -20.96875 L 1.792969 -20.96875 Z M 1.792969 0 "/></g></g></g><g fill="#a4dcf2" fill-opacity="1"><g transform="translate(322.244946, 45.873829)"><g><path d="M 14.355469 0.480469 C 15.164062 0.480469 16.0625 0.0898438 16.71875 -0.988281 L 15.914062 -1.792969 C 15.492188 -1.015625 14.953125 -0.6875 14.445312 -0.6875 C 13.820312 -0.6875 13.550781 -1.195312 13.371094 -2.125 L 12.441406 -6.132812 C 12.113281 -7.6875 11.425781 -8.941406 10.230469 -9.570312 L 10.230469 -9.601562 C 13.308594 -10.050781 15.132812 -12.292969 15.132812 -15.195312 C 15.132812 -18.753906 12.683594 -20.96875 8.734375 -20.96875 L 1.792969 -20.96875 L 1.792969 0 L 3.019531 0 L 3.019531 -9.332031 L 7.746094 -9.332031 C 9.75 -9.332031 10.796875 -7.957031 11.1875 -6.070312 L 12.171875 -1.855469 C 12.472656 -0.480469 13.039062 0.480469 14.355469 0.480469 Z M 3.019531 -10.5 L 3.019531 -19.800781 L 8.675781 -19.800781 C 11.902344 -19.800781 13.90625 -18.035156 13.90625 -15.132812 C 13.90625 -12.261719 11.902344 -10.5 8.675781 -10.5 Z M 3.019531 -10.5 "/></g></g></g><g fill="#a4dcf2" fill-opacity="1"><g transform="translate(347.935694, 45.873829)"><g><path d="M 1.792969 0 L 13.488281 0 L 13.488281 -1.167969 L 3.019531 -1.167969 L 3.019531 -10.347656 L 11.992188 -10.347656 L 11.992188 -11.484375 L 3.019531 -11.484375 L 3.019531 -19.800781 L 13.191406 -19.800781 L 13.191406 -20.96875 L 1.792969 -20.96875 Z M 1.792969 0 "/></g></g></g></svg>