<svg xmlns="http://www.w3.org/2000/svg" xmlns:xlink="http://www.w3.org/1999/xlink" width="500" zoomAndPan="magnify" viewBox="0 0 375 374.999991" height="500" preserveAspectRatio="xMidYMid meet" version="1.0"><defs><g/><clipPath id="b20545d0ae"><path d="M 83.28125 41.011719 L 291.78125 41.011719 L 291.78125 249.511719 L 83.28125 249.511719 Z M 83.28125 41.011719 " clip-rule="nonzero"/></clipPath><clipPath id="aad82f981f"><path d="M 69.515625 25.917969 L 305.765625 25.917969 L 305.765625 310.917969 L 69.515625 310.917969 Z M 69.515625 25.917969 " clip-rule="nonzero"/></clipPath><clipPath id="4588dc4069"><path d="M 101.867188 56.238281 L 272.867188 56.238281 L 272.867188 227.238281 L 101.867188 227.238281 Z M 101.867188 56.238281 " clip-rule="nonzero"/></clipPath><clipPath id="57f50044ba"><path d="M 101.867188 79 L 271.367188 79 L 271.367188 191.078125 L 101.867188 191.078125 Z M 101.867188 79 " clip-rule="nonzero"/></clipPath><clipPath id="4a8d4e0556"><path d="M 234 174 L 276.722656 174 L 276.722656 188.484375 L 234 188.484375 Z M 234 174 " clip-rule="nonzero"/></clipPath><clipPath id="21e0965f88"><path d="M 244.027344 133.859375 L 266.527344 133.859375 L 266.527344 156.359375 L 244.027344 156.359375 Z M 244.027344 133.859375 " clip-rule="nonzero"/></clipPath></defs><g clip-path="url(#b20545d0ae)"><path fill="#ffffff" d="M 291.78125 145.261719 C 291.78125 146.96875 291.742188 148.675781 291.65625 150.378906 C 291.574219 152.082031 291.449219 153.785156 291.28125 155.480469 C 291.113281 157.179688 290.902344 158.871094 290.652344 160.558594 C 290.402344 162.246094 290.113281 163.929688 289.777344 165.601562 C 289.445312 167.273438 289.074219 168.9375 288.65625 170.59375 C 288.242188 172.25 287.789062 173.894531 287.292969 175.527344 C 286.796875 177.160156 286.261719 178.777344 285.6875 180.382812 C 285.113281 181.992188 284.5 183.582031 283.847656 185.160156 C 283.195312 186.734375 282.503906 188.292969 281.773438 189.835938 C 281.042969 191.378906 280.277344 192.902344 279.472656 194.40625 C 278.667969 195.910156 277.828125 197.394531 276.949219 198.859375 C 276.074219 200.320312 275.160156 201.761719 274.214844 203.183594 C 273.265625 204.601562 272.28125 205.996094 271.265625 207.367188 C 270.25 208.734375 269.199219 210.082031 268.117188 211.398438 C 267.035156 212.71875 265.921875 214.007812 264.777344 215.273438 C 263.628906 216.539062 262.453125 217.773438 261.25 218.980469 C 260.042969 220.1875 258.804688 221.363281 257.542969 222.507812 C 256.277344 223.652344 254.988281 224.765625 253.667969 225.851562 C 252.347656 226.933594 251.003906 227.980469 249.632812 228.996094 C 248.261719 230.015625 246.867188 230.996094 245.449219 231.945312 C 244.03125 232.890625 242.589844 233.804688 241.128906 234.683594 C 239.664062 235.558594 238.179688 236.398438 236.675781 237.203125 C 235.171875 238.007812 233.648438 238.773438 232.105469 239.503906 C 230.5625 240.234375 229.003906 240.925781 227.425781 241.578125 C 225.851562 242.230469 224.257812 242.84375 222.652344 243.417969 C 221.046875 243.996094 219.425781 244.53125 217.792969 245.023438 C 216.160156 245.519531 214.519531 245.976562 212.863281 246.390625 C 211.207031 246.804688 209.542969 247.175781 207.871094 247.511719 C 206.195312 247.84375 204.515625 248.136719 202.828125 248.386719 C 201.140625 248.636719 199.449219 248.84375 197.75 249.011719 C 196.050781 249.179688 194.351562 249.304688 192.648438 249.386719 C 190.945312 249.472656 189.238281 249.511719 187.53125 249.511719 C 185.824219 249.511719 184.121094 249.472656 182.417969 249.386719 C 180.710938 249.304688 179.011719 249.179688 177.3125 249.011719 C 175.617188 248.84375 173.921875 248.636719 172.234375 248.386719 C 170.546875 248.136719 168.867188 247.84375 167.195312 247.511719 C 165.519531 247.175781 163.855469 246.804688 162.203125 246.390625 C 160.546875 245.976562 158.902344 245.519531 157.269531 245.023438 C 155.636719 244.53125 154.019531 243.996094 152.410156 243.417969 C 150.804688 242.84375 149.214844 242.230469 147.636719 241.578125 C 146.0625 240.925781 144.5 240.234375 142.960938 239.503906 C 141.417969 238.773438 139.894531 238.007812 138.390625 237.203125 C 136.882812 236.398438 135.402344 235.558594 133.9375 234.683594 C 132.472656 233.804688 131.03125 232.890625 129.613281 231.945312 C 128.195312 230.996094 126.800781 230.015625 125.429688 228.996094 C 124.058594 227.980469 122.714844 226.933594 121.398438 225.851562 C 120.078125 224.765625 118.785156 223.652344 117.523438 222.507812 C 116.257812 221.363281 115.023438 220.1875 113.816406 218.980469 C 112.609375 217.773438 111.433594 216.539062 110.289062 215.273438 C 109.140625 214.007812 108.027344 212.71875 106.945312 211.398438 C 105.863281 210.082031 104.8125 208.734375 103.796875 207.363281 C 102.78125 205.996094 101.800781 204.601562 100.851562 203.183594 C 99.902344 201.761719 98.992188 200.320312 98.113281 198.859375 C 97.238281 197.394531 96.394531 195.910156 95.59375 194.40625 C 94.789062 192.902344 94.019531 191.378906 93.292969 189.835938 C 92.5625 188.292969 91.871094 186.734375 91.21875 185.160156 C 90.566406 183.582031 89.949219 181.992188 89.375 180.382812 C 88.800781 178.777344 88.265625 177.160156 87.769531 175.527344 C 87.277344 173.894531 86.820312 172.25 86.40625 170.59375 C 85.992188 168.9375 85.617188 167.273438 85.285156 165.601562 C 84.953125 163.929688 84.660156 162.246094 84.410156 160.558594 C 84.160156 158.871094 83.953125 157.179688 83.785156 155.480469 C 83.617188 153.785156 83.492188 152.082031 83.40625 150.378906 C 83.324219 148.675781 83.28125 146.96875 83.28125 145.261719 C 83.28125 143.558594 83.324219 141.851562 83.40625 140.148438 C 83.492188 138.445312 83.617188 136.742188 83.785156 135.046875 C 83.953125 133.347656 84.160156 131.65625 84.410156 129.96875 C 84.660156 128.277344 84.953125 126.597656 85.285156 124.925781 C 85.617188 123.253906 85.992188 121.589844 86.40625 119.933594 C 86.820312 118.277344 87.277344 116.632812 87.769531 115 C 88.265625 113.367188 88.800781 111.75 89.375 110.144531 C 89.949219 108.535156 90.566406 106.945312 91.21875 105.367188 C 91.871094 103.792969 92.5625 102.234375 93.292969 100.691406 C 94.019531 99.148438 94.789062 97.625 95.59375 96.121094 C 96.394531 94.617188 97.238281 93.132812 98.113281 91.667969 C 98.992188 90.203125 99.902344 88.765625 100.851562 87.34375 C 101.800781 85.925781 102.78125 84.53125 103.796875 83.160156 C 104.8125 81.792969 105.863281 80.445312 106.945312 79.128906 C 108.027344 77.808594 109.140625 76.519531 110.289062 75.253906 C 111.433594 73.988281 112.609375 72.753906 113.816406 71.546875 C 115.023438 70.339844 116.257812 69.164062 117.523438 68.019531 C 118.785156 66.875 120.078125 65.757812 121.398438 64.675781 C 122.714844 63.59375 124.058594 62.546875 125.429688 61.527344 C 126.800781 60.511719 128.195312 59.53125 129.613281 58.582031 C 131.03125 57.636719 132.472656 56.722656 133.9375 55.84375 C 135.402344 54.96875 136.882812 54.128906 138.390625 53.324219 C 139.894531 52.519531 141.417969 51.753906 142.960938 51.023438 C 144.5 50.292969 146.0625 49.601562 147.636719 48.949219 C 149.214844 48.296875 150.804688 47.683594 152.410156 47.109375 C 154.019531 46.53125 155.636719 45.996094 157.269531 45.503906 C 158.902344 45.007812 160.546875 44.550781 162.203125 44.136719 C 163.855469 43.722656 165.519531 43.347656 167.195312 43.015625 C 168.867188 42.683594 170.546875 42.390625 172.234375 42.140625 C 173.921875 41.890625 175.617188 41.683594 177.3125 41.515625 C 179.011719 41.347656 180.710938 41.222656 182.417969 41.140625 C 184.121094 41.054688 185.824219 41.011719 187.53125 41.011719 C 189.238281 41.011719 190.945312 41.054688 192.648438 41.140625 C 194.351562 41.222656 196.050781 41.347656 197.75 41.515625 C 199.449219 41.683594 201.140625 41.890625 202.828125 42.140625 C 204.515625 42.390625 206.195312 42.683594 207.871094 43.015625 C 209.542969 43.347656 211.207031 43.722656 212.863281 44.136719 C 214.519531 44.550781 216.160156 45.007812 217.792969 45.503906 C 219.425781 45.996094 221.046875 46.53125 222.652344 47.109375 C 224.257812 47.683594 225.851562 48.296875 227.425781 48.949219 C 229.003906 49.601562 230.5625 50.292969 232.105469 51.023438 C 233.648438 51.753906 235.171875 52.519531 236.675781 53.324219 C 238.179688 54.128906 239.664062 54.96875 241.128906 55.84375 C 242.589844 56.722656 244.03125 57.636719 245.449219 58.582031 C 246.867188 59.53125 248.261719 60.511719 249.632812 61.527344 C 251.003906 62.546875 252.347656 63.59375 253.667969 64.675781 C 254.988281 65.757812 256.277344 66.875 257.542969 68.019531 C 258.804688 69.164062 260.042969 70.339844 261.25 71.546875 C 262.453125 72.753906 263.628906 73.988281 264.777344 75.253906 C 265.921875 76.519531 267.035156 77.808594 268.117188 79.128906 C 269.199219 80.445312 270.25 81.792969 271.265625 83.160156 C 272.28125 84.53125 273.265625 85.925781 274.214844 87.34375 C 275.160156 88.765625 276.074219 90.203125 276.949219 91.667969 C 277.828125 93.132812 278.667969 94.617188 279.472656 96.121094 C 280.277344 97.625 281.042969 99.148438 281.773438 100.691406 C 282.503906 102.234375 283.195312 103.792969 283.847656 105.367188 C 284.5 106.945312 285.113281 108.535156 285.6875 110.144531 C 286.261719 111.75 286.796875 113.367188 287.292969 115 C 287.789062 116.632812 288.242188 118.277344 288.65625 119.933594 C 289.074219 121.589844 289.445312 123.253906 289.777344 124.925781 C 290.113281 126.597656 290.402344 128.277344 290.652344 129.96875 C 290.902344 131.65625 291.113281 133.347656 291.28125 135.046875 C 291.449219 136.742188 291.574219 138.445312 291.65625 140.148438 C 291.742188 141.851562 291.78125 143.558594 291.78125 145.261719 Z M 291.78125 145.261719 " fill-opacity="1" fill-rule="nonzero"/></g><path fill="#a4dcf2" d="M 113.886719 169.140625 L 162.011719 169.140625 L 162.011719 220.328125 L 213.265625 220.328125 L 213.265625 172.265625 L 209.925781 168.933594 C 180.734375 139.773438 188.046875 147.082031 162.011719 121.078125 L 144.242188 138.828125 L 144.242188 131.324219 L 128.53125 131.324219 L 128.53125 154.519531 L 113.894531 169.136719 L 113.886719 169.144531 Z M 195.847656 186.683594 L 177.992188 186.683594 L 177.992188 204.511719 L 195.847656 204.511719 Z M 195.847656 186.683594 " fill-opacity="1" fill-rule="evenodd"/><path fill="#ffb82f" d="M 158.808594 117.957031 L 110.761719 117.957031 L 110.761719 165.945312 L 123.292969 153.425781 L 123.292969 125.679688 L 147.273438 125.679688 L 147.273438 129.476562 L 158.8125 117.957031 Z M 213.265625 66.773438 L 162.011719 66.773438 L 162.011719 114.757812 C 186.167969 138.882812 190.332031 143.039062 216.464844 169.144531 L 264.515625 169.144531 L 264.515625 117.957031 L 213.265625 117.957031 Z M 213.265625 66.773438 " fill-opacity="1" fill-rule="evenodd"/><g clip-path="url(#aad82f981f)"><path fill="#a4dcf2" d="M 187.640625 310.917969 L 271.265625 227.402344 C 317.261719 181.464844 317.261719 106.304688 271.269531 60.371094 C 225.269531 14.433594 150.015625 14.433594 104.015625 60.371094 C 58.023438 106.304688 58.023438 181.464844 104.023438 227.402344 L 187.644531 310.917969 Z M 187.640625 46.328125 C 133.691406 46.328125 89.960938 90.003906 89.960938 143.882812 C 89.960938 197.765625 133.691406 241.441406 187.640625 241.441406 C 241.589844 241.441406 285.324219 197.765625 285.324219 143.882812 C 285.324219 90.003906 241.589844 46.328125 187.640625 46.328125 Z M 187.640625 46.328125 " fill-opacity="1" fill-rule="evenodd"/></g><g clip-path="url(#4588dc4069)"><path fill="#ffffff" d="M 272.867188 141.738281 C 272.867188 143.136719 272.832031 144.535156 272.765625 145.933594 C 272.695312 147.328125 272.59375 148.726562 272.457031 150.117188 C 272.320312 151.511719 272.148438 152.898438 271.941406 154.28125 C 271.738281 155.667969 271.496094 157.042969 271.226562 158.417969 C 270.953125 159.789062 270.644531 161.15625 270.304688 162.511719 C 269.964844 163.867188 269.59375 165.21875 269.1875 166.554688 C 268.78125 167.894531 268.339844 169.222656 267.871094 170.542969 C 267.398438 171.859375 266.894531 173.164062 266.359375 174.457031 C 265.824219 175.75 265.257812 177.027344 264.660156 178.292969 C 264.0625 179.558594 263.429688 180.808594 262.773438 182.042969 C 262.113281 183.277344 261.421875 184.492188 260.703125 185.691406 C 259.984375 186.894531 259.234375 188.074219 258.457031 189.238281 C 257.679688 190.402344 256.875 191.546875 256.042969 192.667969 C 255.207031 193.792969 254.347656 194.894531 253.460938 195.976562 C 252.574219 197.058594 251.660156 198.117188 250.71875 199.15625 C 249.78125 200.191406 248.816406 201.207031 247.824219 202.195312 C 246.835938 203.183594 245.824219 204.148438 244.785156 205.089844 C 243.75 206.027344 242.691406 206.941406 241.609375 207.828125 C 240.527344 208.71875 239.425781 209.578125 238.300781 210.410156 C 237.175781 211.246094 236.03125 212.050781 234.867188 212.828125 C 233.707031 213.605469 232.523438 214.351562 231.324219 215.074219 C 230.125 215.792969 228.90625 216.480469 227.671875 217.140625 C 226.4375 217.800781 225.1875 218.429688 223.921875 219.027344 C 222.660156 219.625 221.378906 220.191406 220.085938 220.730469 C 218.792969 221.265625 217.488281 221.765625 216.171875 222.238281 C 214.855469 222.710938 213.527344 223.148438 212.1875 223.554688 C 210.847656 223.960938 209.5 224.335938 208.140625 224.675781 C 206.785156 225.015625 205.421875 225.320312 204.046875 225.59375 C 202.675781 225.867188 201.296875 226.105469 199.914062 226.3125 C 198.527344 226.515625 197.140625 226.6875 195.75 226.824219 C 194.355469 226.960938 192.960938 227.066406 191.5625 227.132812 C 190.164062 227.203125 188.765625 227.238281 187.367188 227.238281 C 185.96875 227.238281 184.570312 227.203125 183.171875 227.132812 C 181.773438 227.066406 180.378906 226.960938 178.988281 226.824219 C 177.59375 226.6875 176.207031 226.515625 174.824219 226.3125 C 173.4375 226.105469 172.058594 225.867188 170.6875 225.59375 C 169.316406 225.320312 167.949219 225.015625 166.59375 224.675781 C 165.234375 224.335938 163.886719 223.960938 162.546875 223.554688 C 161.210938 223.148438 159.882812 222.710938 158.5625 222.238281 C 157.246094 221.765625 155.941406 221.265625 154.648438 220.730469 C 153.355469 220.191406 152.078125 219.625 150.8125 219.027344 C 149.546875 218.429688 148.296875 217.800781 147.0625 217.140625 C 145.828125 216.480469 144.613281 215.792969 143.410156 215.074219 C 142.210938 214.351562 141.03125 213.605469 139.867188 212.828125 C 138.703125 212.050781 137.558594 211.246094 136.433594 210.410156 C 135.3125 209.578125 134.207031 208.71875 133.128906 207.828125 C 132.046875 206.941406 130.984375 206.027344 129.949219 205.089844 C 128.914062 204.148438 127.898438 203.183594 126.910156 202.195312 C 125.921875 201.207031 124.957031 200.191406 124.015625 199.15625 C 123.078125 198.117188 122.164062 197.058594 121.273438 195.976562 C 120.386719 194.894531 119.527344 193.792969 118.695312 192.667969 C 117.859375 191.546875 117.054688 190.402344 116.277344 189.238281 C 115.5 188.074219 114.75 186.894531 114.03125 185.691406 C 113.3125 184.492188 112.625 183.277344 111.964844 182.042969 C 111.304688 180.808594 110.675781 179.558594 110.078125 178.292969 C 109.476562 177.027344 108.910156 175.75 108.375 174.457031 C 107.839844 173.164062 107.335938 171.859375 106.867188 170.542969 C 106.394531 169.222656 105.957031 167.894531 105.550781 166.554688 C 105.144531 165.21875 104.769531 163.867188 104.429688 162.511719 C 104.089844 161.15625 103.785156 159.789062 103.511719 158.417969 C 103.238281 157.042969 103 155.667969 102.792969 154.28125 C 102.585938 152.898438 102.417969 151.511719 102.28125 150.117188 C 102.140625 148.726562 102.039062 147.328125 101.972656 145.933594 C 101.902344 144.535156 101.867188 143.136719 101.867188 141.738281 C 101.867188 140.335938 101.902344 138.9375 101.972656 137.542969 C 102.039062 136.144531 102.140625 134.75 102.28125 133.355469 C 102.417969 131.964844 102.585938 130.574219 102.792969 129.191406 C 103 127.808594 103.238281 126.429688 103.511719 125.058594 C 103.785156 123.683594 104.089844 122.320312 104.429688 120.960938 C 104.769531 119.605469 105.144531 118.257812 105.550781 116.917969 C 105.957031 115.578125 106.394531 114.25 106.867188 112.933594 C 107.335938 111.617188 107.839844 110.308594 108.375 109.015625 C 108.910156 107.726562 109.476562 106.445312 110.078125 105.179688 C 110.675781 103.917969 111.304688 102.667969 111.964844 101.433594 C 112.625 100.199219 113.3125 98.980469 114.03125 97.78125 C 114.75 96.582031 115.5 95.398438 116.277344 94.234375 C 117.054688 93.074219 117.859375 91.929688 118.695312 90.804688 C 119.527344 89.679688 120.386719 88.578125 121.273438 87.496094 C 122.164062 86.414062 123.078125 85.355469 124.015625 84.320312 C 124.957031 83.28125 125.921875 82.269531 126.910156 81.28125 C 127.898438 80.289062 128.914062 79.324219 129.949219 78.386719 C 130.984375 77.445312 132.046875 76.53125 133.128906 75.644531 C 134.207031 74.757812 135.3125 73.894531 136.433594 73.0625 C 137.558594 72.230469 138.703125 71.421875 139.867188 70.644531 C 141.03125 69.867188 142.210938 69.121094 143.410156 68.402344 C 144.613281 67.683594 145.828125 66.992188 147.0625 66.332031 C 148.296875 65.671875 149.546875 65.042969 150.8125 64.445312 C 152.078125 63.847656 153.355469 63.28125 154.648438 62.746094 C 155.941406 62.210938 157.246094 61.707031 158.5625 61.234375 C 159.882812 60.761719 161.210938 60.324219 162.546875 59.917969 C 163.886719 59.511719 165.234375 59.140625 166.59375 58.800781 C 167.949219 58.460938 169.316406 58.152344 170.6875 57.878906 C 172.058594 57.605469 173.4375 57.367188 174.824219 57.164062 C 176.207031 56.957031 177.59375 56.785156 178.988281 56.648438 C 180.378906 56.511719 181.773438 56.410156 183.171875 56.339844 C 184.570312 56.269531 185.96875 56.238281 187.367188 56.238281 C 188.765625 56.238281 190.164062 56.269531 191.5625 56.339844 C 192.960938 56.410156 194.355469 56.511719 195.75 56.648438 C 197.140625 56.785156 198.527344 56.957031 199.914062 57.164062 C 201.296875 57.367188 202.675781 57.605469 204.046875 57.878906 C 205.421875 58.152344 206.785156 58.460938 208.140625 58.800781 C 209.5 59.140625 210.847656 59.511719 212.1875 59.917969 C 213.527344 60.324219 214.855469 60.761719 216.171875 61.234375 C 217.488281 61.707031 218.792969 62.210938 220.085938 62.746094 C 221.378906 63.28125 222.660156 63.847656 223.921875 64.445312 C 225.1875 65.042969 226.4375 65.671875 227.671875 66.332031 C 228.90625 66.992188 230.125 67.683594 231.324219 68.402344 C 232.523438 69.121094 233.707031 69.867188 234.867188 70.644531 C 236.03125 71.421875 237.175781 72.230469 238.300781 73.0625 C 239.425781 73.894531 240.527344 74.757812 241.609375 75.644531 C 242.691406 76.53125 243.75 77.445312 244.785156 78.386719 C 245.824219 79.324219 246.835938 80.289062 247.824219 81.28125 C 248.816406 82.269531 249.78125 83.28125 250.71875 84.320312 C 251.660156 85.355469 252.574219 86.414062 253.460938 87.496094 C 254.347656 88.578125 255.207031 89.679688 256.042969 90.804688 C 256.875 91.929688 257.679688 93.074219 258.457031 94.234375 C 259.234375 95.398438 259.984375 96.582031 260.703125 97.78125 C 261.421875 98.980469 262.113281 100.199219 262.773438 101.433594 C 263.429688 102.667969 264.0625 103.917969 264.660156 105.179688 C 265.257812 106.445312 265.824219 107.726562 266.359375 109.015625 C 266.894531 110.308594 267.398438 111.617188 267.871094 112.933594 C 268.339844 114.25 268.78125 115.578125 269.1875 116.917969 C 269.59375 118.257812 269.964844 119.605469 270.304688 120.960938 C 270.644531 122.320312 270.953125 123.683594 271.226562 125.058594 C 271.496094 126.429688 271.738281 127.808594 271.941406 129.191406 C 272.148438 130.574219 272.320312 131.964844 272.457031 133.355469 C 272.59375 134.75 272.695312 136.144531 272.765625 137.542969 C 272.832031 138.9375 272.867188 140.335938 272.867188 141.738281 Z M 272.867188 141.738281 " fill-opacity="1" fill-rule="nonzero"/></g><g clip-path="url(#57f50044ba)"><path fill="#a4dcf2" d="M 247.269531 173.394531 L 210.574219 173.34375 C 208.414062 165.550781 202.558594 162.257812 195.273438 160.28125 C 193.375 151.535156 186.347656 145.304688 177.273438 145.175781 C 177.105469 145.171875 176.9375 145.175781 176.769531 145.1875 C 175.324219 145.316406 176.171875 145.226562 174.234375 145.5 C 169.609375 139.199219 162.984375 134.402344 155.402344 132.449219 C 139.277344 128.296875 122.058594 137.628906 117.539062 153.820312 C 114.359375 154.992188 111.59375 156.8125 109.175781 159.207031 C 108.523438 159.851562 108.109375 160.699219 107.574219 161.445312 C 103.667969 156.550781 102.230469 150.617188 101.917969 144.484375 C 102.253906 131.574219 109.851562 121.171875 122.078125 117.027344 C 123.113281 116.675781 124.261719 116.53125 125.296875 116.367188 C 126.328125 116.203125 132.304688 114.582031 146.609375 118.800781 C 137.699219 113.246094 126.351562 112.644531 126.453125 112.261719 C 132.734375 88.601562 156.628906 75.574219 180.589844 80.632812 C 194.3125 83.527344 204.5625 93.199219 210.414062 101.558594 C 210.5625 101.765625 202.640625 106.921875 199.554688 113.136719 C 204.453125 107.832031 210.214844 105.441406 212.300781 104.613281 C 214.382812 103.78125 217.949219 103.074219 220.855469 102.894531 C 233.859375 102.894531 244.402344 113.457031 244.402344 126.488281 C 244.402344 126.488281 244.335938 127.859375 244.300781 128.554688 C 244.261719 129.25 243.675781 132.921875 242.027344 139.003906 C 246.371094 133.398438 246.625 128.527344 246.828125 128.503906 C 253.21875 127.726562 264.992188 132.925781 269.078125 141.339844 C 270.210938 143.671875 270.664062 146.042969 271.191406 148.5625 L 271.191406 148.601562 L 271.316406 148.613281 C 271.238281 149.363281 271.269531 150.117188 271.316406 150.867188 C 271.316406 163.308594 260.550781 173.394531 247.269531 173.394531 Z M 147.984375 191.074219 C 147.425781 191.0625 146.871094 191.070312 146.316406 191.015625 L 124.402344 190.984375 C 115.144531 190.984375 107.636719 183.460938 107.636719 174.179688 C 107.832031 166.632812 112.273438 160.550781 119.417969 158.128906 C 120.023438 157.921875 120.695312 157.839844 121.300781 157.746094 C 121.902344 157.648438 125.394531 156.699219 133.753906 159.167969 C 128.546875 155.917969 121.914062 155.566406 121.972656 155.34375 C 125.648438 141.515625 139.613281 133.902344 153.617188 136.855469 C 161.640625 138.546875 167.628906 144.203125 171.050781 149.085938 C 171.136719 149.210938 166.507812 152.222656 164.703125 155.855469 C 167.5625 152.753906 170.933594 151.359375 172.152344 150.871094 C 173.371094 150.386719 175.457031 149.972656 177.152344 149.867188 C 184.753906 149.867188 190.917969 156.042969 190.917969 163.660156 C 190.917969 163.660156 190.875 164.460938 190.855469 164.867188 C 190.835938 165.273438 190.492188 167.417969 189.527344 170.976562 C 192.066406 167.699219 192.21875 164.851562 192.335938 164.835938 C 196.070312 164.382812 202.953125 167.421875 205.339844 172.339844 C 206.003906 173.703125 206.265625 175.089844 206.574219 176.5625 L 206.648438 176.59375 C 206.601562 177.03125 206.621094 177.46875 206.648438 177.910156 C 206.648438 185.179688 200.355469 191.074219 192.59375 191.074219 L 149.613281 191.015625 L 149.390625 191.039062 L 147.984375 191.074219 " fill-opacity="1" fill-rule="nonzero"/></g><g clip-path="url(#4a8d4e0556)"><path fill="#ffffff" d="M 276.5625 181.386719 C 276.5625 181.621094 276.527344 181.851562 276.460938 182.082031 C 276.390625 182.316406 276.289062 182.542969 276.15625 182.773438 C 276.019531 183 275.851562 183.226562 275.648438 183.449219 C 275.449219 183.667969 275.214844 183.886719 274.949219 184.101562 C 274.683594 184.316406 274.386719 184.527344 274.058594 184.734375 C 273.730469 184.9375 273.375 185.136719 272.988281 185.328125 C 272.601562 185.523438 272.1875 185.710938 271.746094 185.890625 C 271.304688 186.070312 270.839844 186.242188 270.347656 186.40625 C 269.859375 186.570312 269.34375 186.726562 268.804688 186.871094 C 268.269531 187.019531 267.710938 187.160156 267.132812 187.289062 C 266.554688 187.417969 265.960938 187.535156 265.347656 187.644531 C 264.734375 187.753906 264.109375 187.855469 263.464844 187.941406 C 262.824219 188.03125 262.171875 188.109375 261.507812 188.175781 C 260.839844 188.246094 260.167969 188.300781 259.488281 188.347656 C 258.804688 188.390625 258.117188 188.425781 257.425781 188.449219 C 256.734375 188.472656 256.042969 188.484375 255.347656 188.484375 C 254.652344 188.484375 253.960938 188.472656 253.269531 188.449219 C 252.578125 188.425781 251.890625 188.390625 251.210938 188.347656 C 250.527344 188.300781 249.855469 188.246094 249.191406 188.175781 C 248.523438 188.109375 247.871094 188.03125 247.230469 187.941406 C 246.585938 187.855469 245.960938 187.753906 245.347656 187.644531 C 244.734375 187.535156 244.140625 187.417969 243.5625 187.289062 C 242.984375 187.160156 242.425781 187.019531 241.890625 186.871094 C 241.351562 186.726562 240.839844 186.570312 240.347656 186.40625 C 239.855469 186.242188 239.390625 186.070312 238.949219 185.890625 C 238.507812 185.710938 238.09375 185.523438 237.707031 185.328125 C 237.324219 185.136719 236.964844 184.9375 236.636719 184.734375 C 236.3125 184.527344 236.015625 184.316406 235.75 184.101562 C 235.480469 183.886719 235.25 183.667969 235.046875 183.449219 C 234.84375 183.226562 234.675781 183 234.539062 182.773438 C 234.40625 182.542969 234.304688 182.316406 234.234375 182.082031 C 234.167969 181.851562 234.132812 181.621094 234.132812 181.386719 C 234.132812 181.15625 234.167969 180.921875 234.234375 180.691406 C 234.304688 180.460938 234.40625 180.230469 234.539062 180.003906 C 234.675781 179.777344 234.84375 179.550781 235.046875 179.328125 C 235.25 179.105469 235.480469 178.886719 235.75 178.671875 C 236.015625 178.457031 236.3125 178.25 236.636719 178.042969 C 236.964844 177.839844 237.324219 177.640625 237.707031 177.445312 C 238.09375 177.253906 238.507812 177.066406 238.949219 176.886719 C 239.390625 176.707031 239.855469 176.535156 240.347656 176.371094 C 240.839844 176.207031 241.351562 176.050781 241.890625 175.902344 C 242.425781 175.753906 242.984375 175.617188 243.5625 175.488281 C 244.140625 175.359375 244.734375 175.238281 245.347656 175.128906 C 245.960938 175.019531 246.585938 174.921875 247.230469 174.832031 C 247.871094 174.742188 248.523438 174.664062 249.191406 174.597656 C 249.855469 174.53125 250.527344 174.472656 251.210938 174.429688 C 251.890625 174.382812 252.578125 174.347656 253.269531 174.328125 C 253.960938 174.304688 254.652344 174.292969 255.347656 174.292969 C 256.042969 174.292969 256.734375 174.304688 257.425781 174.328125 C 258.117188 174.347656 258.804688 174.382812 259.488281 174.429688 C 260.167969 174.472656 260.839844 174.53125 261.507812 174.597656 C 262.171875 174.664062 262.824219 174.742188 263.464844 174.832031 C 264.109375 174.921875 264.734375 175.019531 265.347656 175.128906 C 265.960938 175.238281 266.554688 175.359375 267.132812 175.488281 C 267.710938 175.617188 268.269531 175.753906 268.804688 175.902344 C 269.34375 176.050781 269.859375 176.207031 270.347656 176.371094 C 270.839844 176.535156 271.304688 176.707031 271.746094 176.886719 C 272.1875 177.066406 272.601562 177.253906 272.988281 177.445312 C 273.375 177.640625 273.730469 177.839844 274.058594 178.042969 C 274.386719 178.25 274.683594 178.457031 274.949219 178.671875 C 275.214844 178.886719 275.449219 179.105469 275.648438 179.328125 C 275.851562 179.550781 276.019531 179.777344 276.15625 180.003906 C 276.289062 180.230469 276.390625 180.460938 276.460938 180.691406 C 276.527344 180.921875 276.5625 181.15625 276.5625 181.386719 Z M 276.5625 181.386719 " fill-opacity="1" fill-rule="nonzero"/></g><path fill="#ffffff" d="M 269.128906 132.367188 C 261.515625 124.734375 249.179688 124.734375 241.570312 132.367188 C 235 138.953125 233.980469 149.273438 239.136719 157.023438 L 255.347656 181.402344 L 271.558594 157.023438 C 276.714844 149.273438 275.695312 138.953125 269.128906 132.367188 Z M 255.347656 155.972656 C 260.910156 155.972656 265.417969 151.449219 265.417969 145.875 C 265.417969 140.296875 260.910156 135.773438 255.347656 135.773438 C 249.785156 135.773438 245.277344 140.296875 245.277344 145.875 C 245.277344 151.449219 249.785156 155.972656 255.347656 155.972656 Z M 255.347656 155.972656 " fill-opacity="1" fill-rule="evenodd"/><g clip-path="url(#21e0965f88)"><path fill="#ffca70" d="M 266.527344 145.109375 C 266.527344 145.847656 266.457031 146.578125 266.3125 147.300781 C 266.167969 148.027344 265.953125 148.730469 265.671875 149.414062 C 265.386719 150.09375 265.042969 150.742188 264.632812 151.359375 C 264.222656 151.972656 263.753906 152.539062 263.230469 153.0625 C 262.710938 153.585938 262.140625 154.050781 261.527344 154.460938 C 260.914062 154.871094 260.265625 155.21875 259.582031 155.5 C 258.898438 155.785156 258.195312 155.996094 257.472656 156.140625 C 256.746094 156.285156 256.015625 156.359375 255.277344 156.359375 C 254.539062 156.359375 253.808594 156.285156 253.082031 156.140625 C 252.359375 155.996094 251.65625 155.785156 250.972656 155.5 C 250.289062 155.21875 249.640625 154.871094 249.027344 154.460938 C 248.414062 154.050781 247.84375 153.585938 247.320312 153.0625 C 246.800781 152.539062 246.332031 151.972656 245.921875 151.359375 C 245.511719 150.742188 245.167969 150.09375 244.882812 149.414062 C 244.601562 148.730469 244.386719 148.027344 244.242188 147.300781 C 244.097656 146.578125 244.027344 145.847656 244.027344 145.109375 C 244.027344 144.367188 244.097656 143.636719 244.242188 142.914062 C 244.386719 142.1875 244.601562 141.484375 244.882812 140.800781 C 245.167969 140.121094 245.511719 139.472656 245.921875 138.859375 C 246.332031 138.242188 246.800781 137.675781 247.320312 137.152344 C 247.84375 136.628906 248.414062 136.164062 249.027344 135.753906 C 249.640625 135.34375 250.289062 134.996094 250.972656 134.714844 C 251.65625 134.429688 252.359375 134.21875 253.082031 134.074219 C 253.808594 133.929688 254.539062 133.859375 255.277344 133.859375 C 256.015625 133.859375 256.746094 133.929688 257.472656 134.074219 C 258.195312 134.21875 258.898438 134.429688 259.582031 134.714844 C 260.265625 134.996094 260.914062 135.34375 261.527344 135.753906 C 262.140625 136.164062 262.710938 136.628906 263.230469 137.152344 C 263.753906 137.675781 264.222656 138.242188 264.632812 138.859375 C 265.042969 139.472656 265.386719 140.121094 265.671875 140.800781 C 265.953125 141.484375 266.167969 142.1875 266.3125 142.914062 C 266.457031 143.636719 266.527344 144.367188 266.527344 145.109375 Z M 266.527344 145.109375 " fill-opacity="1" fill-rule="nonzero"/></g><g fill="#a4dcf2" fill-opacity="1"><g transform="translate(79.786922, 341.530257)"><g><path d="M 3.824219 0 L 5.175781 0 L 8.65625 -14.195312 L 8.675781 -14.195312 L 12.175781 0 L 13.53125 0 L 17.117188 -15.054688 L 16.214844 -15.054688 L 12.863281 -0.902344 L 12.84375 -0.902344 L 9.34375 -15.054688 L 7.988281 -15.054688 L 4.53125 -0.902344 L 4.488281 -0.902344 L 1.117188 -15.054688 L 0.214844 -15.054688 Z M 3.824219 0 "/></g></g></g><g fill="#a4dcf2" fill-opacity="1"><g transform="translate(103.559869, 341.530257)"><g><path d="M 1.289062 0 L 9.683594 0 L 9.683594 -0.835938 L 2.167969 -0.835938 L 2.167969 -7.429688 L 8.613281 -7.429688 L 8.613281 -8.246094 L 2.167969 -8.246094 L 2.167969 -14.21875 L 9.472656 -14.21875 L 9.472656 -15.054688 L 1.289062 -15.054688 Z M 1.289062 0 "/></g></g></g><g fill="#a4dcf2" fill-opacity="1"><g transform="translate(120.225027, 341.530257)"><g><path d="M 0.214844 0 L 1.136719 0 L 2.40625 -3.910156 L 9.085938 -3.910156 L 10.351562 0 L 11.273438 0 L 6.335938 -15.054688 L 5.152344 -15.054688 Z M 2.664062 -4.746094 L 5.734375 -14.195312 L 5.777344 -14.195312 L 8.828125 -4.746094 Z M 2.664062 -4.746094 "/></g></g></g><g fill="#a4dcf2" fill-opacity="1"><g transform="translate(138.157136, 341.530257)"><g><path d="M 4.53125 0 L 5.433594 0 L 5.433594 -14.21875 L 9.75 -14.21875 L 9.75 -15.054688 L 0.214844 -15.054688 L 0.214844 -14.21875 L 4.53125 -14.21875 Z M 4.53125 0 "/></g></g></g><g fill="#a4dcf2" fill-opacity="1"><g transform="translate(154.564612, 341.530257)"><g><path d="M 1.289062 0 L 2.167969 0 L 2.167969 -7.429688 L 9.597656 -7.429688 L 9.597656 0 L 10.480469 0 L 10.480469 -15.054688 L 9.597656 -15.054688 L 9.597656 -8.269531 L 2.167969 -8.269531 L 2.167969 -15.054688 L 1.289062 -15.054688 Z M 1.289062 0 "/></g></g></g><g fill="#a4dcf2" fill-opacity="1"><g transform="translate(172.775877, 341.530257)"><g><path d="M 1.289062 0 L 9.683594 0 L 9.683594 -0.835938 L 2.167969 -0.835938 L 2.167969 -7.429688 L 8.613281 -7.429688 L 8.613281 -8.246094 L 2.167969 -8.246094 L 2.167969 -14.21875 L 9.472656 -14.21875 L 9.472656 -15.054688 L 1.289062 -15.054688 Z M 1.289062 0 "/></g></g></g><g fill="#a4dcf2" fill-opacity="1"><g transform="translate(189.441031, 341.530257)"><g><path d="M 10.308594 0.34375 C 10.886719 0.34375 11.53125 0.0625 12.003906 -0.707031 L 11.425781 -1.289062 C 11.125 -0.730469 10.738281 -0.492188 10.371094 -0.492188 C 9.921875 -0.492188 9.726562 -0.859375 9.597656 -1.523438 L 8.933594 -4.402344 C 8.699219 -5.519531 8.203125 -6.421875 7.34375 -6.871094 L 7.34375 -6.894531 C 9.558594 -7.214844 10.867188 -8.828125 10.867188 -10.910156 C 10.867188 -13.464844 9.105469 -15.054688 6.269531 -15.054688 L 1.289062 -15.054688 L 1.289062 0 L 2.167969 0 L 2.167969 -6.699219 L 5.5625 -6.699219 C 7 -6.699219 7.753906 -5.710938 8.03125 -4.359375 L 8.742188 -1.332031 C 8.957031 -0.34375 9.363281 0.34375 10.308594 0.34375 Z M 2.167969 -7.539062 L 2.167969 -14.21875 L 6.226562 -14.21875 C 8.546875 -14.21875 9.984375 -12.949219 9.984375 -10.867188 C 9.984375 -8.804688 8.546875 -7.539062 6.226562 -7.539062 Z M 2.167969 -7.539062 "/></g></g></g><g fill="#a4dcf2" fill-opacity="1"><g transform="translate(207.888502, 341.530257)"><g><path d="M 3.824219 0 L 5.175781 0 L 8.65625 -14.195312 L 8.675781 -14.195312 L 12.175781 0 L 13.53125 0 L 17.117188 -15.054688 L 16.214844 -15.054688 L 12.863281 -0.902344 L 12.84375 -0.902344 L 9.34375 -15.054688 L 7.988281 -15.054688 L 4.53125 -0.902344 L 4.488281 -0.902344 L 1.117188 -15.054688 L 0.214844 -15.054688 Z M 3.824219 0 "/></g></g></g><g fill="#a4dcf2" fill-opacity="1"><g transform="translate(231.661445, 341.530257)"><g><path d="M 1.289062 0 L 2.167969 0 L 2.167969 -7.429688 L 9.597656 -7.429688 L 9.597656 0 L 10.480469 0 L 10.480469 -15.054688 L 9.597656 -15.054688 L 9.597656 -8.269531 L 2.167969 -8.269531 L 2.167969 -15.054688 L 1.289062 -15.054688 Z M 1.289062 0 "/></g></g></g><g fill="#a4dcf2" fill-opacity="1"><g transform="translate(249.872711, 341.530257)"><g><path d="M 1.289062 0 L 9.683594 0 L 9.683594 -0.835938 L 2.167969 -0.835938 L 2.167969 -7.429688 L 8.613281 -7.429688 L 8.613281 -8.246094 L 2.167969 -8.246094 L 2.167969 -14.21875 L 9.472656 -14.21875 L 9.472656 -15.054688 L 1.289062 -15.054688 Z M 1.289062 0 "/></g></g></g><g fill="#a4dcf2" fill-opacity="1"><g transform="translate(266.537865, 341.530257)"><g><path d="M 10.308594 0.34375 C 10.886719 0.34375 11.53125 0.0625 12.003906 -0.707031 L 11.425781 -1.289062 C 11.125 -0.730469 10.738281 -0.492188 10.371094 -0.492188 C 9.921875 -0.492188 9.726562 -0.859375 9.597656 -1.523438 L 8.933594 -4.402344 C 8.699219 -5.519531 8.203125 -6.421875 7.34375 -6.871094 L 7.34375 -6.894531 C 9.558594 -7.214844 10.867188 -8.828125 10.867188 -10.910156 C 10.867188 -13.464844 9.105469 -15.054688 6.269531 -15.054688 L 1.289062 -15.054688 L 1.289062 0 L 2.167969 0 L 2.167969 -6.699219 L 5.5625 -6.699219 C 7 -6.699219 7.753906 -5.710938 8.03125 -4.359375 L 8.742188 -1.332031 C 8.957031 -0.34375 9.363281 0.34375 10.308594 0.34375 Z M 2.167969 -7.539062 L 2.167969 -14.21875 L 6.226562 -14.21875 C 8.546875 -14.21875 9.984375 -12.949219 9.984375 -10.867188 C 9.984375 -8.804688 8.546875 -7.539062 6.226562 -7.539062 Z M 2.167969 -7.539062 "/></g></g></g><g fill="#a4dcf2" fill-opacity="1"><g transform="translate(284.985336, 341.530257)"><g><path d="M 1.289062 0 L 9.683594 0 L 9.683594 -0.835938 L 2.167969 -0.835938 L 2.167969 -7.429688 L 8.613281 -7.429688 L 8.613281 -8.246094 L 2.167969 -8.246094 L 2.167969 -14.21875 L 9.472656 -14.21875 L 9.472656 -15.054688 L 1.289062 -15.054688 Z M 1.289062 0 "/></g></g></g></svg>