<svg width="124" height="49" viewBox="0 0 124 49" fill="none" xmlns="http://www.w3.org/2000/svg">
<mask id="mask0_1_109" style="mask-type:luminance" maskUnits="userSpaceOnUse" x="1" y="2" width="31" height="30">
<path d="M1.92276 2.10828H31.0462V31.2317H1.92276V2.10828Z" fill="white"/>
</mask>
<g mask="url(#mask0_1_109)">
<path d="M31.0462 16.67C31.0462 16.9083 31.0404 17.1466 31.0288 17.3849C31.0172 17.6227 30.9997 17.8605 30.9765 18.0973C30.9527 18.3346 30.9237 18.571 30.8888 18.8068C30.8539 19.0427 30.8133 19.2771 30.7668 19.5111C30.7203 19.7445 30.668 19.977 30.6098 20.2085C30.5522 20.4395 30.4888 20.6691 30.4195 20.8972C30.3502 21.1253 30.2757 21.3515 30.1953 21.5757C30.1149 21.8005 30.0291 22.0223 29.9381 22.2427C29.8465 22.463 29.7502 22.6805 29.6485 22.896C29.5463 23.1115 29.4392 23.3242 29.3269 23.5344C29.2145 23.7445 29.0973 23.9518 28.9748 24.1562C28.8522 24.3606 28.7248 24.5621 28.5921 24.7602C28.4599 24.9583 28.3229 25.153 28.1809 25.3448C28.0386 25.5361 27.8923 25.724 27.7412 25.908C27.5901 26.0921 27.4341 26.2727 27.2743 26.449C27.114 26.6258 26.9498 26.7982 26.7812 26.9668C26.6127 27.1353 26.4403 27.2995 26.2635 27.4598C26.0872 27.6196 25.9066 27.7751 25.7225 27.9267C25.5385 28.0778 25.3506 28.2241 25.1592 28.3665C24.9674 28.5084 24.7728 28.6454 24.5747 28.7777C24.3766 28.9104 24.1751 29.0377 23.9707 29.1603C23.7663 29.2828 23.559 29.4 23.3488 29.5124C23.1386 29.6247 22.926 29.7318 22.7105 29.834C22.495 29.9357 22.2775 30.0321 22.0571 30.1236C21.8368 30.2147 21.6149 30.3004 21.3902 30.3808C21.166 30.4612 20.9398 30.5358 20.7117 30.605C20.4836 30.6743 20.254 30.7377 20.023 30.7954C19.7915 30.8535 19.5595 30.9058 19.3255 30.9523C19.0916 30.9988 18.8572 31.0395 18.6213 31.0743C18.3855 31.1092 18.1491 31.1383 17.9118 31.162C17.675 31.1852 17.4372 31.2027 17.1994 31.2143C16.9611 31.2259 16.7228 31.2317 16.4845 31.2317C16.2462 31.2317 16.0079 31.2259 15.7701 31.2143C15.5323 31.2027 15.2945 31.1852 15.0572 31.162C14.8203 31.1383 14.5835 31.1092 14.3481 31.0743C14.1123 31.0395 13.8774 30.9988 13.6439 30.9523C13.41 30.9058 13.1775 30.8535 12.9465 30.7954C12.7155 30.7377 12.4854 30.6743 12.2578 30.605C12.0297 30.5358 11.8035 30.4612 11.5788 30.3808C11.3545 30.3004 11.1322 30.2147 10.9123 30.1236C10.692 30.0321 10.474 29.9357 10.2585 29.834C10.0434 29.7318 9.83034 29.6247 9.62014 29.5124C9.40995 29.4 9.20266 29.2828 8.99827 29.1603C8.79389 29.0377 8.59289 28.9104 8.39432 28.7777C8.19623 28.6454 8.00153 28.5084 7.81022 28.3665C7.61891 28.2241 7.43099 28.0778 7.24695 27.9267C7.06242 27.7751 6.88225 27.6196 6.70547 27.4598C6.52918 27.2995 6.35628 27.1353 6.18773 26.9668C6.01918 26.7982 5.855 26.6258 5.69517 26.449C5.53486 26.2727 5.37939 26.0921 5.22828 25.908C5.07717 25.724 4.93042 25.5361 4.78851 25.3448C4.64661 25.153 4.50954 24.9583 4.37684 24.7602C4.24462 24.5621 4.11724 24.3606 3.9947 24.1562C3.87217 23.9518 3.75448 23.7445 3.64212 23.5344C3.52975 23.3242 3.42272 23.1115 3.32101 22.896C3.2193 22.6805 3.12243 22.463 3.03138 22.2427C2.94033 22.0223 2.8546 21.8 2.7742 21.5757C2.69381 21.3515 2.61922 21.1253 2.54996 20.8972C2.4807 20.6691 2.41726 20.4395 2.35914 20.2085C2.3015 19.977 2.2492 19.7445 2.2027 19.5111C2.1562 19.2771 2.11552 19.0427 2.08065 18.8068C2.04529 18.571 2.01623 18.3346 1.99299 18.0973C1.96974 17.8605 1.9523 17.6227 1.9402 17.3849C1.92857 17.1466 1.92276 16.9083 1.92276 16.67C1.92276 16.4317 1.92857 16.1934 1.9402 15.9556C1.9523 15.7178 1.96974 15.48 1.99299 15.2427C2.01623 15.0059 2.04529 14.769 2.08065 14.5336C2.11552 14.2978 2.1562 14.0629 2.2027 13.8294C2.2492 13.5955 2.3015 13.363 2.35914 13.132C2.41726 12.9005 2.4807 12.6709 2.54996 12.4433C2.61922 12.2152 2.69381 11.989 2.7742 11.7643C2.8546 11.54 2.94033 11.3177 3.03138 11.0974C3.12243 10.8775 3.2193 10.6595 3.32101 10.444C3.42272 10.229 3.52975 10.0159 3.64212 9.80566C3.75448 9.59546 3.87217 9.38817 3.9947 9.18379C4.11724 8.9794 4.24462 8.77841 4.37684 8.57983C4.50954 8.38174 4.64661 8.18705 4.78851 7.99574C4.93042 7.80443 5.07717 7.61651 5.22828 7.43247C5.37939 7.24794 5.53486 7.06777 5.69517 6.89099C5.855 6.7147 6.01918 6.54179 6.18773 6.37325C6.35628 6.2047 6.52918 6.04051 6.70547 5.88069C6.88225 5.72038 7.06242 5.56491 7.24695 5.4138C7.43099 5.26269 7.61891 5.11594 7.81022 4.97403C8.00153 4.83212 8.19623 4.69506 8.39432 4.56235C8.59289 4.43013 8.79389 4.30275 8.99827 4.18022C9.20266 4.05769 9.40995 3.94 9.62014 3.82763C9.83034 3.71527 10.0434 3.60823 10.2585 3.50652C10.474 3.40433 10.692 3.30795 10.9123 3.2169C11.1322 3.12584 11.3545 3.03963 11.5788 2.95972C11.8035 2.87932 12.0297 2.80474 12.2578 2.73548C12.4854 2.66622 12.7155 2.60277 12.9465 2.54465C13.1775 2.48702 13.41 2.43471 13.6439 2.38822C13.8774 2.34172 14.1123 2.30104 14.3481 2.26617C14.5835 2.23081 14.8203 2.20175 15.0572 2.1785C15.2945 2.15526 15.5323 2.13782 15.7701 2.12571C16.0079 2.11409 16.2462 2.10828 16.4845 2.10828C16.7228 2.10828 16.9611 2.11409 17.1994 2.12571C17.4372 2.13782 17.675 2.15526 17.9118 2.1785C18.1491 2.20175 18.3855 2.23081 18.6213 2.26617C18.8572 2.30104 19.0916 2.34172 19.3255 2.38822C19.5595 2.43471 19.7915 2.48702 20.023 2.54465C20.254 2.60277 20.4836 2.66622 20.7117 2.73548C20.9398 2.80474 21.166 2.87932 21.3902 2.95972C21.6149 3.03963 21.8368 3.12584 22.0571 3.2169C22.2775 3.30795 22.495 3.40433 22.7105 3.50652C22.926 3.60823 23.1386 3.71527 23.3488 3.82763C23.559 3.94 23.7663 4.05769 23.9707 4.18022C24.1751 4.30275 24.3766 4.43013 24.5747 4.56235C24.7728 4.69506 24.9674 4.83212 25.1592 4.97403C25.3506 5.11594 25.5385 5.26269 25.7225 5.4138C25.9066 5.56491 26.0872 5.72038 26.2635 5.88069C26.4403 6.04051 26.6127 6.2047 26.7812 6.37325C26.9498 6.54179 27.114 6.7147 27.2743 6.89099C27.4341 7.06777 27.5901 7.24794 27.7412 7.43247C27.8923 7.61651 28.0386 7.80443 28.1809 7.99574C28.3229 8.18705 28.4599 8.38174 28.5921 8.57983C28.7248 8.77841 28.8522 8.9794 28.9748 9.18379C29.0973 9.38817 29.2145 9.59546 29.3269 9.80566C29.4392 10.0159 29.5463 10.229 29.6485 10.444C29.7502 10.6595 29.8465 10.8775 29.9381 11.0974C30.0291 11.3177 30.1149 11.54 30.1953 11.7643C30.2757 11.989 30.3502 12.2152 30.4195 12.4433C30.4888 12.6709 30.5522 12.9005 30.6098 13.132C30.668 13.363 30.7203 13.5955 30.7668 13.8294C30.8133 14.0629 30.8539 14.2978 30.8888 14.5336C30.9237 14.769 30.9527 15.0059 30.9765 15.2427C30.9997 15.48 31.0172 15.7178 31.0288 15.9556C31.0404 16.1934 31.0462 16.4317 31.0462 16.67Z" fill="white"/>
</g>
<path fill-rule="evenodd" clip-rule="evenodd" d="M6.19791 20.0055H12.9199V27.1552H20.0787V20.4419L19.6128 19.976C15.5347 15.9033 16.5567 16.9243 12.9199 13.2923L10.4377 15.7711V14.723H8.24321V17.9627L6.19888 20.0051L6.19791 20.0055ZM17.6459 22.4558H15.1521V24.9462H17.6459V22.4558Z" fill="#A4DCF2"/>
<path fill-rule="evenodd" clip-rule="evenodd" d="M12.4723 12.8559H5.76105V19.559L7.51188 17.8106V13.9345H10.8615V14.4649L12.4728 12.8555L12.4723 12.8559ZM20.0787 5.70633H12.9199V12.4094C16.2937 15.7788 16.8753 16.3596 20.5262 20.0056H27.2375V12.8559H20.0787V5.70633Z" fill="#FFB82F"/>
<mask id="mask1_1_109" style="mask-type:luminance" maskUnits="userSpaceOnUse" x="0" y="0" width="33" height="40">
<path d="M0 0H33V39.8091H0V0Z" fill="white"/>
</mask>
<g mask="url(#mask1_1_109)">
<path fill-rule="evenodd" clip-rule="evenodd" d="M16.5 39.8091L28.1805 28.1437C34.6055 21.7268 34.6055 11.2286 28.181 4.81226C21.7559 -1.60457 11.2441 -1.60457 4.81904 4.81226C-1.60553 11.2286 -1.60553 21.7268 4.82001 28.1437L16.5 39.8091ZM16.5 2.85025C8.96439 2.85025 2.85559 8.9513 2.85559 16.4777C2.85559 24.0037 8.96439 30.1042 16.5 30.1042C24.0356 30.1042 30.1444 24.0037 30.1444 16.4777C30.1444 8.9513 24.0356 2.85025 16.5 2.85025Z" fill="#A4DCF2"/>
</g>
<mask id="mask2_1_109" style="mask-type:luminance" maskUnits="userSpaceOnUse" x="4" y="4" width="25" height="25">
<path d="M4.51877 4.23494H28.4042V28.1204H4.51877V4.23494Z" fill="white"/>
</mask>
<g mask="url(#mask2_1_109)">
<path d="M28.4042 16.1774C28.4042 16.3731 28.3994 16.5683 28.3902 16.7635C28.3805 16.9587 28.366 17.1538 28.3471 17.3481C28.3277 17.5428 28.304 17.7365 28.2749 17.9297C28.2464 18.1235 28.2129 18.3157 28.1752 18.5075C28.1369 18.6993 28.0938 18.8897 28.0463 19.0795C27.9989 19.2689 27.947 19.4573 27.8904 19.6442C27.8332 19.8312 27.7722 20.0167 27.7063 20.2007C27.6405 20.3848 27.5702 20.5674 27.4952 20.748C27.4206 20.9282 27.3412 21.1069 27.2578 21.2837C27.1741 21.4605 27.0864 21.6348 26.9944 21.8072C26.9019 21.9797 26.806 22.1497 26.7052 22.3172C26.605 22.4848 26.5004 22.65 26.3919 22.8127C26.2829 22.9749 26.1705 23.1348 26.0543 23.2917C25.9376 23.4486 25.8175 23.6026 25.6935 23.7537C25.5695 23.9048 25.4421 24.0531 25.3109 24.1979C25.1796 24.3427 25.0445 24.4841 24.9064 24.6221C24.7684 24.7607 24.627 24.8953 24.4822 25.0265C24.3369 25.1578 24.1892 25.2852 24.0381 25.4092C23.8869 25.5332 23.7329 25.6537 23.576 25.77C23.4191 25.8862 23.2593 25.9991 23.0965 26.1076C22.9343 26.2161 22.7691 26.3207 22.6015 26.4209C22.434 26.5217 22.264 26.618 22.0915 26.7101C21.9191 26.8021 21.7448 26.8902 21.568 26.9735C21.3912 27.0573 21.2125 27.1363 21.0318 27.2113C20.8512 27.2859 20.6691 27.3562 20.485 27.422C20.301 27.4879 20.1155 27.5494 19.9286 27.6061C19.7416 27.6627 19.5532 27.715 19.3633 27.7625C19.174 27.81 18.9831 27.8526 18.7914 27.8908C18.6 27.9291 18.4073 27.9625 18.214 27.9911C18.0208 28.0197 17.8266 28.0434 17.6324 28.0628C17.4377 28.0817 17.243 28.0962 17.0478 28.1059C16.8526 28.1156 16.6569 28.1204 16.4617 28.1204C16.2661 28.1204 16.0709 28.1156 15.8757 28.1059C15.6805 28.0962 15.4858 28.0817 15.2911 28.0628C15.0964 28.0434 14.9027 28.0197 14.7095 27.9911C14.5162 27.9625 14.3235 27.9291 14.1317 27.8908C13.9399 27.8526 13.7495 27.81 13.5597 27.7625C13.3703 27.715 13.1819 27.6627 12.9949 27.6061C12.808 27.5494 12.6225 27.4879 12.4385 27.422C12.2544 27.3562 12.0718 27.2859 11.8912 27.2113C11.711 27.1363 11.5323 27.0573 11.3555 26.9735C11.1787 26.8902 11.0044 26.8021 10.832 26.7101C10.6595 26.618 10.4895 26.5217 10.322 26.4209C10.1544 26.3207 9.98922 26.2161 9.82649 26.1076C9.66424 25.9991 9.50441 25.8862 9.34749 25.77C9.19057 25.6537 9.03656 25.5332 8.88545 25.4092C8.73434 25.2852 8.58613 25.1578 8.44132 25.0265C8.29651 24.8953 8.15508 24.7607 8.01705 24.6221C7.87853 24.4841 7.74389 24.3427 7.61264 24.1979C7.48139 24.0531 7.35401 23.9048 7.23002 23.7537C7.10603 23.6026 6.98544 23.4486 6.8692 23.2917C6.75296 23.1348 6.64011 22.9749 6.53162 22.8127C6.42314 22.65 6.31852 22.4848 6.21827 22.3172C6.11753 22.1497 6.02115 21.9797 5.92912 21.8072C5.8371 21.6348 5.74895 21.4605 5.66565 21.2837C5.58186 21.1069 5.50292 20.9282 5.42785 20.748C5.35326 20.5674 5.28303 20.3848 5.21717 20.2007C5.1513 20.0167 5.08979 19.8312 5.03312 19.6442C4.97646 19.4573 4.92415 19.2689 4.87668 19.0795C4.82922 18.8897 4.7866 18.6993 4.74834 18.5075C4.71008 18.3157 4.67666 18.1235 4.64808 17.9297C4.61951 17.7365 4.59578 17.5428 4.5764 17.3481C4.55751 17.1538 4.54298 16.9587 4.5333 16.7635C4.52361 16.5683 4.51877 16.3731 4.51877 16.1774C4.51877 15.9823 4.52361 15.7866 4.5333 15.5914C4.54298 15.3962 4.55751 15.2015 4.5764 15.0068C4.59578 14.8126 4.61951 14.6184 4.64808 14.4251C4.67666 14.2319 4.71008 14.0391 4.74834 13.8478C4.7866 13.656 4.82922 13.4652 4.87668 13.2758C4.92415 13.086 4.97646 12.8976 5.03312 12.7106C5.08979 12.5237 5.1513 12.3382 5.21717 12.1541C5.28303 11.9701 5.35326 11.788 5.42785 11.6073C5.50292 11.4267 5.58186 11.248 5.66565 11.0712C5.74895 10.8944 5.8371 10.7201 5.92912 10.5476C6.02115 10.3752 6.11753 10.2052 6.21827 10.0376C6.31852 9.87007 6.42314 9.70491 6.53162 9.54266C6.64011 9.37993 6.75296 9.2201 6.8692 9.06318C6.98544 8.90626 7.10603 8.75224 7.23002 8.60113C7.35401 8.45002 7.48139 8.3023 7.61264 8.15749C7.74389 8.01268 7.87853 7.87077 8.01705 7.73274C8.15508 7.59471 8.29651 7.45958 8.44132 7.32833C8.58613 7.19707 8.73434 7.0697 8.88545 6.94571C9.03656 6.82172 9.19057 6.70161 9.34749 6.58489C9.50441 6.46865 9.66424 6.35629 9.82649 6.24731C9.98922 6.13882 10.1544 6.03421 10.322 5.93395C10.4895 5.83321 10.6595 5.73732 10.832 5.64481C11.0044 5.55279 11.1787 5.46513 11.3555 5.38134C11.5323 5.29803 11.711 5.2186 11.8912 5.14402C12.0718 5.06895 12.2544 4.99872 12.4385 4.93285C12.6225 4.86698 12.808 4.80596 12.9949 4.74881C13.1819 4.69214 13.3703 4.64032 13.5597 4.59286C13.7495 4.54539 13.9399 4.50229 14.1317 4.46403C14.3235 4.42625 14.5162 4.39283 14.7095 4.36425C14.9027 4.33519 15.0964 4.31146 15.2911 4.29209C15.4858 4.2732 15.6805 4.25867 15.8757 4.24899C16.0709 4.23978 16.2661 4.23494 16.4617 4.23494C16.6569 4.23494 16.8526 4.23978 17.0478 4.24899C17.243 4.25867 17.4377 4.2732 17.6324 4.29209C17.8266 4.31146 18.0208 4.33519 18.214 4.36425C18.4073 4.39283 18.6 4.42625 18.7914 4.46403C18.9831 4.50229 19.174 4.54539 19.3633 4.59286C19.5532 4.64032 19.7416 4.69214 19.9286 4.74881C20.1155 4.80596 20.301 4.86698 20.485 4.93285C20.6691 4.99872 20.8512 5.06895 21.0318 5.14402C21.2125 5.2186 21.3912 5.29803 21.568 5.38134C21.7448 5.46513 21.9191 5.55279 22.0915 5.64481C22.264 5.73732 22.434 5.83321 22.6015 5.93395C22.7691 6.03421 22.9343 6.13882 23.0965 6.24731C23.2593 6.35629 23.4191 6.46865 23.576 6.58489C23.7329 6.70161 23.8869 6.82172 24.0381 6.94571C24.1892 7.0697 24.3369 7.19707 24.4822 7.32833C24.627 7.45958 24.7684 7.59471 24.9064 7.73274C25.0445 7.87077 25.1796 8.01268 25.3109 8.15749C25.4421 8.3023 25.5695 8.45002 25.6935 8.60113C25.8175 8.75224 25.9376 8.90626 26.0543 9.06318C26.1705 9.2201 26.2829 9.37993 26.3919 9.54266C26.5004 9.70491 26.605 9.87007 26.7052 10.0376C26.806 10.2052 26.9019 10.3752 26.9944 10.5476C27.0864 10.7201 27.1741 10.8944 27.2578 11.0712C27.3412 11.248 27.4206 11.4267 27.4952 11.6073C27.5702 11.788 27.6405 11.9701 27.7063 12.1541C27.7722 12.3382 27.8332 12.5237 27.8904 12.7106C27.947 12.8976 27.9989 13.086 28.0463 13.2758C28.0938 13.4652 28.1369 13.656 28.1752 13.8478C28.2129 14.0391 28.2464 14.2319 28.2749 14.4251C28.304 14.6184 28.3277 14.8126 28.3471 15.0068C28.366 15.2015 28.3805 15.3962 28.3902 15.5914C28.3994 15.7866 28.4042 15.9823 28.4042 16.1774Z" fill="white"/>
</g>
<mask id="mask3_1_109" style="mask-type:luminance" maskUnits="userSpaceOnUse" x="4" y="7" width="25" height="17">
<path d="M4.51877 7.44505H28.195V23.0699H4.51877V7.44505Z" fill="white"/>
</mask>
<g mask="url(#mask3_1_109)">
<path d="M24.829 20.5993L19.7029 20.5926C19.4016 19.5043 18.5836 19.0437 17.566 18.7676C17.3006 17.5461 16.3189 16.6763 15.0514 16.6574C15.0281 16.6569 15.0044 16.6574 14.9812 16.6593C14.7797 16.6778 14.8979 16.6647 14.6271 16.7029C13.981 15.8229 13.056 15.1526 11.9968 14.8799C9.74464 14.3002 7.33899 15.604 6.70792 17.8653C6.26379 18.029 5.87778 18.2833 5.53972 18.618C5.44867 18.708 5.39055 18.8262 5.31597 18.9303C4.77062 18.2465 4.56962 17.4183 4.52603 16.5615C4.57301 14.7579 5.63417 13.3049 7.3419 12.7261C7.48671 12.6767 7.64702 12.6569 7.79135 12.6341C7.93568 12.6114 8.77066 12.3842 10.7685 12.9736C9.52427 12.1977 7.93859 12.114 7.95312 12.0602C8.83023 8.75564 12.1677 6.93603 15.5149 7.64218C17.4319 8.04659 18.8635 9.39737 19.6811 10.5651C19.7014 10.5946 18.5952 11.3148 18.1642 12.1827C18.848 11.4417 19.653 11.1075 19.944 10.9918C20.2351 10.876 20.7335 10.7772 21.1394 10.7515C22.9561 10.7515 24.4284 12.2273 24.4284 14.0474C24.4284 14.0474 24.4192 14.2392 24.4139 14.3365C24.409 14.4329 24.3267 14.9463 24.0967 15.7958C24.7035 15.0131 24.7389 14.3322 24.767 14.3288C25.6601 14.2208 27.3043 14.9473 27.8749 16.1217C28.0333 16.4477 28.0967 16.779 28.1703 17.1311V17.1364L28.1878 17.1383C28.1766 17.243 28.1815 17.3481 28.1878 17.4527C28.1878 19.1904 26.6839 20.5993 24.829 20.5993ZM10.9603 23.0689C10.8828 23.0675 10.8053 23.0684 10.7278 23.0607L7.66688 23.0563C6.37325 23.0563 5.32468 22.0053 5.32468 20.7093C5.35181 19.6549 5.97223 18.8054 6.97042 18.4668C7.05518 18.4383 7.14865 18.4267 7.23293 18.4136C7.3172 18.4 7.8054 18.2673 8.97311 18.6121C8.24565 18.1583 7.31914 18.1094 7.32737 18.0779C7.84027 16.1464 9.79113 15.0829 11.7473 15.496C12.8681 15.7323 13.7045 16.5218 14.1825 17.2042C14.1946 17.2216 13.548 17.6425 13.2957 18.1496C13.6953 17.7166 14.166 17.5214 14.3365 17.4536C14.5065 17.3858 14.7976 17.3282 15.0349 17.3132C16.0966 17.3132 16.9577 18.1758 16.9577 19.2398C16.9577 19.2398 16.9519 19.3517 16.949 19.4084C16.9461 19.465 16.8981 19.7648 16.7635 20.2613C17.118 19.8041 17.1388 19.406 17.1553 19.404C17.6774 19.3406 18.6383 19.7653 18.972 20.4521C19.0645 20.6424 19.1013 20.8362 19.1444 21.042L19.1546 21.0464C19.1483 21.1074 19.1512 21.1689 19.1546 21.2299C19.1546 22.2456 18.276 23.0689 17.1916 23.0689L11.1884 23.0612L11.1574 23.0646L10.9603 23.0689Z" fill="#A4DCF2"/>
</g>
<mask id="mask4_1_109" style="mask-type:luminance" maskUnits="userSpaceOnUse" x="22" y="20" width="7" height="3">
<path d="M22.9895 20.7117H28.9409V22.7071H22.9895V20.7117Z" fill="white"/>
</mask>
<g mask="url(#mask4_1_109)">
<path d="M28.9205 21.7162C28.9205 21.7486 28.9157 21.7806 28.9065 21.8131C28.8968 21.8455 28.8827 21.8775 28.8634 21.9094C28.8445 21.9414 28.8212 21.9724 28.7931 22.0039C28.7646 22.0349 28.7321 22.0654 28.6948 22.0954C28.658 22.1254 28.6164 22.1545 28.5708 22.1831C28.5248 22.2117 28.4749 22.2397 28.4212 22.2664C28.3674 22.2935 28.3093 22.3197 28.2478 22.3448C28.1863 22.37 28.1214 22.3938 28.0526 22.417C27.9838 22.4398 27.9122 22.4616 27.8371 22.4819C27.762 22.5027 27.684 22.5221 27.6036 22.54C27.5228 22.5579 27.4399 22.5749 27.3542 22.5899C27.2685 22.6054 27.1808 22.6195 27.0912 22.6316C27.0016 22.6442 26.9101 22.6548 26.8176 22.6645C26.7246 22.6737 26.6306 22.6819 26.5352 22.6882C26.4403 22.6945 26.3444 22.6994 26.2475 22.7023C26.1512 22.7057 26.0543 22.7071 25.9574 22.7071C25.8601 22.7071 25.7632 22.7057 25.6668 22.7023C25.57 22.6994 25.4746 22.6945 25.3791 22.6882C25.2837 22.6819 25.1898 22.6737 25.0973 22.6645C25.0043 22.6548 24.9127 22.6442 24.8231 22.6316C24.7335 22.6195 24.6459 22.6054 24.5601 22.5899C24.4749 22.5749 24.3916 22.5579 24.3107 22.54C24.2303 22.5221 24.1523 22.5027 24.0773 22.4819C24.0022 22.4616 23.9305 22.4398 23.8617 22.417C23.7935 22.3938 23.7281 22.37 23.6666 22.3448C23.6051 22.3197 23.5474 22.2935 23.4932 22.2664C23.4394 22.2397 23.3895 22.2117 23.344 22.1831C23.298 22.1545 23.2568 22.1254 23.2195 22.0954C23.1822 22.0654 23.1498 22.0349 23.1217 22.0039C23.0931 21.9724 23.0699 21.9414 23.051 21.9094C23.0321 21.8775 23.0176 21.8455 23.0084 21.8131C22.9987 21.7806 22.9938 21.7486 22.9938 21.7162C22.9938 21.6837 22.9987 21.6513 23.0084 21.6188C23.0176 21.5864 23.0321 21.5544 23.051 21.5225C23.0699 21.491 23.0931 21.4595 23.1217 21.4285C23.1498 21.397 23.1822 21.3665 23.2195 21.337C23.2568 21.3069 23.298 21.2774 23.344 21.2488C23.3895 21.2202 23.4394 21.1922 23.4932 21.1655C23.5474 21.1384 23.6051 21.1122 23.6666 21.0871C23.7281 21.0624 23.7935 21.0381 23.8617 21.0154C23.9305 20.9921 24.0022 20.9703 24.0773 20.95C24.1523 20.9292 24.2303 20.9098 24.3107 20.8919C24.3916 20.8739 24.4749 20.8575 24.5601 20.842C24.6459 20.8265 24.7335 20.8129 24.8231 20.8003C24.9127 20.7877 25.0043 20.7771 25.0973 20.7674C25.1898 20.7582 25.2837 20.7504 25.3791 20.7442C25.4746 20.7379 25.57 20.733 25.6668 20.7296C25.7632 20.7267 25.8601 20.7248 25.9574 20.7248C26.0543 20.7248 26.1512 20.7267 26.2475 20.7296C26.3444 20.733 26.4403 20.7379 26.5352 20.7442C26.6306 20.7504 26.7246 20.7582 26.8176 20.7674C26.9101 20.7771 27.0016 20.7877 27.0912 20.8003C27.1808 20.8129 27.2685 20.8265 27.3542 20.842C27.4399 20.8575 27.5228 20.8739 27.6036 20.8919C27.684 20.9098 27.762 20.9292 27.8371 20.95C27.9122 20.9703 27.9838 20.9921 28.0526 21.0154C28.1214 21.0381 28.1863 21.0624 28.2478 21.0871C28.3093 21.1122 28.3674 21.1384 28.4212 21.1655C28.4749 21.1922 28.5248 21.2202 28.5708 21.2488C28.6164 21.2774 28.658 21.3069 28.6948 21.337C28.7321 21.3665 28.7646 21.397 28.7931 21.4285C28.8212 21.4595 28.8445 21.491 28.8634 21.5225C28.8827 21.5544 28.8968 21.5864 28.9065 21.6188C28.9157 21.6513 28.9205 21.6837 28.9205 21.7162Z" fill="white"/>
</g>
<path fill-rule="evenodd" clip-rule="evenodd" d="M27.8821 14.8683C26.819 13.8023 25.0953 13.8023 24.0327 14.8683C23.1149 15.7885 22.973 17.2304 23.6927 18.3128L25.9574 21.7181L28.2216 18.3128C28.9418 17.2304 28.7994 15.7885 27.8821 14.8683ZM25.9574 18.1661C26.7343 18.1661 27.3639 17.5345 27.3639 16.7552C27.3639 15.976 26.7343 15.3444 25.9574 15.3444C25.1806 15.3444 24.5504 15.976 24.5504 16.7552C24.5504 17.5345 25.1806 18.1661 25.9574 18.1661Z" fill="white"/>
<mask id="mask5_1_109" style="mask-type:luminance" maskUnits="userSpaceOnUse" x="24" y="15" width="4" height="4">
<path d="M24.3761 15.0771H27.5189V18.2198H24.3761V15.0771Z" fill="white"/>
</mask>
<g mask="url(#mask5_1_109)">
<path d="M27.5189 16.6482C27.5189 16.7514 27.5087 16.8536 27.4884 16.9548C27.4685 17.056 27.4385 17.1543 27.3993 17.2497C27.3595 17.3452 27.3111 17.4357 27.254 17.5214C27.1968 17.6072 27.1314 17.6866 27.0583 17.7597C26.9856 17.8324 26.9062 17.8978 26.8205 17.9549C26.7348 18.0121 26.6442 18.0605 26.5488 18.1002C26.4534 18.1394 26.3551 18.1695 26.2538 18.1898C26.1526 18.2097 26.0504 18.2198 25.9473 18.2198C25.8441 18.2198 25.7419 18.2097 25.6407 18.1898C25.5394 18.1695 25.4411 18.1394 25.3462 18.1002C25.2508 18.0605 25.1602 18.0121 25.0745 17.9549C24.9883 17.8978 24.9093 17.8324 24.8362 17.7597C24.7631 17.6866 24.6982 17.6072 24.6405 17.5214C24.5834 17.4357 24.535 17.3452 24.4957 17.2497C24.456 17.1543 24.4265 17.056 24.4061 16.9548C24.3858 16.8536 24.3761 16.7514 24.3761 16.6482C24.3761 16.545 24.3858 16.4429 24.4061 16.3416C24.4265 16.2404 24.456 16.1426 24.4957 16.0472C24.535 15.9517 24.5834 15.8612 24.6405 15.7755C24.6982 15.6897 24.7631 15.6103 24.8362 15.5372C24.9093 15.464 24.9883 15.3991 25.0745 15.342C25.1602 15.2843 25.2508 15.2359 25.3462 15.1967C25.4411 15.157 25.5394 15.1274 25.6407 15.1071C25.7419 15.0872 25.8441 15.0771 25.9473 15.0771C26.0504 15.0771 26.1526 15.0872 26.2538 15.1071C26.3551 15.1274 26.4534 15.157 26.5488 15.1967C26.6442 15.2359 26.7348 15.2843 26.8205 15.342C26.9062 15.3991 26.9856 15.464 27.0583 15.5372C27.1314 15.6103 27.1968 15.6897 27.254 15.7755C27.3111 15.8612 27.3595 15.9517 27.3993 16.0472C27.4385 16.1426 27.4685 16.2404 27.4884 16.3416C27.5087 16.4429 27.5189 16.545 27.5189 16.6482Z" fill="#FFCA70"/>
</g>
<mask id="mask6_1_109" style="mask-type:luminance" maskUnits="userSpaceOnUse" x="86" y="2" width="36" height="36">
<path d="M86.3306 2.55548H121.632V37.8566H86.3306V2.55548Z" fill="white"/>
</mask>
<g mask="url(#mask6_1_109)">
<path d="M121.632 20.2061C121.632 20.4949 121.625 20.7837 121.611 21.0726C121.597 21.3608 121.575 21.6491 121.547 21.9361C121.518 22.2238 121.483 22.5103 121.441 22.7962C121.399 23.0821 121.349 23.3662 121.293 23.6498C121.237 23.9327 121.173 24.2145 121.103 24.4951C121.033 24.7752 120.956 25.0534 120.872 25.3299C120.788 25.6064 120.698 25.8806 120.6 26.1524C120.503 26.4248 120.399 26.6937 120.289 26.9608C120.178 27.2279 120.061 27.4915 119.938 27.7527C119.814 28.014 119.684 28.2717 119.548 28.5265C119.412 28.7813 119.269 29.0325 119.121 29.2803C118.972 29.528 118.818 29.7722 118.657 30.0123C118.497 30.2524 118.331 30.4884 118.159 30.7209C117.986 30.9528 117.809 31.1806 117.626 31.4037C117.443 31.6267 117.253 31.8457 117.06 32.0594C116.865 32.2737 116.666 32.4827 116.462 32.687C116.258 32.8913 116.049 33.0903 115.835 33.2846C115.621 33.4783 115.402 33.6668 115.179 33.8505C114.956 34.0337 114.728 34.211 114.496 34.3836C114.264 34.5556 114.028 34.7217 113.787 34.882C113.547 35.0429 113.303 35.1973 113.055 35.3458C112.808 35.4943 112.556 35.6364 112.302 35.7726C112.047 35.9088 111.789 36.0385 111.528 36.1624C111.267 36.2857 111.003 36.4025 110.736 36.5134C110.469 36.6238 110.2 36.7277 109.928 36.8252C109.656 36.9226 109.382 37.013 109.105 37.097C108.829 37.1809 108.55 37.2578 108.27 37.3277C107.99 37.3981 107.708 37.4616 107.425 37.5179C107.141 37.5743 106.857 37.6236 106.571 37.6658C106.285 37.7081 105.999 37.7433 105.711 37.7721C105.424 37.8003 105.136 37.8214 104.848 37.8355C104.559 37.8496 104.27 37.8566 103.981 37.8566C103.692 37.8566 103.404 37.8496 103.115 37.8355C102.827 37.8214 102.539 37.8003 102.251 37.7721C101.964 37.7433 101.677 37.7081 101.392 37.6658C101.106 37.6236 100.821 37.5743 100.538 37.5179C100.255 37.4616 99.9728 37.3981 99.6927 37.3277C99.4127 37.2578 99.1338 37.1809 98.8579 37.097C98.5814 37.013 98.3073 36.9226 98.0349 36.8252C97.7631 36.7277 97.4936 36.6238 97.2271 36.5134C96.96 36.4025 96.6958 36.2857 96.4345 36.1624C96.1739 36.0385 95.9156 35.9088 95.6608 35.7726C95.406 35.6364 95.1547 35.4943 94.907 35.3458C94.6593 35.1973 94.4156 35.0429 94.1749 34.882C93.9348 34.7217 93.6988 34.5556 93.4669 34.3836C93.2351 34.211 93.0073 34.0337 92.7842 33.8505C92.5605 33.6668 92.3421 33.4783 92.1279 33.2846C91.9142 33.0903 91.7046 32.8913 91.5003 32.687C91.296 32.4827 91.097 32.2737 90.9032 32.0594C90.7089 31.8457 90.5205 31.6267 90.3373 31.4037C90.1542 31.1806 89.9763 30.9528 89.8043 30.7209C89.6323 30.4884 89.4661 30.2524 89.3053 30.0123C89.145 29.7722 88.9906 29.528 88.8421 29.2803C88.6935 29.0325 88.5509 28.7813 88.4147 28.5265C88.2785 28.2717 88.1488 28.014 88.0255 27.7527C87.9022 27.4915 87.7848 27.2279 87.6744 26.9608C87.564 26.6937 87.4601 26.4242 87.3627 26.1524C87.2652 25.8806 87.1748 25.6064 87.0909 25.3299C87.0069 25.0534 86.93 24.7752 86.8596 24.4951C86.7897 24.2145 86.7263 23.9327 86.6699 23.6498C86.6136 23.3662 86.5643 23.0821 86.522 22.7962C86.4792 22.5103 86.4439 22.2238 86.4158 21.9361C86.3876 21.6491 86.3664 21.3608 86.3518 21.0726C86.3377 20.7837 86.3306 20.4949 86.3306 20.2061C86.3306 19.9172 86.3377 19.6284 86.3518 19.3401C86.3664 19.0519 86.3876 18.7637 86.4158 18.476C86.4439 18.1889 86.4792 17.9018 86.522 17.6165C86.5643 17.3306 86.6136 17.0459 86.6699 16.7629C86.7263 16.4794 86.7897 16.1976 86.8596 15.9176C86.93 15.637 87.0069 15.3587 87.0909 15.0828C87.1748 14.8063 87.2652 14.5321 87.3627 14.2597C87.4601 13.9879 87.564 13.7184 87.6744 13.4513C87.7848 13.1848 87.9022 12.9206 88.0255 12.6594C88.1488 12.3987 88.2785 12.1404 88.4147 11.8856C88.5509 11.6309 88.6935 11.3796 88.8421 11.1319C88.9906 10.8841 89.145 10.6405 89.3053 10.3998C89.4661 10.1597 89.6323 9.92369 89.8043 9.6918C89.9763 9.45991 90.1542 9.23213 90.3373 9.00904C90.5205 8.78537 90.7089 8.56699 90.9032 8.35271C91.097 8.13902 91.296 7.92944 91.5003 7.72514C91.7046 7.52084 91.9142 7.32183 92.1279 7.1281C92.3421 6.93378 92.5605 6.74534 92.7842 6.56217C93.0073 6.37901 93.2351 6.20113 93.4669 6.02912C93.6988 5.85711 93.9348 5.69097 94.1749 5.53012C94.4156 5.36985 94.6593 5.21546 94.907 5.06693C95.1547 4.9184 95.406 4.77575 95.6608 4.63955C95.9156 4.50335 96.1739 4.37361 96.4345 4.25033C96.6958 4.12646 96.96 4.00963 97.2271 3.89926C97.4936 3.7889 97.7631 3.6844 98.0349 3.58753C98.3073 3.49008 98.5814 3.39967 98.8579 3.31573C99.1338 3.23178 99.4127 3.15487 99.6927 3.08442C99.9728 3.01456 100.255 2.95116 100.538 2.8948C100.821 2.83844 101.106 2.78913 101.392 2.74686C101.677 2.70401 101.964 2.66878 102.251 2.6406C102.539 2.61243 102.827 2.59129 103.115 2.57662C103.404 2.56253 103.692 2.55548 103.981 2.55548C104.27 2.55548 104.559 2.56253 104.848 2.57662C105.136 2.59129 105.424 2.61243 105.711 2.6406C105.999 2.66878 106.285 2.70401 106.571 2.74686C106.857 2.78913 107.141 2.83844 107.425 2.8948C107.708 2.95116 107.99 3.01456 108.27 3.08442C108.55 3.15487 108.829 3.23178 109.105 3.31573C109.382 3.39967 109.656 3.49008 109.928 3.58753C110.2 3.6844 110.469 3.7889 110.736 3.89926C111.003 4.00963 111.267 4.12646 111.528 4.25033C111.789 4.37361 112.047 4.50335 112.302 4.63955C112.556 4.77575 112.808 4.9184 113.055 5.06693C113.303 5.21546 113.547 5.36985 113.787 5.53012C114.028 5.69097 114.264 5.85711 114.496 6.02912C114.728 6.20113 114.956 6.37901 115.179 6.56217C115.402 6.74534 115.621 6.93378 115.835 7.1281C116.049 7.32183 116.258 7.52084 116.462 7.72514C116.666 7.92944 116.865 8.13902 117.06 8.35271C117.253 8.56699 117.443 8.78537 117.626 9.00904C117.809 9.23213 117.986 9.45991 118.159 9.6918C118.331 9.92369 118.497 10.1597 118.657 10.3998C118.818 10.6405 118.972 10.8841 119.121 11.1319C119.269 11.3796 119.412 11.6309 119.548 11.8856C119.684 12.1404 119.814 12.3987 119.938 12.6594C120.061 12.9206 120.178 13.1848 120.289 13.4513C120.399 13.7184 120.503 13.9879 120.6 14.2597C120.698 14.5321 120.788 14.8063 120.872 15.0828C120.956 15.3587 121.033 15.637 121.103 15.9176C121.173 16.1976 121.237 16.4794 121.293 16.7629C121.349 17.0459 121.399 17.3306 121.441 17.6165C121.483 17.9018 121.518 18.1889 121.547 18.476C121.575 18.7637 121.597 19.0519 121.611 19.3401C121.625 19.6284 121.632 19.9172 121.632 20.2061Z" fill="white"/>
</g>
<path fill-rule="evenodd" clip-rule="evenodd" d="M91.5126 24.2491H99.6604V32.9153H108.338V24.7781L107.773 24.2133C102.83 19.2767 104.069 20.5143 99.6604 16.1119L96.6517 19.1165V17.8461H93.9918V21.7729L91.5138 24.2486L91.5126 24.2491ZM105.389 27.2191H102.366V30.2378H105.389V27.2191Z" fill="#A4DCF2"/>
<path fill-rule="evenodd" clip-rule="evenodd" d="M99.118 15.583H90.9831V23.7079L93.1053 21.5886V16.8903H97.1654V17.5332L99.1186 15.5824L99.118 15.583ZM108.338 6.91676H99.6604V15.0417C103.75 19.1259 104.455 19.8298 108.88 24.2492H117.015V15.583H108.338V6.91676Z" fill="#FFB82F"/>
<mask id="mask7_1_109" style="mask-type:luminance" maskUnits="userSpaceOnUse" x="84" y="0" width="40" height="49">
<path d="M84 0H124V48.2535H84V0Z" fill="white"/>
</mask>
<g mask="url(#mask7_1_109)">
<path fill-rule="evenodd" clip-rule="evenodd" d="M104 48.2536L118.158 34.1136C125.946 26.3356 125.946 13.6105 118.159 5.83311C110.371 -1.94486 97.6291 -1.94486 89.8411 5.83311C82.0537 13.6105 82.0537 26.3356 89.8423 34.1136L104 48.2536ZM104 3.45493C94.8658 3.45493 87.4612 10.8501 87.4612 19.9731C87.4612 29.0954 94.8658 36.49 104 36.49C113.134 36.49 120.539 29.0954 120.539 19.9731C120.539 10.8501 113.134 3.45493 104 3.45493Z" fill="#A4DCF2"/>
</g>
<mask id="mask8_1_109" style="mask-type:luminance" maskUnits="userSpaceOnUse" x="89" y="5" width="30" height="30">
<path d="M89.4773 5.13326H118.429V34.0854H89.4773V5.13326Z" fill="white"/>
</mask>
<g mask="url(#mask8_1_109)">
<path d="M118.429 19.609C118.429 19.8462 118.424 20.0828 118.412 20.3194C118.401 20.5559 118.383 20.7925 118.36 21.0279C118.337 21.2639 118.308 21.4988 118.273 21.733C118.238 21.9678 118.198 22.2009 118.152 22.4334C118.105 22.6658 118.053 22.8966 117.996 23.1267C117.938 23.3562 117.875 23.5846 117.807 23.8112C117.737 24.0378 117.663 24.2626 117.583 24.4857C117.504 24.7088 117.418 24.9301 117.327 25.1491C117.237 25.3675 117.141 25.5841 117.04 25.7984C116.938 26.0127 116.832 26.224 116.72 26.433C116.608 26.642 116.492 26.8481 116.37 27.0512C116.248 27.2543 116.122 27.4545 115.99 27.6517C115.858 27.8484 115.722 28.0421 115.581 28.2324C115.439 28.4226 115.294 28.6092 115.144 28.7924C114.993 28.9756 114.839 29.1552 114.68 29.3307C114.521 29.5063 114.357 29.6777 114.19 29.845C114.022 30.0129 113.851 30.1761 113.675 30.3352C113.499 30.4943 113.32 30.6487 113.137 30.799C112.954 30.9493 112.767 31.0954 112.577 31.2363C112.387 31.3772 112.193 31.514 111.996 31.6455C111.799 31.777 111.599 31.9038 111.396 32.0254C111.193 32.1475 110.987 32.2643 110.778 32.3758C110.569 32.4874 110.357 32.5942 110.143 32.6952C109.929 32.7968 109.712 32.8924 109.493 32.9834C109.274 33.0738 109.053 33.159 108.83 33.2388C108.607 33.3186 108.382 33.3932 108.156 33.4619C107.929 33.5306 107.701 33.594 107.471 33.6515C107.241 33.709 107.01 33.7607 106.777 33.8071C106.546 33.8535 106.312 33.894 106.078 33.9286C105.843 33.9632 105.608 33.992 105.373 34.0155C105.137 34.0384 104.901 34.056 104.664 34.0677C104.427 34.0795 104.19 34.0854 103.954 34.0854C103.716 34.0854 103.48 34.0795 103.243 34.0677C103.007 34.056 102.771 34.0384 102.535 34.0155C102.299 33.992 102.064 33.9632 101.83 33.9286C101.595 33.894 101.362 33.8535 101.129 33.8071C100.897 33.7607 100.666 33.709 100.436 33.6515C100.206 33.594 99.9781 33.5306 99.7515 33.4619C99.5248 33.3932 99.3 33.3186 99.0769 33.2388C98.8538 33.159 98.6325 33.0738 98.4135 32.9834C98.1952 32.8924 97.9785 32.7968 97.7643 32.6952C97.55 32.5942 97.3386 32.4874 97.1296 32.3758C96.9206 32.2643 96.7146 32.1475 96.5115 32.0254C96.3083 31.9038 96.1082 31.777 95.9109 31.6455C95.7142 31.514 95.5205 31.3772 95.3303 31.2363C95.1401 31.0954 94.9534 30.9493 94.7702 30.799C94.5871 30.6487 94.4074 30.4943 94.2319 30.3352C94.0564 30.1761 93.885 30.0129 93.7176 29.845C93.5497 29.6777 93.3865 29.5063 93.2274 29.3307C93.0683 29.1552 92.914 28.9756 92.7637 28.7924C92.6134 28.6092 92.4672 28.4226 92.3263 28.2324C92.1854 28.0421 92.0486 27.8484 91.9171 27.6517C91.7856 27.4545 91.6588 27.2543 91.5373 27.0512C91.4152 26.8481 91.2984 26.642 91.1868 26.433C91.0753 26.224 90.9684 26.0127 90.8675 25.7984C90.7659 25.5841 90.6702 25.3675 90.5792 25.1491C90.4888 24.9301 90.4037 24.7088 90.3238 24.4857C90.244 24.2626 90.1694 24.0378 90.1008 23.8112C90.0321 23.5846 89.9687 23.3562 89.9111 23.1267C89.8536 22.8966 89.8019 22.6658 89.7556 22.4334C89.7092 22.2009 89.6687 21.9678 89.634 21.733C89.5994 21.4988 89.5706 21.2639 89.5472 21.0279C89.5243 20.7925 89.5066 20.5559 89.4949 20.3194C89.4832 20.0828 89.4773 19.8462 89.4773 19.609C89.4773 19.3724 89.4832 19.1353 89.4949 18.8987C89.5066 18.6621 89.5243 18.4261 89.5472 18.1901C89.5706 17.9547 89.5994 17.7193 89.634 17.485C89.6687 17.2508 89.7092 17.0171 89.7556 16.7852C89.8019 16.5528 89.8536 16.3215 89.9111 16.0919C89.9687 15.8618 90.0321 15.6334 90.1008 15.4068C90.1694 15.1802 90.244 14.9554 90.3238 14.7323C90.4037 14.5092 90.4888 14.2885 90.5792 14.0695C90.6702 13.8505 90.7659 13.6339 90.8675 13.4196C90.9684 13.2053 91.0753 12.994 91.1868 12.785C91.2984 12.576 91.4152 12.37 91.5373 12.1668C91.6588 11.9637 91.7856 11.7635 91.9171 11.5669C92.0486 11.3696 92.1854 11.1759 92.3263 10.9857C92.4672 10.7955 92.6134 10.6088 92.7637 10.4256C92.914 10.2424 93.0683 10.0634 93.2274 9.88786C93.3865 9.71233 93.5497 9.54032 93.7176 9.37301C93.885 9.2057 94.0564 9.04191 94.2319 8.88281C94.4074 8.72372 94.5871 8.56932 94.7702 8.41904C94.9534 8.26875 95.1401 8.12316 95.3303 7.98168C95.5205 7.84078 95.7142 7.70458 95.9109 7.57249C96.1082 7.44099 96.3083 7.31419 96.5115 7.19267C96.7146 7.07056 96.9206 6.95432 97.1296 6.84219C97.3386 6.73065 97.55 6.62439 97.7643 6.52283C97.9785 6.42185 98.1952 6.32558 98.4135 6.23517C98.6325 6.14417 98.8538 6.05905 99.0769 5.97921C99.3 5.89937 99.5248 5.8254 99.7515 5.75613C99.9781 5.68744 100.206 5.62463 100.436 5.56709C100.666 5.50956 100.897 5.45731 101.129 5.41093C101.362 5.36514 101.595 5.32464 101.83 5.29C102.064 5.25478 102.299 5.22601 102.535 5.20253C102.771 5.17963 103.007 5.16202 103.243 5.15028C103.48 5.13913 103.716 5.13326 103.954 5.13326C104.19 5.13326 104.427 5.13913 104.664 5.15028C104.901 5.16202 105.137 5.17963 105.373 5.20253C105.608 5.22601 105.843 5.25478 106.078 5.29C106.312 5.32464 106.546 5.36514 106.777 5.41093C107.01 5.45731 107.241 5.50956 107.471 5.56709C107.701 5.62463 107.929 5.68744 108.156 5.75613C108.382 5.8254 108.607 5.89937 108.83 5.97921C109.053 6.05905 109.274 6.14417 109.493 6.23517C109.712 6.32558 109.929 6.42185 110.143 6.52283C110.357 6.62439 110.569 6.73065 110.778 6.84219C110.987 6.95432 111.193 7.07056 111.396 7.19267C111.599 7.31419 111.799 7.44099 111.996 7.57249C112.193 7.70458 112.387 7.84078 112.577 7.98168C112.767 8.12316 112.954 8.26875 113.137 8.41904C113.32 8.56932 113.499 8.72372 113.675 8.88281C113.851 9.04191 114.022 9.2057 114.19 9.37301C114.357 9.54032 114.521 9.71233 114.68 9.88786C114.839 10.0634 114.993 10.2424 115.144 10.4256C115.294 10.6088 115.439 10.7955 115.581 10.9857C115.722 11.1759 115.858 11.3696 115.99 11.5669C116.122 11.7635 116.248 11.9637 116.37 12.1668C116.492 12.37 116.608 12.576 116.72 12.785C116.832 12.994 116.938 13.2053 117.04 13.4196C117.141 13.6339 117.237 13.8505 117.327 14.0695C117.418 14.2885 117.504 14.5092 117.583 14.7323C117.663 14.9554 117.737 15.1802 117.807 15.4068C117.875 15.6334 117.938 15.8618 117.996 16.0919C118.053 16.3215 118.105 16.5528 118.152 16.7852C118.198 17.0171 118.238 17.2508 118.273 17.485C118.308 17.7193 118.337 17.9547 118.36 18.1901C118.383 18.4261 118.401 18.6621 118.412 18.8987C118.424 19.1353 118.429 19.3724 118.429 19.609Z" fill="white"/>
</g>
<mask id="mask9_1_109" style="mask-type:luminance" maskUnits="userSpaceOnUse" x="89" y="9" width="30" height="19">
<path d="M89.4773 9.02431H118.176V27.9635H89.4773V9.02431Z" fill="white"/>
</mask>
<g mask="url(#mask9_1_109)">
<path d="M114.096 24.9689L107.882 24.9607C107.517 23.6416 106.526 23.0833 105.292 22.7486C104.97 21.2681 103.78 20.2137 102.244 20.1908C102.216 20.1902 102.187 20.1908 102.159 20.1932C101.915 20.2155 102.058 20.1996 101.73 20.246C100.947 19.1793 99.8254 18.3668 98.5415 18.0363C95.8117 17.3336 92.8957 18.9139 92.1308 21.6549C91.5925 21.8534 91.1246 22.1616 90.7148 22.5672C90.6044 22.6764 90.534 22.8197 90.4436 22.9459C89.7825 22.117 89.5389 21.1131 89.4861 20.0746C89.543 17.8884 90.8293 16.1272 92.8993 15.4256C93.0748 15.3658 93.2691 15.3417 93.4441 15.3141C93.619 15.2865 94.6311 15.0112 97.0527 15.7256C95.5446 14.7851 93.6225 14.6836 93.6401 14.6184C94.7033 10.6129 98.7487 8.40731 102.806 9.26325C105.13 9.75345 106.865 11.3908 107.856 12.8062C107.88 12.842 106.54 13.7149 106.017 14.7669C106.846 13.8687 107.822 13.4637 108.175 13.3234C108.527 13.1831 109.131 13.0633 109.623 13.0322C111.826 13.0322 113.61 14.821 113.61 17.0271C113.61 17.0271 113.599 17.2596 113.593 17.3776C113.587 17.4944 113.487 18.1167 113.208 19.1464C113.944 18.1977 113.986 17.3723 114.021 17.3682C115.103 17.2373 117.096 18.1179 117.788 19.5415C117.98 19.9366 118.057 20.3382 118.146 20.765V20.7714L118.167 20.7738C118.153 20.9006 118.159 21.028 118.167 21.1548C118.167 23.2611 116.344 24.9689 114.096 24.9689ZM97.2852 27.9623C97.1913 27.9606 97.0973 27.9617 97.0034 27.9523L93.2932 27.9471C91.7251 27.9471 90.4541 26.6731 90.4541 25.1022C90.487 23.8241 91.239 22.7944 92.449 22.3841C92.5517 22.3494 92.665 22.3353 92.7672 22.3195C92.8693 22.3031 93.4611 22.1422 94.8765 22.5602C93.9947 22.0101 92.8717 21.9508 92.8816 21.9127C93.5033 19.5715 95.868 18.2823 98.2392 18.783C99.5976 19.0695 100.611 20.0264 101.191 20.8536C101.206 20.8747 100.422 21.3849 100.116 21.9995C100.6 21.4747 101.171 21.2381 101.378 21.1559C101.584 21.0737 101.936 21.0039 102.224 20.9857C103.511 20.9857 104.555 22.0312 104.555 23.321C104.555 23.321 104.548 23.4566 104.544 23.5253C104.541 23.594 104.483 23.9574 104.319 24.5591C104.749 24.0049 104.774 23.5224 104.794 23.52C105.427 23.4431 106.592 23.958 106.996 24.7904C107.108 25.0211 107.153 25.256 107.205 25.5055L107.218 25.5108C107.21 25.5847 107.214 25.6593 107.218 25.7333C107.218 26.9643 106.153 27.9623 104.838 27.9623L97.5617 27.9529L97.5241 27.957L97.2852 27.9623Z" fill="#A4DCF2"/>
</g>
<mask id="mask10_1_109" style="mask-type:luminance" maskUnits="userSpaceOnUse" x="111" y="25" width="9" height="3">
<path d="M111.866 25.1051H119.08V27.5238H111.866V25.1051Z" fill="white"/>
</mask>
<g mask="url(#mask10_1_109)">
<path d="M119.055 26.3227C119.055 26.362 119.049 26.4007 119.038 26.4401C119.026 26.4794 119.009 26.5181 118.986 26.5569C118.963 26.5956 118.935 26.6332 118.901 26.6714C118.866 26.7089 118.827 26.7459 118.782 26.7823C118.737 26.8187 118.687 26.8539 118.631 26.8886C118.576 26.9232 118.515 26.9573 118.45 26.9896C118.385 27.0224 118.314 27.0541 118.24 27.0847C118.165 27.1152 118.087 27.144 118.003 27.1721C117.92 27.1997 117.833 27.2261 117.742 27.2508C117.651 27.276 117.556 27.2995 117.459 27.3212C117.361 27.343 117.261 27.3635 117.157 27.3817C117.053 27.4005 116.946 27.4175 116.838 27.4322C116.729 27.4475 116.618 27.4604 116.506 27.4721C116.393 27.4833 116.28 27.4933 116.164 27.5009C116.049 27.5085 115.933 27.5144 115.815 27.5179C115.698 27.522 115.581 27.5238 115.464 27.5238C115.346 27.5238 115.228 27.522 115.111 27.5179C114.994 27.5144 114.878 27.5085 114.763 27.5009C114.647 27.4933 114.533 27.4833 114.421 27.4721C114.308 27.4604 114.197 27.4475 114.089 27.4322C113.98 27.4175 113.874 27.4005 113.77 27.3817C113.667 27.3635 113.566 27.343 113.468 27.3212C113.37 27.2995 113.276 27.276 113.185 27.2508C113.094 27.2261 113.007 27.1997 112.923 27.1721C112.841 27.144 112.761 27.1152 112.687 27.0847C112.612 27.0541 112.542 27.0224 112.477 26.9896C112.411 26.9573 112.351 26.9232 112.296 26.8886C112.24 26.8539 112.19 26.8187 112.145 26.7823C112.1 26.7459 112.06 26.7089 112.026 26.6714C111.992 26.6332 111.963 26.5956 111.941 26.5569C111.918 26.5181 111.9 26.4794 111.889 26.4401C111.877 26.4007 111.871 26.362 111.871 26.3227C111.871 26.2833 111.877 26.244 111.889 26.2047C111.9 26.1653 111.918 26.1266 111.941 26.0878C111.963 26.0497 111.992 26.0115 112.026 25.9739C112.06 25.9358 112.1 25.8988 112.145 25.863C112.19 25.8266 112.24 25.7908 112.296 25.7561C112.351 25.7215 112.411 25.6875 112.477 25.6552C112.542 25.6223 112.612 25.5906 112.687 25.5601C112.761 25.5301 112.841 25.5008 112.923 25.4732C113.007 25.445 113.094 25.4186 113.185 25.3939C113.276 25.3687 113.37 25.3452 113.468 25.3235C113.566 25.3018 113.667 25.2818 113.77 25.263C113.874 25.2442 113.98 25.2278 114.089 25.2125C114.197 25.1973 114.308 25.1843 114.421 25.1726C114.533 25.1614 114.647 25.1521 114.763 25.1444C114.878 25.1368 114.994 25.1309 115.111 25.1268C115.228 25.1233 115.346 25.1209 115.464 25.1209C115.581 25.1209 115.698 25.1233 115.815 25.1268C115.933 25.1309 116.049 25.1368 116.164 25.1444C116.28 25.1521 116.393 25.1614 116.506 25.1726C116.618 25.1843 116.729 25.1973 116.838 25.2125C116.946 25.2278 117.053 25.2442 117.157 25.263C117.261 25.2818 117.361 25.3018 117.459 25.3235C117.556 25.3452 117.651 25.3687 117.742 25.3939C117.833 25.4186 117.92 25.445 118.003 25.4732C118.087 25.5008 118.165 25.5301 118.24 25.5601C118.314 25.5906 118.385 25.6223 118.45 25.6552C118.515 25.6875 118.576 25.7215 118.631 25.7561C118.687 25.7908 118.737 25.8266 118.782 25.863C118.827 25.8988 118.866 25.9358 118.901 25.9739C118.935 26.0115 118.963 26.0497 118.986 26.0878C119.009 26.1266 119.026 26.1653 119.038 26.2047C119.049 26.244 119.055 26.2833 119.055 26.3227Z" fill="white"/>
</g>
<path fill-rule="evenodd" clip-rule="evenodd" d="M117.797 18.0222C116.508 16.7301 114.419 16.7301 113.131 18.0222C112.018 19.1376 111.846 20.8853 112.718 22.1974L115.464 26.325L118.208 22.1974C119.081 20.8853 118.908 19.1376 117.797 18.0222ZM115.464 22.0195C116.405 22.0195 117.168 21.254 117.168 20.3094C117.168 19.3648 116.405 18.5993 115.464 18.5993C114.522 18.5993 113.758 19.3648 113.758 20.3094C113.758 21.254 114.522 22.0195 115.464 22.0195Z" fill="white"/>
<mask id="mask11_1_109" style="mask-type:luminance" maskUnits="userSpaceOnUse" x="113" y="18" width="5" height="5">
<path d="M113.547 18.2752H117.356V22.0847H113.547V18.2752Z" fill="white"/>
</mask>
<g mask="url(#mask11_1_109)">
<path d="M117.356 20.1796C117.356 20.3047 117.344 20.4286 117.319 20.5513C117.295 20.674 117.259 20.7931 117.211 20.9088C117.163 21.0244 117.104 21.1342 117.035 21.2381C116.966 21.342 116.887 21.4383 116.798 21.527C116.71 21.615 116.614 21.6943 116.51 21.7635C116.406 21.8328 116.296 21.8915 116.18 21.9397C116.065 21.9872 115.946 22.0236 115.823 22.0483C115.7 22.0723 115.576 22.0847 115.451 22.0847C115.326 22.0847 115.202 22.0723 115.08 22.0483C114.957 22.0236 114.838 21.9872 114.723 21.9397C114.607 21.8915 114.497 21.8328 114.393 21.7635C114.289 21.6943 114.193 21.615 114.104 21.527C114.016 21.4383 113.937 21.342 113.867 21.2381C113.798 21.1342 113.739 21.0244 113.692 20.9088C113.644 20.7931 113.608 20.674 113.583 20.5513C113.559 20.4286 113.547 20.3047 113.547 20.1796C113.547 20.0546 113.559 19.9307 113.583 19.808C113.608 19.6853 113.644 19.5668 113.692 19.4511C113.739 19.3355 113.798 19.2257 113.867 19.1218C113.937 19.0179 114.016 18.9216 114.104 18.8329C114.193 18.7443 114.289 18.6656 114.393 18.5963C114.497 18.5265 114.607 18.4678 114.723 18.4202C114.838 18.3721 114.957 18.3363 115.08 18.3116C115.202 18.2876 115.326 18.2752 115.451 18.2752C115.576 18.2752 115.7 18.2876 115.823 18.3116C115.946 18.3363 116.065 18.3721 116.18 18.4202C116.296 18.4678 116.406 18.5265 116.51 18.5963C116.614 18.6656 116.71 18.7443 116.798 18.8329C116.887 18.9216 116.966 19.0179 117.035 19.1218C117.104 19.2257 117.163 19.3355 117.211 19.4511C117.259 19.5668 117.295 19.6853 117.319 19.808C117.344 19.9307 117.356 20.0546 117.356 20.1796Z" fill="#FFCA70"/>
</g>
<mask id="mask12_1_109" style="mask-type:luminance" maskUnits="userSpaceOnUse" x="43" y="2" width="31" height="30">
<path d="M43.9228 2.10828H73.0462V31.2317H43.9228V2.10828Z" fill="white"/>
</mask>
<g mask="url(#mask12_1_109)">
<path d="M73.0462 16.67C73.0462 16.9083 73.0404 17.1466 73.0288 17.3849C73.0172 17.6227 72.9997 17.8605 72.9765 18.0973C72.9527 18.3346 72.9237 18.571 72.8888 18.8068C72.8539 19.0427 72.8133 19.2771 72.7668 19.5111C72.7203 19.7445 72.668 19.977 72.6098 20.2085C72.5522 20.4395 72.4888 20.6691 72.4195 20.8972C72.3502 21.1253 72.2757 21.3515 72.1953 21.5757C72.1149 21.8005 72.0291 22.0223 71.9381 22.2427C71.8465 22.463 71.7502 22.6805 71.6485 22.896C71.5463 23.1115 71.4392 23.3242 71.3269 23.5344C71.2145 23.7445 71.0973 23.9518 70.9748 24.1562C70.8522 24.3606 70.7248 24.5621 70.5921 24.7602C70.4599 24.9583 70.3229 25.153 70.1809 25.3448C70.0386 25.5361 69.8923 25.724 69.7412 25.908C69.5901 26.0921 69.4341 26.2727 69.2743 26.449C69.114 26.6258 68.9498 26.7982 68.7812 26.9668C68.6127 27.1353 68.4403 27.2995 68.2635 27.4598C68.0872 27.6196 67.9066 27.7751 67.7225 27.9267C67.5385 28.0778 67.3506 28.2241 67.1592 28.3665C66.9674 28.5084 66.7728 28.6454 66.5747 28.7777C66.3766 28.9104 66.1751 29.0377 65.9707 29.1603C65.7663 29.2828 65.559 29.4 65.3488 29.5124C65.1386 29.6247 64.926 29.7318 64.7105 29.834C64.495 29.9357 64.2775 30.0321 64.0571 30.1236C63.8368 30.2147 63.6149 30.3004 63.3902 30.3808C63.166 30.4612 62.9398 30.5358 62.7117 30.605C62.4836 30.6743 62.254 30.7377 62.023 30.7954C61.7915 30.8535 61.5595 30.9058 61.3255 30.9523C61.0916 30.9988 60.8572 31.0395 60.6213 31.0743C60.3855 31.1092 60.1491 31.1383 59.9118 31.162C59.675 31.1852 59.4372 31.2027 59.1994 31.2143C58.9611 31.2259 58.7228 31.2317 58.4845 31.2317C58.2462 31.2317 58.0079 31.2259 57.7701 31.2143C57.5323 31.2027 57.2945 31.1852 57.0572 31.162C56.8203 31.1383 56.5835 31.1092 56.3481 31.0743C56.1123 31.0395 55.8774 30.9988 55.6439 30.9523C55.41 30.9058 55.1775 30.8535 54.9465 30.7954C54.7155 30.7377 54.4854 30.6743 54.2578 30.605C54.0297 30.5358 53.8035 30.4612 53.5788 30.3808C53.3545 30.3004 53.1322 30.2147 52.9123 30.1236C52.692 30.0321 52.474 29.9357 52.2585 29.834C52.0434 29.7318 51.8303 29.6247 51.6201 29.5124C51.4099 29.4 51.2027 29.2828 50.9983 29.1603C50.7939 29.0377 50.5929 28.9104 50.3943 28.7777C50.1962 28.6454 50.0015 28.5084 49.8102 28.3665C49.6189 28.2241 49.431 28.0778 49.2469 27.9267C49.0624 27.7751 48.8823 27.6196 48.7055 27.4598C48.5292 27.2995 48.3563 27.1353 48.1877 26.9668C48.0192 26.7982 47.855 26.6258 47.6952 26.449C47.5349 26.2727 47.3794 26.0921 47.2283 25.908C47.0772 25.724 46.9304 25.5361 46.7885 25.3448C46.6466 25.153 46.5095 24.9583 46.3768 24.7602C46.2446 24.5621 46.1172 24.3606 45.9947 24.1562C45.8722 23.9518 45.7545 23.7445 45.6421 23.5344C45.5298 23.3242 45.4227 23.1115 45.321 22.896C45.2193 22.6805 45.1224 22.463 45.0314 22.2427C44.9403 22.0223 44.8546 21.8 44.7742 21.5757C44.6938 21.3515 44.6192 21.1253 44.55 20.8972C44.4807 20.6691 44.4173 20.4395 44.3591 20.2085C44.3015 19.977 44.2492 19.7445 44.2027 19.5111C44.1562 19.2771 44.1155 19.0427 44.0807 18.8068C44.0453 18.571 44.0162 18.3346 43.993 18.0973C43.9697 17.8605 43.9523 17.6227 43.9402 17.3849C43.9286 17.1466 43.9228 16.9083 43.9228 16.67C43.9228 16.4317 43.9286 16.1934 43.9402 15.9556C43.9523 15.7178 43.9697 15.48 43.993 15.2427C44.0162 15.0059 44.0453 14.769 44.0807 14.5336C44.1155 14.2978 44.1562 14.0629 44.2027 13.8294C44.2492 13.5955 44.3015 13.363 44.3591 13.132C44.4173 12.9005 44.4807 12.6709 44.55 12.4433C44.6192 12.2152 44.6938 11.989 44.7742 11.7643C44.8546 11.54 44.9403 11.3177 45.0314 11.0974C45.1224 10.8775 45.2193 10.6595 45.321 10.444C45.4227 10.229 45.5298 10.0159 45.6421 9.80566C45.7545 9.59546 45.8722 9.38817 45.9947 9.18379C46.1172 8.9794 46.2446 8.77841 46.3768 8.57983C46.5095 8.38174 46.6466 8.18705 46.7885 7.99574C46.9304 7.80443 47.0772 7.61651 47.2283 7.43247C47.3794 7.24794 47.5349 7.06777 47.6952 6.89099C47.855 6.7147 48.0192 6.54179 48.1877 6.37325C48.3563 6.2047 48.5292 6.04051 48.7055 5.88069C48.8823 5.72038 49.0624 5.56491 49.2469 5.4138C49.431 5.26269 49.6189 5.11594 49.8102 4.97403C50.0015 4.83212 50.1962 4.69506 50.3943 4.56235C50.5929 4.43013 50.7939 4.30275 50.9983 4.18022C51.2027 4.05769 51.4099 3.94 51.6201 3.82763C51.8303 3.71527 52.0434 3.60823 52.2585 3.50652C52.474 3.40433 52.692 3.30795 52.9123 3.2169C53.1322 3.12584 53.3545 3.03963 53.5788 2.95972C53.8035 2.87932 54.0297 2.80474 54.2578 2.73548C54.4854 2.66622 54.7155 2.60277 54.9465 2.54465C55.1775 2.48702 55.41 2.43471 55.6439 2.38822C55.8774 2.34172 56.1123 2.30104 56.3481 2.26617C56.5835 2.23081 56.8203 2.20175 57.0572 2.1785C57.2945 2.15526 57.5323 2.13782 57.7701 2.12571C58.0079 2.11409 58.2462 2.10828 58.4845 2.10828C58.7228 2.10828 58.9611 2.11409 59.1994 2.12571C59.4372 2.13782 59.675 2.15526 59.9118 2.1785C60.1491 2.20175 60.3855 2.23081 60.6213 2.26617C60.8572 2.30104 61.0916 2.34172 61.3255 2.38822C61.5595 2.43471 61.7915 2.48702 62.023 2.54465C62.254 2.60277 62.4836 2.66622 62.7117 2.73548C62.9398 2.80474 63.166 2.87932 63.3902 2.95972C63.6149 3.03963 63.8368 3.12584 64.0571 3.2169C64.2775 3.30795 64.495 3.40433 64.7105 3.50652C64.926 3.60823 65.1386 3.71527 65.3488 3.82763C65.559 3.94 65.7663 4.05769 65.9707 4.18022C66.1751 4.30275 66.3766 4.43013 66.5747 4.56235C66.7728 4.69506 66.9674 4.83212 67.1592 4.97403C67.3506 5.11594 67.5385 5.26269 67.7225 5.4138C67.9066 5.56491 68.0872 5.72038 68.2635 5.88069C68.4403 6.04051 68.6127 6.2047 68.7812 6.37325C68.9498 6.54179 69.114 6.7147 69.2743 6.89099C69.4341 7.06777 69.5901 7.24794 69.7412 7.43247C69.8923 7.61651 70.0386 7.80443 70.1809 7.99574C70.3229 8.18705 70.4599 8.38174 70.5921 8.57983C70.7248 8.77841 70.8522 8.9794 70.9748 9.18379C71.0973 9.38817 71.2145 9.59546 71.3269 9.80566C71.4392 10.0159 71.5463 10.229 71.6485 10.444C71.7502 10.6595 71.8465 10.8775 71.9381 11.0974C72.0291 11.3177 72.1149 11.54 72.1953 11.7643C72.2757 11.989 72.3502 12.2152 72.4195 12.4433C72.4888 12.6709 72.5522 12.9005 72.6098 13.132C72.668 13.363 72.7203 13.5955 72.7668 13.8294C72.8133 14.0629 72.8539 14.2978 72.8888 14.5336C72.9237 14.769 72.9527 15.0059 72.9765 15.2427C72.9997 15.48 73.0172 15.7178 73.0288 15.9556C73.0404 16.1934 73.0462 16.4317 73.0462 16.67Z" fill="white"/>
</g>
<path fill-rule="evenodd" clip-rule="evenodd" d="M48.1979 20.0055H54.9199V27.1552H62.0787V20.4419L61.6128 19.976C57.5347 15.9033 58.5567 16.9243 54.9199 13.2923L52.4377 15.7711V14.723H50.2432V17.9627L48.1989 20.0051L48.1979 20.0055ZM59.6459 22.4558H57.1521V24.9462H59.6459V22.4558Z" fill="#A8DE7D"/>
<path fill-rule="evenodd" clip-rule="evenodd" d="M54.4723 12.8559H47.761V19.559L49.5119 17.8106V13.9345H52.8615V14.4649L54.4728 12.8555L54.4723 12.8559ZM62.0787 5.70633H54.9199V12.4094C58.2937 15.7788 58.8753 16.3596 62.5262 20.0056H69.2375V12.8559H62.0787V5.70633Z" fill="#FFB82F"/>
<mask id="mask13_1_109" style="mask-type:luminance" maskUnits="userSpaceOnUse" x="42" y="0" width="33" height="40">
<path d="M42 0H75V39.8091H42V0Z" fill="white"/>
</mask>
<g mask="url(#mask13_1_109)">
<path fill-rule="evenodd" clip-rule="evenodd" d="M58.5 39.8091L70.1805 28.1437C76.6055 21.7268 76.6055 11.2286 70.181 4.81226C63.7559 -1.60457 53.2441 -1.60457 46.819 4.81226C40.3945 11.2286 40.3945 21.7268 46.82 28.1437L58.5 39.8091ZM58.5 2.85025C50.9644 2.85025 44.8556 8.9513 44.8556 16.4777C44.8556 24.0037 50.9644 30.1042 58.5 30.1042C66.0356 30.1042 72.1444 24.0037 72.1444 16.4777C72.1444 8.9513 66.0356 2.85025 58.5 2.85025Z" fill="#A8DE7D"/>
</g>
<mask id="mask14_1_109" style="mask-type:luminance" maskUnits="userSpaceOnUse" x="46" y="4" width="25" height="25">
<path d="M46.5188 4.23494H70.4042V28.1204H46.5188V4.23494Z" fill="white"/>
</mask>
<g mask="url(#mask14_1_109)">
<path d="M70.4042 16.1774C70.4042 16.3731 70.3994 16.5683 70.3902 16.7635C70.3805 16.9587 70.366 17.1538 70.3471 17.3481C70.3277 17.5428 70.304 17.7365 70.2749 17.9297C70.2464 18.1235 70.2129 18.3157 70.1752 18.5075C70.1369 18.6993 70.0938 18.8897 70.0463 19.0795C69.9989 19.2689 69.947 19.4573 69.8904 19.6442C69.8332 19.8312 69.7722 20.0167 69.7063 20.2007C69.6405 20.3848 69.5702 20.5674 69.4952 20.748C69.4206 20.9282 69.3412 21.1069 69.2578 21.2837C69.1741 21.4605 69.0864 21.6348 68.9944 21.8072C68.9019 21.9797 68.806 22.1497 68.7052 22.3172C68.605 22.4848 68.5004 22.65 68.3919 22.8127C68.2829 22.9749 68.1705 23.1348 68.0543 23.2917C67.9376 23.4486 67.8175 23.6026 67.6935 23.7537C67.5695 23.9048 67.4421 24.0531 67.3109 24.1979C67.1796 24.3427 67.0445 24.4841 66.9064 24.6221C66.7684 24.7607 66.627 24.8953 66.4822 25.0265C66.3369 25.1578 66.1892 25.2852 66.0381 25.4092C65.8869 25.5332 65.7329 25.6537 65.576 25.77C65.4191 25.8862 65.2593 25.9991 65.0965 26.1076C64.9343 26.2161 64.7691 26.3207 64.6015 26.4209C64.434 26.5217 64.264 26.618 64.0915 26.7101C63.9191 26.8021 63.7448 26.8902 63.568 26.9735C63.3912 27.0573 63.2125 27.1363 63.0318 27.2113C62.8512 27.2859 62.6691 27.3562 62.485 27.422C62.301 27.4879 62.1155 27.5494 61.9286 27.6061C61.7416 27.6627 61.5532 27.715 61.3633 27.7625C61.174 27.81 60.9831 27.8526 60.7914 27.8908C60.6 27.9291 60.4073 27.9625 60.214 27.9911C60.0208 28.0197 59.8266 28.0434 59.6324 28.0628C59.4377 28.0817 59.243 28.0962 59.0478 28.1059C58.8526 28.1156 58.6569 28.1204 58.4617 28.1204C58.2661 28.1204 58.0709 28.1156 57.8757 28.1059C57.6805 28.0962 57.4858 28.0817 57.2911 28.0628C57.0964 28.0434 56.9027 28.0197 56.7095 27.9911C56.5162 27.9625 56.3235 27.9291 56.1317 27.8908C55.9399 27.8526 55.7495 27.81 55.5597 27.7625C55.3703 27.715 55.1819 27.6627 54.9949 27.6061C54.808 27.5494 54.6225 27.4879 54.4385 27.422C54.2544 27.3562 54.0718 27.2859 53.8912 27.2113C53.711 27.1363 53.5323 27.0573 53.3555 26.9735C53.1787 26.8902 53.0044 26.8021 52.832 26.7101C52.6595 26.618 52.4895 26.5217 52.322 26.4209C52.1544 26.3207 51.9892 26.2161 51.8265 26.1076C51.6642 25.9991 51.5044 25.8862 51.3475 25.77C51.1906 25.6537 51.0366 25.5332 50.8854 25.4092C50.7343 25.2852 50.5861 25.1578 50.4413 25.0265C50.2965 24.8953 50.1551 24.7607 50.0171 24.6221C49.8785 24.4841 49.7439 24.3427 49.6126 24.1979C49.4814 24.0531 49.354 23.9048 49.23 23.7537C49.106 23.6026 48.9854 23.4486 48.8692 23.2917C48.753 23.1348 48.6401 22.9749 48.5316 22.8127C48.4231 22.65 48.3185 22.4848 48.2183 22.3172C48.1175 22.1497 48.0211 21.9797 47.9291 21.8072C47.8371 21.6348 47.749 21.4605 47.6657 21.2837C47.5819 21.1069 47.5029 20.9282 47.4278 20.748C47.3533 20.5674 47.283 20.3848 47.2172 20.2007C47.1513 20.0167 47.0898 19.8312 47.0331 19.6442C46.9765 19.4573 46.9241 19.2689 46.8767 19.0795C46.8292 18.8897 46.7866 18.6993 46.7483 18.5075C46.7101 18.3157 46.6767 18.1235 46.6481 17.9297C46.6195 17.7365 46.5958 17.5428 46.5764 17.3481C46.5575 17.1538 46.543 16.9587 46.5333 16.7635C46.5236 16.5683 46.5188 16.3731 46.5188 16.1774C46.5188 15.9823 46.5236 15.7866 46.5333 15.5914C46.543 15.3962 46.5575 15.2015 46.5764 15.0068C46.5958 14.8126 46.6195 14.6184 46.6481 14.4251C46.6767 14.2319 46.7101 14.0391 46.7483 13.8478C46.7866 13.656 46.8292 13.4652 46.8767 13.2758C46.9241 13.086 46.9765 12.8976 47.0331 12.7106C47.0898 12.5237 47.1513 12.3382 47.2172 12.1541C47.283 11.9701 47.3533 11.788 47.4278 11.6073C47.5029 11.4267 47.5819 11.248 47.6657 11.0712C47.749 10.8944 47.8371 10.7201 47.9291 10.5476C48.0211 10.3752 48.1175 10.2052 48.2183 10.0376C48.3185 9.87007 48.4231 9.70491 48.5316 9.54266C48.6401 9.37993 48.753 9.2201 48.8692 9.06318C48.9854 8.90626 49.106 8.75224 49.23 8.60113C49.354 8.45002 49.4814 8.3023 49.6126 8.15749C49.7439 8.01268 49.8785 7.87077 50.0171 7.73274C50.1551 7.59471 50.2965 7.45958 50.4413 7.32833C50.5861 7.19707 50.7343 7.0697 50.8854 6.94571C51.0366 6.82172 51.1906 6.70161 51.3475 6.58489C51.5044 6.46865 51.6642 6.35629 51.8265 6.24731C51.9892 6.13882 52.1544 6.03421 52.322 5.93395C52.4895 5.83321 52.6595 5.73732 52.832 5.64481C53.0044 5.55279 53.1787 5.46513 53.3555 5.38134C53.5323 5.29803 53.711 5.2186 53.8912 5.14402C54.0718 5.06895 54.2544 4.99872 54.4385 4.93285C54.6225 4.86698 54.808 4.80596 54.9949 4.74881C55.1819 4.69214 55.3703 4.64032 55.5597 4.59286C55.7495 4.54539 55.9399 4.50229 56.1317 4.46403C56.3235 4.42625 56.5162 4.39283 56.7095 4.36425C56.9027 4.33519 57.0964 4.31146 57.2911 4.29209C57.4858 4.2732 57.6805 4.25867 57.8757 4.24899C58.0709 4.23978 58.2661 4.23494 58.4617 4.23494C58.6569 4.23494 58.8526 4.23978 59.0478 4.24899C59.243 4.25867 59.4377 4.2732 59.6324 4.29209C59.8266 4.31146 60.0208 4.33519 60.214 4.36425C60.4073 4.39283 60.6 4.42625 60.7914 4.46403C60.9831 4.50229 61.174 4.54539 61.3633 4.59286C61.5532 4.64032 61.7416 4.69214 61.9286 4.74881C62.1155 4.80596 62.301 4.86698 62.485 4.93285C62.6691 4.99872 62.8512 5.06895 63.0318 5.14402C63.2125 5.2186 63.3912 5.29803 63.568 5.38134C63.7448 5.46513 63.9191 5.55279 64.0915 5.64481C64.264 5.73732 64.434 5.83321 64.6015 5.93395C64.7691 6.03421 64.9343 6.13882 65.0965 6.24731C65.2593 6.35629 65.4191 6.46865 65.576 6.58489C65.7329 6.70161 65.8869 6.82172 66.0381 6.94571C66.1892 7.0697 66.3369 7.19707 66.4822 7.32833C66.627 7.45958 66.7684 7.59471 66.9064 7.73274C67.0445 7.87077 67.1796 8.01268 67.3109 8.15749C67.4421 8.3023 67.5695 8.45002 67.6935 8.60113C67.8175 8.75224 67.9376 8.90626 68.0543 9.06318C68.1705 9.2201 68.2829 9.37993 68.3919 9.54266C68.5004 9.70491 68.605 9.87007 68.7052 10.0376C68.806 10.2052 68.9019 10.3752 68.9944 10.5476C69.0864 10.7201 69.1741 10.8944 69.2578 11.0712C69.3412 11.248 69.4206 11.4267 69.4952 11.6073C69.5702 11.788 69.6405 11.9701 69.7063 12.1541C69.7722 12.3382 69.8332 12.5237 69.8904 12.7106C69.947 12.8976 69.9989 13.086 70.0463 13.2758C70.0938 13.4652 70.1369 13.656 70.1752 13.8478C70.2129 14.0391 70.2464 14.2319 70.2749 14.4251C70.304 14.6184 70.3277 14.8126 70.3471 15.0068C70.366 15.2015 70.3805 15.3962 70.3902 15.5914C70.3994 15.7866 70.4042 15.9823 70.4042 16.1774Z" fill="white"/>
</g>
<mask id="mask15_1_109" style="mask-type:luminance" maskUnits="userSpaceOnUse" x="46" y="7" width="25" height="17">
<path d="M46.5188 7.44505H70.195V23.0699H46.5188V7.44505Z" fill="white"/>
</mask>
<g mask="url(#mask15_1_109)">
<path d="M66.829 20.5993L61.7029 20.5926C61.4016 19.5043 60.5836 19.0437 59.566 18.7676C59.3006 17.5461 58.3189 16.6763 57.0514 16.6574C57.0281 16.6569 57.0044 16.6574 56.9812 16.6593C56.7797 16.6778 56.8979 16.6647 56.6271 16.7029C55.981 15.8229 55.056 15.1526 53.9968 14.8799C51.7446 14.3002 49.339 15.604 48.7079 17.8653C48.2638 18.029 47.8778 18.2833 47.5397 18.618C47.4487 18.708 47.3906 18.8262 47.316 18.9303C46.7706 18.2465 46.5696 17.4183 46.526 16.5615C46.573 14.7579 47.6342 13.3049 49.3419 12.7261C49.4867 12.6767 49.647 12.6569 49.7914 12.6341C49.9357 12.6114 50.7707 12.3842 52.7685 12.9736C51.5243 12.1977 49.9386 12.114 49.9531 12.0602C50.8302 8.75564 54.1677 6.93603 57.5149 7.64218C59.4319 8.04659 60.8635 9.39737 61.6811 10.5651C61.7014 10.5946 60.5952 11.3148 60.1642 12.1827C60.848 11.4417 61.653 11.1075 61.944 10.9918C62.2351 10.876 62.7335 10.7772 63.1394 10.7515C64.9561 10.7515 66.4284 12.2273 66.4284 14.0474C66.4284 14.0474 66.4192 14.2392 66.4139 14.3365C66.409 14.4329 66.3267 14.9463 66.0967 15.7958C66.7035 15.0131 66.7389 14.3322 66.767 14.3288C67.6601 14.2208 69.3043 14.9473 69.8749 16.1217C70.0333 16.4477 70.0967 16.779 70.1703 17.1311V17.1364L70.1878 17.1383C70.1766 17.243 70.1815 17.3481 70.1878 17.4527C70.1878 19.1904 68.6839 20.5993 66.829 20.5993ZM52.9603 23.0689C52.8828 23.0675 52.8053 23.0684 52.7278 23.0607L49.6669 23.0563C48.3732 23.0563 47.3247 22.0053 47.3247 20.7093C47.3518 19.6549 47.9722 18.8054 48.9704 18.4668C49.0552 18.4383 49.1487 18.4267 49.2329 18.4136C49.3172 18.4 49.8054 18.2673 50.9731 18.6121C50.2457 18.1583 49.3191 18.1094 49.3274 18.0779C49.8403 16.1464 51.7911 15.0829 53.7473 15.496C54.8681 15.7323 55.7045 16.5218 56.1825 17.2042C56.1946 17.2216 55.548 17.6425 55.2957 18.1496C55.6953 17.7166 56.166 17.5214 56.3365 17.4536C56.5065 17.3858 56.7976 17.3282 57.0349 17.3132C58.0966 17.3132 58.9577 18.1758 58.9577 19.2398C58.9577 19.2398 58.9519 19.3517 58.949 19.4084C58.9461 19.465 58.8981 19.7648 58.7635 20.2613C59.118 19.8041 59.1388 19.406 59.1553 19.404C59.6774 19.3406 60.6383 19.7653 60.972 20.4521C61.0645 20.6424 61.1013 20.8362 61.1444 21.042L61.1546 21.0464C61.1483 21.1074 61.1512 21.1689 61.1546 21.2299C61.1546 22.2456 60.276 23.0689 59.1916 23.0689L53.1884 23.0612L53.1574 23.0646L52.9603 23.0689Z" fill="#A8DE7D"/>
</g>
<mask id="mask16_1_109" style="mask-type:luminance" maskUnits="userSpaceOnUse" x="64" y="20" width="7" height="3">
<path d="M64.9895 20.7117H70.9409V22.7071H64.9895V20.7117Z" fill="white"/>
</mask>
<g mask="url(#mask16_1_109)">
<path d="M70.9205 21.7162C70.9205 21.7486 70.9157 21.7806 70.9065 21.8131C70.8968 21.8455 70.8827 21.8775 70.8634 21.9094C70.8445 21.9414 70.8212 21.9724 70.7931 22.0039C70.7646 22.0349 70.7321 22.0654 70.6948 22.0954C70.658 22.1254 70.6164 22.1545 70.5708 22.1831C70.5248 22.2117 70.4749 22.2397 70.4212 22.2664C70.3674 22.2935 70.3093 22.3197 70.2478 22.3448C70.1863 22.37 70.1214 22.3938 70.0526 22.417C69.9838 22.4398 69.9122 22.4616 69.8371 22.4819C69.762 22.5027 69.684 22.5221 69.6036 22.54C69.5228 22.5579 69.4399 22.5749 69.3542 22.5899C69.2685 22.6054 69.1808 22.6195 69.0912 22.6316C69.0016 22.6442 68.9101 22.6548 68.8176 22.6645C68.7246 22.6737 68.6306 22.6819 68.5352 22.6882C68.4403 22.6945 68.3444 22.6994 68.2475 22.7023C68.1512 22.7057 68.0543 22.7071 67.9574 22.7071C67.8601 22.7071 67.7632 22.7057 67.6668 22.7023C67.57 22.6994 67.4746 22.6945 67.3791 22.6882C67.2837 22.6819 67.1898 22.6737 67.0973 22.6645C67.0043 22.6548 66.9127 22.6442 66.8231 22.6316C66.7335 22.6195 66.6459 22.6054 66.5601 22.5899C66.4749 22.5749 66.3916 22.5579 66.3107 22.54C66.2303 22.5221 66.1523 22.5027 66.0773 22.4819C66.0022 22.4616 65.9305 22.4398 65.8617 22.417C65.7935 22.3938 65.7281 22.37 65.6666 22.3448C65.6051 22.3197 65.5474 22.2935 65.4932 22.2664C65.4394 22.2397 65.3895 22.2117 65.344 22.1831C65.298 22.1545 65.2568 22.1254 65.2195 22.0954C65.1822 22.0654 65.1498 22.0349 65.1217 22.0039C65.0931 21.9724 65.0699 21.9414 65.051 21.9094C65.0321 21.8775 65.0176 21.8455 65.0084 21.8131C64.9987 21.7806 64.9938 21.7486 64.9938 21.7162C64.9938 21.6837 64.9987 21.6513 65.0084 21.6188C65.0176 21.5864 65.0321 21.5544 65.051 21.5225C65.0699 21.491 65.0931 21.4595 65.1217 21.4285C65.1498 21.397 65.1822 21.3665 65.2195 21.337C65.2568 21.3069 65.298 21.2774 65.344 21.2488C65.3895 21.2202 65.4394 21.1922 65.4932 21.1655C65.5474 21.1384 65.6051 21.1122 65.6666 21.0871C65.7281 21.0624 65.7935 21.0381 65.8617 21.0154C65.9305 20.9921 66.0022 20.9703 66.0773 20.95C66.1523 20.9292 66.2303 20.9098 66.3107 20.8919C66.3916 20.8739 66.4749 20.8575 66.5601 20.842C66.6459 20.8265 66.7335 20.8129 66.8231 20.8003C66.9127 20.7877 67.0043 20.7771 67.0973 20.7674C67.1898 20.7582 67.2837 20.7504 67.3791 20.7442C67.4746 20.7379 67.57 20.733 67.6668 20.7296C67.7632 20.7267 67.8601 20.7248 67.9574 20.7248C68.0543 20.7248 68.1512 20.7267 68.2475 20.7296C68.3444 20.733 68.4403 20.7379 68.5352 20.7442C68.6306 20.7504 68.7246 20.7582 68.8176 20.7674C68.9101 20.7771 69.0016 20.7877 69.0912 20.8003C69.1808 20.8129 69.2685 20.8265 69.3542 20.842C69.4399 20.8575 69.5228 20.8739 69.6036 20.8919C69.684 20.9098 69.762 20.9292 69.8371 20.95C69.9122 20.9703 69.9838 20.9921 70.0526 21.0154C70.1214 21.0381 70.1863 21.0624 70.2478 21.0871C70.3093 21.1122 70.3674 21.1384 70.4212 21.1655C70.4749 21.1922 70.5248 21.2202 70.5708 21.2488C70.6164 21.2774 70.658 21.3069 70.6948 21.337C70.7321 21.3665 70.7646 21.397 70.7931 21.4285C70.8212 21.4595 70.8445 21.491 70.8634 21.5225C70.8827 21.5544 70.8968 21.5864 70.9065 21.6188C70.9157 21.6513 70.9205 21.6837 70.9205 21.7162Z" fill="white"/>
</g>
<path fill-rule="evenodd" clip-rule="evenodd" d="M69.8821 14.8683C68.819 13.8023 67.0953 13.8023 66.0327 14.8683C65.1149 15.7885 64.973 17.2304 65.6927 18.3128L67.9574 21.7181L70.2216 18.3128C70.9418 17.2304 70.7994 15.7885 69.8821 14.8683ZM67.9574 18.1661C68.7343 18.1661 69.3639 17.5345 69.3639 16.7552C69.3639 15.976 68.7343 15.3444 67.9574 15.3444C67.1806 15.3444 66.5504 15.976 66.5504 16.7552C66.5504 17.5345 67.1806 18.1661 67.9574 18.1661Z" fill="white"/>
<mask id="mask17_1_109" style="mask-type:luminance" maskUnits="userSpaceOnUse" x="66" y="15" width="4" height="4">
<path d="M66.3761 15.0771H69.5189V18.2198H66.3761V15.0771Z" fill="white"/>
</mask>
<g mask="url(#mask17_1_109)">
<path d="M69.5189 16.6482C69.5189 16.7514 69.5087 16.8536 69.4884 16.9548C69.4685 17.056 69.4385 17.1543 69.3993 17.2497C69.3595 17.3452 69.3111 17.4357 69.254 17.5214C69.1968 17.6072 69.1314 17.6866 69.0583 17.7597C68.9856 17.8324 68.9062 17.8978 68.8205 17.9549C68.7348 18.0121 68.6442 18.0605 68.5488 18.1002C68.4534 18.1394 68.3551 18.1695 68.2538 18.1898C68.1526 18.2097 68.0504 18.2198 67.9473 18.2198C67.8441 18.2198 67.7419 18.2097 67.6407 18.1898C67.5394 18.1695 67.4411 18.1394 67.3462 18.1002C67.2508 18.0605 67.1602 18.0121 67.0745 17.9549C66.9883 17.8978 66.9093 17.8324 66.8362 17.7597C66.7631 17.6866 66.6982 17.6072 66.6405 17.5214C66.5834 17.4357 66.535 17.3452 66.4957 17.2497C66.456 17.1543 66.4265 17.056 66.4061 16.9548C66.3858 16.8536 66.3761 16.7514 66.3761 16.6482C66.3761 16.545 66.3858 16.4429 66.4061 16.3416C66.4265 16.2404 66.456 16.1426 66.4957 16.0472C66.535 15.9517 66.5834 15.8612 66.6405 15.7755C66.6982 15.6897 66.7631 15.6103 66.8362 15.5372C66.9093 15.464 66.9883 15.3991 67.0745 15.342C67.1602 15.2843 67.2508 15.2359 67.3462 15.1967C67.4411 15.157 67.5394 15.1274 67.6407 15.1071C67.7419 15.0872 67.8441 15.0771 67.9473 15.0771C68.0504 15.0771 68.1526 15.0872 68.2538 15.1071C68.3551 15.1274 68.4534 15.157 68.5488 15.1967C68.6442 15.2359 68.7348 15.2843 68.8205 15.342C68.9062 15.3991 68.9856 15.464 69.0583 15.5372C69.1314 15.6103 69.1968 15.6897 69.254 15.7755C69.3111 15.8612 69.3595 15.9517 69.3993 16.0472C69.4385 16.1426 69.4685 16.2404 69.4884 16.3416C69.5087 16.4429 69.5189 16.545 69.5189 16.6482Z" fill="#FFCA70"/>
</g>
</svg>
