<svg xmlns="http://www.w3.org/2000/svg" xmlns:xlink="http://www.w3.org/1999/xlink" width="500" zoomAndPan="magnify" viewBox="0 0 375 374.999991" height="500" preserveAspectRatio="xMidYMid meet" version="1.0"><defs><clipPath id="96fdede039"><path d="M 70.089844 43.957031 L 304.980469 43.957031 L 304.980469 278.847656 L 70.089844 278.847656 Z M 70.089844 43.957031 " clip-rule="nonzero"/></clipPath><clipPath id="a0f0f29e32"><path d="M 54.582031 26.953125 L 320.738281 26.953125 L 320.738281 348.027344 L 54.582031 348.027344 Z M 54.582031 26.953125 " clip-rule="nonzero"/></clipPath><clipPath id="dc8fb1adc5"><path d="M 91.027344 61.109375 L 283.671875 61.109375 L 283.671875 253.753906 L 91.027344 253.753906 Z M 91.027344 61.109375 " clip-rule="nonzero"/></clipPath><clipPath id="fd4362908f"><path d="M 91.027344 87 L 281.984375 87 L 281.984375 213.019531 L 91.027344 213.019531 Z M 91.027344 87 " clip-rule="nonzero"/></clipPath><clipPath id="97de08ae18"><path d="M 240 194 L 288 194 L 288 210.09375 L 240 210.09375 Z M 240 194 " clip-rule="nonzero"/></clipPath><clipPath id="52bb9dba99"><path d="M 251.183594 148.554688 L 276.53125 148.554688 L 276.53125 173.902344 L 251.183594 173.902344 Z M 251.183594 148.554688 " clip-rule="nonzero"/></clipPath></defs><g clip-path="url(#96fdede039)"><path fill="#ffffff" d="M 304.980469 161.402344 C 304.980469 163.324219 304.933594 165.246094 304.839844 167.167969 C 304.746094 169.085938 304.605469 171.003906 304.417969 172.914062 C 304.226562 174.828125 303.992188 176.734375 303.710938 178.636719 C 303.429688 180.539062 303.101562 182.429688 302.726562 184.316406 C 302.351562 186.199219 301.929688 188.074219 301.460938 189.941406 C 300.996094 191.804688 300.484375 193.65625 299.925781 195.496094 C 299.367188 197.335938 298.765625 199.160156 298.117188 200.96875 C 297.46875 202.78125 296.777344 204.570312 296.042969 206.347656 C 295.304688 208.125 294.527344 209.878906 293.707031 211.617188 C 292.882812 213.355469 292.019531 215.070312 291.113281 216.765625 C 290.207031 218.460938 289.261719 220.132812 288.273438 221.78125 C 287.285156 223.429688 286.257812 225.054688 285.1875 226.652344 C 284.121094 228.25 283.015625 229.820312 281.871094 231.367188 C 280.722656 232.910156 279.542969 234.425781 278.324219 235.910156 C 277.105469 237.394531 275.847656 238.851562 274.558594 240.273438 C 273.265625 241.699219 271.941406 243.089844 270.582031 244.449219 C 269.222656 245.808594 267.832031 247.132812 266.40625 248.425781 C 264.984375 249.714844 263.527344 250.96875 262.042969 252.191406 C 260.558594 253.410156 259.042969 254.589844 257.5 255.738281 C 255.953125 256.882812 254.382812 257.988281 252.785156 259.054688 C 251.1875 260.125 249.5625 261.152344 247.914062 262.140625 C 246.265625 263.128906 244.59375 264.074219 242.898438 264.980469 C 241.203125 265.886719 239.488281 266.75 237.75 267.574219 C 236.011719 268.394531 234.257812 269.171875 232.480469 269.910156 C 230.703125 270.644531 228.914062 271.335938 227.101562 271.984375 C 225.292969 272.632812 223.46875 273.234375 221.628906 273.792969 C 219.789062 274.351562 217.9375 274.863281 216.074219 275.328125 C 214.207031 275.796875 212.335938 276.21875 210.449219 276.59375 C 208.5625 276.96875 206.671875 277.296875 204.769531 277.578125 C 202.867188 277.859375 200.960938 278.09375 199.046875 278.285156 C 197.136719 278.472656 195.21875 278.613281 193.300781 278.707031 C 191.378906 278.800781 189.457031 278.847656 187.535156 278.847656 C 185.613281 278.847656 183.691406 278.800781 181.773438 278.707031 C 179.855469 278.613281 177.9375 278.472656 176.023438 278.285156 C 174.113281 278.09375 172.203125 277.859375 170.304688 277.578125 C 168.402344 277.296875 166.507812 276.96875 164.625 276.59375 C 162.738281 276.21875 160.863281 275.796875 159 275.328125 C 157.136719 274.863281 155.28125 274.351562 153.445312 273.792969 C 151.605469 273.234375 149.78125 272.632812 147.96875 271.984375 C 146.160156 271.335938 144.367188 270.644531 142.59375 269.910156 C 140.816406 269.171875 139.058594 268.394531 137.320312 267.574219 C 135.585938 266.75 133.867188 265.886719 132.171875 264.980469 C 130.476562 264.074219 128.804688 263.128906 127.15625 262.140625 C 125.507812 261.152344 123.886719 260.125 122.285156 259.054688 C 120.6875 257.988281 119.117188 256.882812 117.574219 255.738281 C 116.03125 254.589844 114.515625 253.410156 113.03125 252.191406 C 111.542969 250.96875 110.089844 249.714844 108.664062 248.425781 C 107.242188 247.132812 105.847656 245.808594 104.488281 244.449219 C 103.128906 243.089844 101.804688 241.699219 100.515625 240.273438 C 99.222656 238.851562 97.96875 237.394531 96.75 235.910156 C 95.53125 234.425781 94.347656 232.910156 93.203125 231.367188 C 92.058594 229.820312 90.953125 228.25 89.882812 226.652344 C 88.816406 225.054688 87.789062 223.429688 86.800781 221.78125 C 85.8125 220.132812 84.863281 218.460938 83.957031 216.765625 C 83.050781 215.070312 82.1875 213.355469 81.367188 211.617188 C 80.546875 209.878906 79.765625 208.125 79.03125 206.347656 C 78.296875 204.570312 77.605469 202.777344 76.957031 200.96875 C 76.308594 199.160156 75.707031 197.335938 75.148438 195.496094 C 74.589844 193.65625 74.078125 191.804688 73.609375 189.941406 C 73.144531 188.074219 72.722656 186.199219 72.347656 184.316406 C 71.972656 182.429688 71.644531 180.539062 71.363281 178.636719 C 71.078125 176.734375 70.84375 174.828125 70.65625 172.914062 C 70.46875 171.003906 70.328125 169.085938 70.230469 167.167969 C 70.136719 165.246094 70.089844 163.324219 70.089844 161.402344 C 70.089844 159.480469 70.136719 157.558594 70.230469 155.640625 C 70.328125 153.722656 70.46875 151.804688 70.65625 149.890625 C 70.84375 147.980469 71.078125 146.070312 71.363281 144.171875 C 71.644531 142.269531 71.972656 140.375 72.347656 138.492188 C 72.722656 136.605469 73.144531 134.730469 73.609375 132.867188 C 74.078125 131 74.589844 129.148438 75.148438 127.3125 C 75.707031 125.472656 76.308594 123.648438 76.957031 121.835938 C 77.605469 120.027344 78.296875 118.234375 79.03125 116.457031 C 79.765625 114.683594 80.546875 112.925781 81.367188 111.1875 C 82.1875 109.453125 83.050781 107.734375 83.957031 106.039062 C 84.863281 104.34375 85.8125 102.671875 86.800781 101.023438 C 87.789062 99.375 88.816406 97.753906 89.882812 96.152344 C 90.953125 94.554688 92.058594 92.984375 93.203125 91.441406 C 94.347656 89.898438 95.53125 88.382812 96.75 86.898438 C 97.96875 85.410156 99.222656 83.957031 100.515625 82.53125 C 101.804688 81.109375 103.128906 79.714844 104.488281 78.355469 C 105.847656 76.996094 107.242188 75.671875 108.664062 74.382812 C 110.089844 73.089844 111.542969 71.835938 113.03125 70.617188 C 114.515625 69.398438 116.03125 68.214844 117.574219 67.070312 C 119.117188 65.925781 120.6875 64.820312 122.285156 63.75 C 123.886719 62.683594 125.507812 61.65625 127.15625 60.667969 C 128.804688 59.679688 130.476562 58.730469 132.171875 57.824219 C 133.867188 56.917969 135.585938 56.054688 137.320312 55.234375 C 139.058594 54.410156 140.816406 53.632812 142.59375 52.898438 C 144.367188 52.164062 146.160156 51.46875 147.96875 50.824219 C 149.78125 50.175781 151.605469 49.574219 153.445312 49.015625 C 155.28125 48.457031 157.136719 47.945312 159 47.476562 C 160.863281 47.011719 162.738281 46.589844 164.625 46.214844 C 166.507812 45.839844 168.402344 45.511719 170.304688 45.230469 C 172.203125 44.945312 174.113281 44.710938 176.023438 44.523438 C 177.9375 44.335938 179.855469 44.195312 181.773438 44.097656 C 183.691406 44.003906 185.613281 43.957031 187.535156 43.957031 C 189.457031 43.957031 191.378906 44.003906 193.300781 44.097656 C 195.21875 44.195312 197.136719 44.335938 199.046875 44.523438 C 200.960938 44.710938 202.867188 44.945312 204.769531 45.230469 C 206.671875 45.511719 208.5625 45.839844 210.449219 46.214844 C 212.335938 46.589844 214.207031 47.011719 216.074219 47.476562 C 217.9375 47.945312 219.789062 48.457031 221.628906 49.015625 C 223.46875 49.574219 225.292969 50.175781 227.101562 50.824219 C 228.914062 51.46875 230.703125 52.164062 232.480469 52.898438 C 234.257812 53.632812 236.011719 54.410156 237.75 55.234375 C 239.488281 56.054688 241.203125 56.917969 242.898438 57.824219 C 244.59375 58.730469 246.265625 59.679688 247.914062 60.667969 C 249.5625 61.65625 251.1875 62.683594 252.785156 63.75 C 254.382812 64.820312 255.953125 65.925781 257.5 67.070312 C 259.042969 68.214844 260.558594 69.398438 262.042969 70.617188 C 263.527344 71.835938 264.984375 73.089844 266.40625 74.382812 C 267.832031 75.671875 269.222656 76.996094 270.582031 78.355469 C 271.941406 79.714844 273.265625 81.109375 274.558594 82.53125 C 275.847656 83.957031 277.105469 85.410156 278.324219 86.898438 C 279.542969 88.382812 280.722656 89.898438 281.871094 91.441406 C 283.015625 92.984375 284.121094 94.554688 285.1875 96.152344 C 286.257812 97.753906 287.285156 99.375 288.273438 101.023438 C 289.261719 102.671875 290.207031 104.34375 291.113281 106.039062 C 292.019531 107.734375 292.882812 109.453125 293.707031 111.1875 C 294.527344 112.925781 295.304688 114.683594 296.042969 116.457031 C 296.777344 118.234375 297.46875 120.027344 298.117188 121.835938 C 298.765625 123.648438 299.367188 125.472656 299.925781 127.3125 C 300.484375 129.148438 300.996094 131 301.460938 132.867188 C 301.929688 134.730469 302.351562 136.605469 302.726562 138.492188 C 303.101562 140.375 303.429688 142.269531 303.710938 144.171875 C 303.992188 146.070312 304.226562 147.980469 304.417969 149.890625 C 304.605469 151.804688 304.746094 153.722656 304.839844 155.640625 C 304.933594 157.558594 304.980469 159.480469 304.980469 161.402344 Z M 304.980469 161.402344 " fill-opacity="1" fill-rule="nonzero"/></g><path fill="#a4dcf2" d="M 104.570312 188.304688 L 158.785156 188.304688 L 158.785156 245.96875 L 216.523438 245.96875 L 216.523438 191.824219 L 212.765625 188.066406 C 179.875 155.21875 188.117188 163.453125 158.785156 134.160156 L 138.765625 154.152344 L 138.765625 145.699219 L 121.066406 145.699219 L 121.066406 171.828125 L 104.578125 188.300781 Z M 196.902344 208.066406 L 176.789062 208.066406 L 176.789062 228.152344 L 196.902344 228.152344 Z M 196.902344 208.066406 " fill-opacity="1" fill-rule="evenodd"/><path fill="#ffb82f" d="M 155.175781 130.640625 L 101.046875 130.640625 L 101.046875 184.703125 L 115.167969 170.601562 L 115.167969 139.339844 L 142.183594 139.339844 L 142.183594 143.617188 L 155.179688 130.636719 Z M 216.523438 72.976562 L 158.785156 72.976562 L 158.785156 127.039062 C 185.996094 154.214844 190.6875 158.898438 220.132812 188.304688 L 274.261719 188.304688 L 274.261719 130.640625 L 216.523438 130.640625 Z M 216.523438 72.976562 " fill-opacity="1" fill-rule="evenodd"/><g clip-path="url(#a0f0f29e32)"><path fill="#a4dcf2" d="M 187.660156 348.027344 L 281.867188 253.941406 C 333.6875 202.1875 333.6875 117.515625 281.871094 65.765625 C 230.050781 14.011719 145.269531 14.011719 93.449219 65.765625 C 41.632812 117.515625 41.632812 202.1875 93.457031 253.941406 Z M 187.660156 49.941406 C 126.882812 49.941406 77.613281 99.148438 77.613281 159.851562 C 77.613281 220.550781 126.882812 269.753906 187.660156 269.753906 C 248.4375 269.753906 297.707031 220.550781 297.707031 159.851562 C 297.707031 99.148438 248.4375 49.941406 187.660156 49.941406 Z M 187.660156 49.941406 " fill-opacity="1" fill-rule="evenodd"/></g><g clip-path="url(#dc8fb1adc5)"><path fill="#ffffff" d="M 283.671875 157.429688 C 283.671875 159.007812 283.632812 160.582031 283.558594 162.15625 C 283.480469 163.730469 283.363281 165.304688 283.210938 166.871094 C 283.054688 168.441406 282.863281 170.003906 282.628906 171.5625 C 282.398438 173.125 282.128906 174.675781 281.824219 176.222656 C 281.515625 177.769531 281.167969 179.304688 280.785156 180.835938 C 280.402344 182.363281 279.984375 183.882812 279.527344 185.390625 C 279.066406 186.898438 278.574219 188.394531 278.042969 189.878906 C 277.511719 191.363281 276.945312 192.835938 276.339844 194.292969 C 275.738281 195.746094 275.097656 197.1875 274.425781 198.613281 C 273.75 200.039062 273.042969 201.445312 272.300781 202.835938 C 271.554688 204.226562 270.78125 205.597656 269.96875 206.949219 C 269.160156 208.300781 268.316406 209.632812 267.441406 210.945312 C 266.5625 212.253906 265.65625 213.542969 264.71875 214.808594 C 263.777344 216.074219 262.808594 217.316406 261.808594 218.535156 C 260.808594 219.753906 259.78125 220.949219 258.722656 222.117188 C 257.664062 223.285156 256.574219 224.425781 255.460938 225.539062 C 254.347656 226.65625 253.207031 227.742188 252.039062 228.800781 C 250.867188 229.859375 249.675781 230.886719 248.457031 231.886719 C 247.238281 232.886719 245.996094 233.859375 244.730469 234.796875 C 243.464844 235.734375 242.175781 236.644531 240.863281 237.519531 C 239.554688 238.394531 238.222656 239.238281 236.871094 240.046875 C 235.519531 240.859375 234.148438 241.636719 232.757812 242.378906 C 231.367188 243.121094 229.960938 243.832031 228.535156 244.503906 C 227.109375 245.179688 225.667969 245.816406 224.210938 246.421875 C 222.753906 247.023438 221.285156 247.589844 219.800781 248.121094 C 218.316406 248.652344 216.820312 249.148438 215.3125 249.605469 C 213.804688 250.0625 212.285156 250.484375 210.753906 250.867188 C 209.226562 251.25 207.6875 251.59375 206.140625 251.902344 C 204.597656 252.210938 203.042969 252.480469 201.484375 252.710938 C 199.925781 252.941406 198.359375 253.132812 196.792969 253.289062 C 195.222656 253.441406 193.652344 253.558594 192.078125 253.636719 C 190.503906 253.714844 188.925781 253.753906 187.351562 253.753906 C 185.773438 253.753906 184.199219 253.714844 182.625 253.636719 C 181.050781 253.558594 179.480469 253.441406 177.910156 253.289062 C 176.339844 253.132812 174.777344 252.941406 173.21875 252.710938 C 171.660156 252.480469 170.105469 252.210938 168.558594 251.902344 C 167.011719 251.59375 165.476562 251.25 163.945312 250.867188 C 162.417969 250.484375 160.898438 250.0625 159.390625 249.605469 C 157.882812 249.148438 156.386719 248.652344 154.902344 248.121094 C 153.417969 247.589844 151.945312 247.023438 150.488281 246.421875 C 149.035156 245.816406 147.59375 245.179688 146.167969 244.503906 C 144.742188 243.832031 143.335938 243.121094 141.945312 242.378906 C 140.554688 241.636719 139.183594 240.859375 137.832031 240.046875 C 136.480469 239.238281 135.148438 238.394531 133.835938 237.519531 C 132.527344 236.644531 131.238281 235.734375 129.972656 234.796875 C 128.707031 233.859375 127.464844 232.886719 126.246094 231.886719 C 125.027344 230.886719 123.832031 229.859375 122.664062 228.800781 C 121.496094 227.742188 120.355469 226.65625 119.242188 225.539062 C 118.125 224.425781 117.039062 223.285156 115.980469 222.117188 C 114.921875 220.949219 113.894531 219.753906 112.894531 218.535156 C 111.894531 217.316406 110.921875 216.074219 109.984375 214.808594 C 109.046875 213.542969 108.136719 212.253906 107.261719 210.945312 C 106.386719 209.632812 105.542969 208.300781 104.734375 206.949219 C 103.921875 205.597656 103.144531 204.226562 102.402344 202.835938 C 101.660156 201.445312 100.949219 200.039062 100.277344 198.613281 C 99.601562 197.1875 98.964844 195.746094 98.359375 194.292969 C 97.757812 192.835938 97.191406 191.363281 96.660156 189.878906 C 96.128906 188.394531 95.632812 186.898438 95.175781 185.390625 C 94.71875 183.882812 94.296875 182.363281 93.914062 180.835938 C 93.53125 179.304688 93.1875 177.769531 92.878906 176.222656 C 92.570312 174.675781 92.300781 173.125 92.070312 171.5625 C 91.839844 170.003906 91.648438 168.441406 91.492188 166.871094 C 91.339844 165.304688 91.222656 163.730469 91.144531 162.15625 C 91.066406 160.582031 91.027344 159.007812 91.027344 157.429688 C 91.027344 155.855469 91.066406 154.277344 91.144531 152.703125 C 91.222656 151.128906 91.339844 149.558594 91.492188 147.988281 C 91.648438 146.421875 91.839844 144.855469 92.070312 143.296875 C 92.300781 141.738281 92.570312 140.183594 92.878906 138.640625 C 93.1875 137.09375 93.53125 135.554688 93.914062 134.027344 C 94.296875 132.496094 94.71875 130.976562 95.175781 129.46875 C 95.632812 127.960938 96.128906 126.464844 96.660156 124.980469 C 97.191406 123.496094 97.757812 122.027344 98.359375 120.570312 C 98.964844 119.113281 99.601562 117.671875 100.277344 116.246094 C 100.949219 114.820312 101.660156 113.414062 102.402344 112.023438 C 103.144531 110.632812 103.921875 109.261719 104.734375 107.910156 C 105.542969 106.558594 106.386719 105.226562 107.261719 103.917969 C 108.136719 102.605469 109.046875 101.316406 109.984375 100.050781 C 110.921875 98.785156 111.894531 97.542969 112.894531 96.324219 C 113.894531 95.105469 114.921875 93.914062 115.980469 92.746094 C 117.039062 91.578125 118.125 90.433594 119.242188 89.320312 C 120.355469 88.207031 121.496094 87.117188 122.664062 86.058594 C 123.832031 85 125.027344 83.972656 126.246094 82.972656 C 127.464844 81.972656 128.707031 81.003906 129.972656 80.0625 C 131.238281 79.125 132.527344 78.21875 133.835938 77.339844 C 135.148438 76.464844 136.480469 75.621094 137.832031 74.8125 C 139.183594 74 140.554688 73.226562 141.945312 72.480469 C 143.335938 71.738281 144.742188 71.03125 146.167969 70.355469 C 147.59375 69.683594 149.035156 69.042969 150.488281 68.441406 C 151.945312 67.835938 153.417969 67.269531 154.902344 66.738281 C 156.386719 66.207031 157.882812 65.714844 159.390625 65.253906 C 160.898438 64.796875 162.417969 64.378906 163.945312 63.996094 C 165.476562 63.613281 167.011719 63.265625 168.558594 62.957031 C 170.105469 62.652344 171.660156 62.382812 173.21875 62.152344 C 174.777344 61.917969 176.339844 61.726562 177.910156 61.570312 C 179.480469 61.417969 181.050781 61.300781 182.625 61.222656 C 184.199219 61.148438 185.773438 61.109375 187.351562 61.109375 C 188.925781 61.109375 190.503906 61.148438 192.078125 61.222656 C 193.652344 61.300781 195.222656 61.417969 196.792969 61.570312 C 198.359375 61.726562 199.925781 61.917969 201.484375 62.152344 C 203.042969 62.382812 204.597656 62.652344 206.140625 62.957031 C 207.6875 63.265625 209.226562 63.613281 210.753906 63.996094 C 212.285156 64.378906 213.804688 64.796875 215.3125 65.253906 C 216.820312 65.714844 218.316406 66.207031 219.800781 66.738281 C 221.285156 67.269531 222.753906 67.835938 224.210938 68.441406 C 225.667969 69.042969 227.109375 69.683594 228.535156 70.355469 C 229.960938 71.03125 231.367188 71.738281 232.757812 72.480469 C 234.148438 73.226562 235.519531 74 236.871094 74.8125 C 238.222656 75.621094 239.554688 76.464844 240.863281 77.339844 C 242.175781 78.21875 243.464844 79.125 244.730469 80.0625 C 245.996094 81.003906 247.238281 81.972656 248.457031 82.972656 C 249.675781 83.972656 250.867188 85 252.039062 86.058594 C 253.207031 87.117188 254.347656 88.207031 255.460938 89.320312 C 256.574219 90.433594 257.664062 91.578125 258.722656 92.746094 C 259.78125 93.914062 260.808594 95.105469 261.808594 96.324219 C 262.808594 97.542969 263.777344 98.785156 264.71875 100.050781 C 265.65625 101.316406 266.5625 102.605469 267.441406 103.917969 C 268.316406 105.226562 269.160156 106.558594 269.96875 107.910156 C 270.78125 109.261719 271.554688 110.632812 272.300781 112.023438 C 273.042969 113.414062 273.75 114.820312 274.425781 116.246094 C 275.097656 117.671875 275.738281 119.113281 276.339844 120.570312 C 276.945312 122.027344 277.511719 123.496094 278.042969 124.980469 C 278.574219 126.464844 279.066406 127.960938 279.527344 129.46875 C 279.984375 130.976562 280.402344 132.496094 280.785156 134.027344 C 281.167969 135.554688 281.515625 137.09375 281.824219 138.640625 C 282.128906 140.183594 282.398438 141.738281 282.628906 143.296875 C 282.863281 144.855469 283.054688 146.421875 283.210938 147.988281 C 283.363281 149.558594 283.480469 151.128906 283.558594 152.703125 C 283.632812 154.277344 283.671875 155.855469 283.671875 157.429688 Z M 283.671875 157.429688 " fill-opacity="1" fill-rule="nonzero"/></g><g clip-path="url(#fd4362908f)"><path fill="#a4dcf2" d="M 254.835938 193.09375 L 213.492188 193.039062 C 211.0625 184.261719 204.464844 180.546875 196.257812 178.320312 C 194.117188 168.46875 186.199219 161.453125 175.976562 161.300781 C 175.789062 161.296875 175.597656 161.300781 175.410156 161.316406 C 173.785156 161.464844 174.738281 161.359375 172.554688 161.667969 C 167.34375 154.570312 159.882812 149.164062 151.339844 146.964844 C 133.175781 142.289062 113.773438 152.804688 108.683594 171.042969 C 105.101562 172.363281 101.988281 174.414062 99.261719 177.113281 C 98.527344 177.839844 98.058594 178.792969 97.457031 179.632812 C 93.058594 174.117188 91.4375 167.4375 91.085938 160.527344 C 91.464844 145.980469 100.023438 134.261719 113.796875 129.59375 C 114.964844 129.195312 116.257812 129.035156 117.421875 128.851562 C 118.585938 128.667969 125.320312 126.835938 141.433594 131.589844 C 131.398438 125.332031 118.609375 124.65625 118.726562 124.222656 C 125.800781 97.570312 152.71875 82.894531 179.714844 88.589844 C 195.175781 91.851562 206.722656 102.746094 213.316406 112.164062 C 213.480469 112.402344 204.558594 118.210938 201.082031 125.210938 C 206.597656 119.234375 213.089844 116.539062 215.4375 115.605469 C 217.785156 114.671875 221.804688 113.875 225.078125 113.667969 C 239.730469 113.667969 251.605469 125.570312 251.605469 140.25 C 251.605469 140.25 251.53125 141.796875 251.488281 142.582031 C 251.449219 143.359375 250.785156 147.5 248.929688 154.351562 C 253.824219 148.039062 254.109375 142.546875 254.335938 142.519531 C 261.539062 141.648438 274.800781 147.507812 279.402344 156.980469 C 280.679688 159.609375 281.191406 162.28125 281.785156 165.121094 L 281.785156 165.164062 L 281.925781 165.179688 C 281.835938 166.023438 281.875 166.871094 281.925781 167.714844 C 281.925781 181.730469 269.796875 193.09375 254.835938 193.09375 Z M 142.980469 213.011719 C 142.355469 213 141.730469 213.007812 141.105469 212.945312 L 116.417969 212.910156 C 105.984375 212.910156 97.527344 204.433594 97.527344 193.980469 C 97.746094 185.476562 102.75 178.625 110.800781 175.894531 C 111.484375 175.664062 112.238281 175.570312 112.917969 175.464844 C 113.597656 175.355469 117.535156 174.285156 126.953125 177.066406 C 121.085938 173.40625 113.613281 173.011719 113.679688 172.757812 C 117.816406 157.179688 133.550781 148.601562 149.328125 151.933594 C 158.367188 153.839844 165.113281 160.207031 168.96875 165.710938 C 169.066406 165.851562 163.851562 169.246094 161.816406 173.335938 C 165.039062 169.84375 168.835938 168.269531 170.210938 167.722656 C 171.582031 167.175781 173.929688 166.710938 175.84375 166.589844 C 184.40625 166.589844 191.351562 173.546875 191.351562 182.128906 C 191.351562 182.128906 191.304688 183.03125 191.28125 183.488281 C 191.257812 183.945312 190.871094 186.363281 189.785156 190.367188 C 192.644531 186.679688 192.8125 183.46875 192.945312 183.453125 C 197.15625 182.941406 204.90625 186.367188 207.597656 191.90625 C 208.34375 193.441406 208.640625 195.003906 208.988281 196.664062 L 209.070312 196.699219 C 209.019531 197.191406 209.042969 197.6875 209.070312 198.179688 C 209.070312 206.371094 201.984375 213.011719 193.238281 213.011719 L 144.820312 212.949219 L 144.570312 212.976562 L 142.980469 213.011719 " fill-opacity="1" fill-rule="nonzero"/></g><g clip-path="url(#97de08ae18)"><path fill="#ffffff" d="M 287.835938 202.101562 C 287.835938 202.363281 287.796875 202.621094 287.722656 202.882812 C 287.644531 203.144531 287.53125 203.402344 287.375 203.660156 C 287.222656 203.917969 287.035156 204.167969 286.808594 204.421875 C 286.578125 204.671875 286.316406 204.917969 286.015625 205.160156 C 285.71875 205.402344 285.382812 205.636719 285.015625 205.867188 C 284.644531 206.097656 284.242188 206.324219 283.808594 206.539062 C 283.375 206.757812 282.90625 206.96875 282.410156 207.171875 C 281.914062 207.375 281.390625 207.566406 280.835938 207.753906 C 280.28125 207.9375 279.703125 208.113281 279.097656 208.277344 C 278.492188 208.445312 277.863281 208.601562 277.214844 208.746094 C 276.5625 208.890625 275.894531 209.027344 275.203125 209.148438 C 274.511719 209.273438 273.804688 209.386719 273.082031 209.484375 C 272.359375 209.585938 271.621094 209.671875 270.875 209.75 C 270.125 209.824219 269.367188 209.890625 268.597656 209.941406 C 267.832031 209.992188 267.058594 210.03125 266.277344 210.054688 C 265.5 210.082031 264.71875 210.09375 263.9375 210.09375 C 263.152344 210.09375 262.371094 210.082031 261.59375 210.054688 C 260.8125 210.03125 260.042969 209.992188 259.273438 209.941406 C 258.503906 209.890625 257.746094 209.824219 257 209.75 C 256.25 209.671875 255.511719 209.585938 254.789062 209.484375 C 254.066406 209.386719 253.359375 209.273438 252.667969 209.148438 C 251.980469 209.027344 251.308594 208.890625 250.65625 208.746094 C 250.007812 208.601562 249.378906 208.445312 248.773438 208.277344 C 248.167969 208.113281 247.589844 207.9375 247.035156 207.753906 C 246.484375 207.566406 245.957031 207.375 245.460938 207.171875 C 244.964844 206.96875 244.5 206.757812 244.0625 206.539062 C 243.628906 206.324219 243.226562 206.097656 242.859375 205.867188 C 242.488281 205.636719 242.15625 205.402344 241.855469 205.160156 C 241.554688 204.917969 241.292969 204.671875 241.066406 204.421875 C 240.835938 204.167969 240.648438 203.917969 240.496094 203.660156 C 240.34375 203.402344 240.226562 203.144531 240.152344 202.882812 C 240.074219 202.621094 240.035156 202.363281 240.035156 202.101562 C 240.035156 201.839844 240.074219 201.578125 240.152344 201.316406 C 240.226562 201.054688 240.34375 200.796875 240.496094 200.539062 C 240.648438 200.285156 240.835938 200.03125 241.066406 199.78125 C 241.292969 199.527344 241.554688 199.28125 241.855469 199.042969 C 242.15625 198.800781 242.488281 198.5625 242.859375 198.332031 C 243.226562 198.101562 243.628906 197.875 244.0625 197.660156 C 244.5 197.441406 244.964844 197.230469 245.460938 197.027344 C 245.957031 196.828125 246.484375 196.632812 247.035156 196.449219 C 247.589844 196.261719 248.167969 196.085938 248.773438 195.921875 C 249.378906 195.753906 250.007812 195.597656 250.65625 195.453125 C 251.308594 195.308594 251.980469 195.175781 252.667969 195.050781 C 253.359375 194.925781 254.066406 194.816406 254.789062 194.714844 C 255.511719 194.613281 256.25 194.527344 257 194.449219 C 257.746094 194.375 258.503906 194.3125 259.273438 194.261719 C 260.042969 194.210938 260.8125 194.171875 261.59375 194.144531 C 262.371094 194.121094 263.152344 194.105469 263.9375 194.105469 C 264.71875 194.105469 265.5 194.121094 266.277344 194.144531 C 267.058594 194.171875 267.832031 194.210938 268.597656 194.261719 C 269.367188 194.3125 270.125 194.375 270.875 194.449219 C 271.621094 194.527344 272.359375 194.613281 273.082031 194.714844 C 273.804688 194.816406 274.511719 194.925781 275.203125 195.050781 C 275.894531 195.175781 276.5625 195.308594 277.214844 195.453125 C 277.863281 195.597656 278.492188 195.753906 279.097656 195.921875 C 279.703125 196.085938 280.28125 196.261719 280.835938 196.449219 C 281.390625 196.632812 281.914062 196.828125 282.410156 197.027344 C 282.90625 197.230469 283.375 197.441406 283.808594 197.660156 C 284.242188 197.875 284.644531 198.101562 285.015625 198.332031 C 285.382812 198.5625 285.71875 198.800781 286.015625 199.042969 C 286.316406 199.28125 286.578125 199.527344 286.808594 199.78125 C 287.035156 200.03125 287.222656 200.285156 287.375 200.539062 C 287.53125 200.796875 287.644531 201.054688 287.722656 201.316406 C 287.796875 201.578125 287.835938 201.839844 287.835938 202.101562 Z M 287.835938 202.101562 " fill-opacity="1" fill-rule="nonzero"/></g><path fill="#ffffff" d="M 279.460938 146.871094 C 270.886719 138.273438 256.984375 138.273438 248.414062 146.871094 C 241.011719 154.292969 239.867188 165.921875 245.671875 174.652344 L 263.9375 202.117188 L 282.199219 174.652344 C 288.007812 165.921875 286.859375 154.292969 279.460938 146.871094 Z M 263.9375 173.46875 C 270.203125 173.46875 275.28125 168.375 275.28125 162.089844 C 275.28125 155.804688 270.203125 150.710938 263.9375 150.710938 C 257.671875 150.710938 252.589844 155.804688 252.589844 162.089844 C 252.589844 168.375 257.671875 173.46875 263.9375 173.46875 Z M 263.9375 173.46875 " fill-opacity="1" fill-rule="evenodd"/><g clip-path="url(#52bb9dba99)"><path fill="#ffca70" d="M 276.53125 161.226562 C 276.53125 162.058594 276.449219 162.882812 276.285156 163.699219 C 276.125 164.515625 275.882812 165.308594 275.566406 166.078125 C 275.246094 166.847656 274.855469 167.578125 274.394531 168.269531 C 273.933594 168.960938 273.40625 169.601562 272.816406 170.191406 C 272.230469 170.777344 271.589844 171.304688 270.898438 171.765625 C 270.207031 172.226562 269.476562 172.617188 268.707031 172.9375 C 267.9375 173.253906 267.144531 173.496094 266.328125 173.660156 C 265.511719 173.820312 264.6875 173.902344 263.855469 173.902344 C 263.023438 173.902344 262.199219 173.820312 261.382812 173.660156 C 260.566406 173.496094 259.773438 173.253906 259.007812 172.9375 C 258.238281 172.617188 257.507812 172.226562 256.816406 171.765625 C 256.121094 171.304688 255.484375 170.777344 254.894531 170.191406 C 254.304688 169.601562 253.78125 168.960938 253.316406 168.269531 C 252.855469 167.578125 252.464844 166.847656 252.148438 166.078125 C 251.828125 165.308594 251.589844 164.515625 251.425781 163.699219 C 251.261719 162.882812 251.183594 162.058594 251.183594 161.226562 C 251.183594 160.394531 251.261719 159.570312 251.425781 158.753906 C 251.589844 157.9375 251.828125 157.148438 252.148438 156.378906 C 252.464844 155.609375 252.855469 154.878906 253.316406 154.1875 C 253.78125 153.496094 254.304688 152.855469 254.894531 152.265625 C 255.484375 151.675781 256.121094 151.152344 256.816406 150.691406 C 257.507812 150.226562 258.238281 149.835938 259.007812 149.519531 C 259.773438 149.199219 260.566406 148.960938 261.382812 148.796875 C 262.199219 148.636719 263.023438 148.554688 263.855469 148.554688 C 264.6875 148.554688 265.511719 148.636719 266.328125 148.796875 C 267.144531 148.960938 267.9375 149.199219 268.707031 149.519531 C 269.476562 149.835938 270.207031 150.226562 270.898438 150.691406 C 271.589844 151.152344 272.230469 151.675781 272.816406 152.265625 C 273.40625 152.855469 273.933594 153.496094 274.394531 154.1875 C 274.855469 154.878906 275.246094 155.609375 275.566406 156.378906 C 275.882812 157.148438 276.125 157.9375 276.285156 158.753906 C 276.449219 159.570312 276.53125 160.394531 276.53125 161.226562 Z M 276.53125 161.226562 " fill-opacity="1" fill-rule="nonzero"/></g></svg>